<svg width="32" height="34" viewBox="0 0 32 34" fill="none" xmlns="http://www.w3.org/2000/svg">
<path d="M32 16.6162C32 25.4528 24.8366 32.6162 16 32.6162C11.9262 32.6162 8.73801 30.8771 8.73801 30.8771L4.369 33.3837C4.369 33.3837 5.19557 29.0147 5.13899 28.3653C1.97867 25.4424 0 21.2604 0 16.6162C0 7.77965 7.16344 0.616211 16 0.616211C24.8366 0.616211 32 7.77965 32 16.6162Z" fill="#162640"/>
<mask id="path-2-inside-1_8210_43004" fill="white">
<path d="M23.9704 22.511C22.743 24.0252 21.4954 25.1097 19.6179 25.6427C17.7403 26.1756 15.7436 26.1167 13.901 25.474C12.0583 24.8312 10.4598 23.6361 9.32427 22.0522C8.18871 20.4682 7.57159 18.5729 7.55738 16.6256C7.54317 14.6783 8.13257 12.7742 9.2449 11.1739C10.3572 9.57369 11.9381 8.35547 13.7712 7.68605C15.6043 7.01663 17.5999 6.92871 19.485 7.43434C21.3701 7.93997 22.4915 8.87747 23.7409 10.3737L21.2752 13.0259C20.5456 12.1521 19.5631 11.5246 18.4622 11.2293C17.3613 10.934 16.1958 10.9854 15.1253 11.3763C14.0548 11.7672 13.1316 12.4787 12.482 13.4132C11.8324 14.3478 11.4882 15.4598 11.4965 16.597C11.5048 17.7342 11.8652 18.8411 12.5283 19.7661C13.1915 20.6911 14.125 21.3891 15.2011 21.7644C16.2772 22.1398 17.4433 22.1742 18.5398 21.863C19.6362 21.5517 20.6095 20.91 21.3263 20.0258L23.9704 22.511Z"/>
</mask>
<path d="M23.9704 22.511C22.743 24.0252 21.4954 25.1097 19.6179 25.6427C17.7403 26.1756 15.7436 26.1167 13.901 25.474C12.0583 24.8312 10.4598 23.6361 9.32427 22.0522C8.18871 20.4682 7.57159 18.5729 7.55738 16.6256C7.54317 14.6783 8.13257 12.7742 9.2449 11.1739C10.3572 9.57369 11.9381 8.35547 13.7712 7.68605C15.6043 7.01663 17.5999 6.92871 19.485 7.43434C21.3701 7.93997 22.4915 8.87747 23.7409 10.3737L21.2752 13.0259C20.5456 12.1521 19.5631 11.5246 18.4622 11.2293C17.3613 10.934 16.1958 10.9854 15.1253 11.3763C14.0548 11.7672 13.1316 12.4787 12.482 13.4132C11.8324 14.3478 11.4882 15.4598 11.4965 16.597C11.5048 17.7342 11.8652 18.8411 12.5283 19.7661C13.1915 20.6911 14.125 21.3891 15.2011 21.7644C16.2772 22.1398 17.4433 22.1742 18.5398 21.863C19.6362 21.5517 20.6095 20.91 21.3263 20.0258L23.9704 22.511Z" stroke="white" stroke-width="7.79336" mask="url(#path-2-inside-1_8210_43004)"/>
</svg>
