<svg width="43" height="43" viewBox="0 0 43 43" fill="none" xmlns="http://www.w3.org/2000/svg">
<path d="M42.5 21C42.5 32.598 33.098 42 21.5 42C16.1531 42 11.9686 39.7174 11.9686 39.7174L6.23432 43.0074C6.23432 43.0074 7.31919 37.2731 7.24492 36.4207C3.09701 32.5844 0.5 27.0955 0.5 21C0.5 9.40202 9.90202 0 21.5 0C33.098 0 42.5 9.40202 42.5 21Z" fill="#162640"/>
<path d="M25.4117 11.419C26.0607 11.5931 26.613 11.812 27.1222 12.1027C26.5704 11.8361 25.9921 11.6205 25.3942 11.4602C23.4414 10.9364 21.374 11.0274 19.4749 11.721C17.5757 12.4145 15.9366 13.6771 14.7829 15.3369C13.6291 16.9968 13.0173 18.9726 13.0321 20.9938C13.0468 23.015 13.6874 24.9816 14.8652 26.6246C16.043 28.2674 17.7003 29.506 19.6094 30.172C21.5184 30.8378 23.5868 30.8989 25.5318 30.3468C26.0538 30.1986 26.5601 30.0082 27.0461 29.7786C26.5839 30.0334 26.0924 30.2337 25.5502 30.3876C23.5919 30.9435 21.5091 30.882 19.5873 30.2117C17.6656 29.5413 15.9995 28.2953 14.8165 26.6451C13.6335 24.995 12.9911 23.0213 12.9763 20.994C12.9615 18.9668 13.575 16.984 14.7338 15.3169C15.8926 13.6498 17.5402 12.3797 19.452 11.6816C21.3638 10.9834 23.4454 10.8917 25.4117 11.419Z" stroke="white" stroke-width="5.11439"/>
</svg>
