<svg width="14" height="15" viewBox="0 0 14 15" fill="none" xmlns="http://www.w3.org/2000/svg">
  <mask id="path-1-inside-1_5042_2751" fill="white">
    <path
      d="M8.80977 0.777344C8.83387 0.777315 8.85772 0.782186 8.87988 0.79166C8.90203 0.801134 8.92203 0.815013 8.93866 0.832455L11.3947 3.39868C11.4264 3.43163 11.4443 3.47557 11.4444 3.52134V6.78357C11.8927 7.08436 12.2755 7.47278 12.5697 7.92543C12.8638 8.37808 13.0633 8.88559 13.1562 9.4174C13.249 9.9492 13.2332 10.4943 13.1097 11.0198C12.9863 11.5454 12.7577 12.0405 12.4379 12.4754C12.118 12.9102 11.7134 13.2758 11.2484 13.5502C10.7835 13.8245 10.2678 14.0019 9.73248 14.0716C9.19716 14.1414 8.65326 14.102 8.13355 13.956C7.61384 13.8099 7.12907 13.5602 6.70844 13.2218H0.955549C0.908399 13.2218 0.863181 13.2031 0.829841 13.1697C0.796501 13.1364 0.777771 13.0912 0.777771 13.044V0.955122C0.777771 0.857344 0.857771 0.777344 0.955549 0.777344H8.80977ZM9.22133 6.99957C8.39621 6.99957 7.60489 7.32734 7.02144 7.91079C6.43799 8.49424 6.11022 9.28556 6.11022 10.1107C6.11022 10.9358 6.43799 11.7271 7.02144 12.3106C7.60489 12.894 8.39621 13.2218 9.22133 13.2218C10.0464 13.2218 10.8378 12.894 11.4212 12.3106C12.0047 11.7271 12.3324 10.9358 12.3324 10.1107C12.3324 9.28556 12.0047 8.49424 11.4212 7.91079C10.8378 7.32734 10.0464 6.99957 9.22133 6.99957ZM1.75555 1.73734L1.69688 12.2707H5.85688C5.40474 11.567 5.18458 10.7392 5.22736 9.90386C5.27015 9.06851 5.57373 8.26759 6.0954 7.61375C6.61708 6.95992 7.3306 6.48607 8.13559 6.25887C8.94059 6.03166 9.79656 6.06252 10.5831 6.34712L10.5813 4.04312L8.42577 1.7809L1.75466 1.73645L1.75555 1.73734ZM8.97599 9.83157L9.01599 9.83423L9.09599 9.8609L9.14488 9.89645L9.25777 10.0102C9.2956 10.0474 9.31784 10.0977 9.31999 10.1507L9.31644 10.2102L9.29422 10.2813L9.25866 10.3311L9.12622 10.4627L9.26666 10.6031L9.39822 10.4725L9.43822 10.4405L9.48711 10.42L9.54577 10.4102L9.59822 10.4138L9.66933 10.4369L9.71822 10.4716L9.83199 10.5836C9.86949 10.6209 9.89141 10.6711 9.89333 10.724L9.89066 10.7836L9.86755 10.8547L9.83199 10.9045L9.69866 11.036L9.73599 11.0733L9.76799 11.1133L9.78844 11.1622L9.79733 11.2209L9.79466 11.2733L9.77155 11.3445L9.73599 11.3942L9.32444 11.8058C9.13511 11.996 8.88088 12.1 8.61422 12.1C8.51822 12.1 8.41599 12.0822 8.31199 12.0458L8.20711 12.004L8.17155 11.9862L7.96533 12.1942L7.94133 12.2138L7.91199 12.2307L7.87644 12.244L7.83111 12.2529L7.75999 12.2493L7.68444 12.2191L7.64799 12.1898L7.52088 12.0627C7.48338 12.0253 7.46146 11.9751 7.45955 11.9222L7.46222 11.8627L7.48533 11.7916L7.52088 11.7418L7.72444 11.5373L7.71377 11.5151C7.61887 11.2988 7.59885 11.057 7.65688 10.828L7.69244 10.7169L7.74044 10.6102L7.78844 10.5293L7.84533 10.452L7.90488 10.3862L8.32088 9.97023C8.34383 9.94827 8.3715 9.93185 8.40177 9.92223L8.45511 9.91157L8.52533 9.91423L8.60088 9.94534L8.63733 9.97468L8.69333 10.0307L8.86488 9.86534L8.90044 9.84845L8.97599 9.83157ZM8.47999 10.6707L8.33688 10.8165C8.3002 10.8525 8.27108 10.8956 8.25124 10.943C8.2314 10.9905 8.22123 11.0414 8.22133 11.0929C8.22085 11.1444 8.23065 11.1955 8.25013 11.2431C8.26962 11.2908 8.29841 11.3341 8.33482 11.3705C8.37124 11.4069 8.41454 11.4357 8.46221 11.4552C8.50987 11.4747 8.56095 11.4845 8.61244 11.484C8.65955 11.484 8.70577 11.4751 8.74755 11.4609L8.80533 11.4342L8.84711 11.4067L8.88888 11.3693L9.03288 11.2245L8.47999 10.6707ZM11.0364 8.40134L11.0764 8.40845L11.152 8.43868L11.1893 8.46801L11.3156 8.59512C11.3534 8.63233 11.3756 8.68255 11.3778 8.73557L11.3742 8.79512L11.352 8.86623L11.3164 8.91601L11.1111 9.11868L11.1235 9.14268C11.2187 9.36045 11.2373 9.60401 11.1796 9.82979L11.144 9.9409L11.096 10.0476L11.048 10.1285L10.9911 10.2058L10.9324 10.2716L10.5164 10.6876C10.4932 10.7096 10.4653 10.7261 10.4347 10.7356L10.3813 10.7462L10.312 10.7436L10.2364 10.7125L10.1991 10.6831L9.10133 9.58445C9.0635 9.54724 9.04126 9.49703 9.03911 9.44401L9.04266 9.38445L9.06488 9.31334L9.10044 9.26357L9.51288 8.85112C9.70222 8.66179 9.95555 8.55779 10.2222 8.55779C10.3182 8.55779 10.4213 8.57557 10.5253 8.61201L10.6302 8.65379L10.664 8.67068L10.872 8.46357L10.9022 8.43957L10.9422 8.41823L10.9822 8.40668L11.0169 8.40223H11.0364V8.40134ZM10.224 9.17379C10.1783 9.17385 10.1329 9.18166 10.0898 9.1969L10.032 9.22357L9.98933 9.25112L9.94844 9.28845L9.80355 9.43245L10.3556 9.98445L10.5004 9.84134C10.5455 9.79671 10.579 9.7418 10.5982 9.68134L10.6107 9.62268L10.6151 9.5649C10.6156 9.51341 10.6058 9.46233 10.5863 9.41467C10.5668 9.367 10.538 9.3237 10.5016 9.28728C10.4652 9.25087 10.4219 9.22208 10.3742 9.20259C10.3266 9.18311 10.2755 9.17331 10.224 9.17379ZM5.49777 6.36312C5.59555 6.36312 5.67555 6.44312 5.67555 6.5409V7.16312C5.67555 7.21027 5.65682 7.25549 5.62348 7.28883C5.59014 7.32217 5.54492 7.3409 5.49777 7.3409H3.18844C3.14129 7.3409 3.09607 7.32217 3.06273 7.28883C3.02939 7.25549 3.01066 7.21027 3.01066 7.16312V6.5409C3.01066 6.44312 3.09066 6.36312 3.18844 6.36312H5.49777ZM7.27022 3.69645C7.36799 3.69645 7.44799 3.77645 7.44799 3.87423V4.49645C7.44799 4.5436 7.42926 4.58882 7.39592 4.62216C7.36258 4.6555 7.31737 4.67423 7.27022 4.67423H3.18844C3.14129 4.67423 3.09607 4.6555 3.06273 4.62216C3.02939 4.58882 3.01066 4.5436 3.01066 4.49645V3.87423C3.01066 3.77645 3.09066 3.69645 3.18844 3.69645H7.27022Z" />
  </mask>
  <path
    d="M8.80977 0.777344C8.83387 0.777315 8.85772 0.782186 8.87988 0.79166C8.90203 0.801134 8.92203 0.815013 8.93866 0.832455L11.3947 3.39868C11.4264 3.43163 11.4443 3.47557 11.4444 3.52134V6.78357C11.8927 7.08436 12.2755 7.47278 12.5697 7.92543C12.8638 8.37808 13.0633 8.88559 13.1562 9.4174C13.249 9.9492 13.2332 10.4943 13.1097 11.0198C12.9863 11.5454 12.7577 12.0405 12.4379 12.4754C12.118 12.9102 11.7134 13.2758 11.2484 13.5502C10.7835 13.8245 10.2678 14.0019 9.73248 14.0716C9.19716 14.1414 8.65326 14.102 8.13355 13.956C7.61384 13.8099 7.12907 13.5602 6.70844 13.2218H0.955549C0.908399 13.2218 0.863181 13.2031 0.829841 13.1697C0.796501 13.1364 0.777771 13.0912 0.777771 13.044V0.955122C0.777771 0.857344 0.857771 0.777344 0.955549 0.777344H8.80977ZM9.22133 6.99957C8.39621 6.99957 7.60489 7.32734 7.02144 7.91079C6.43799 8.49424 6.11022 9.28556 6.11022 10.1107C6.11022 10.9358 6.43799 11.7271 7.02144 12.3106C7.60489 12.894 8.39621 13.2218 9.22133 13.2218C10.0464 13.2218 10.8378 12.894 11.4212 12.3106C12.0047 11.7271 12.3324 10.9358 12.3324 10.1107C12.3324 9.28556 12.0047 8.49424 11.4212 7.91079C10.8378 7.32734 10.0464 6.99957 9.22133 6.99957ZM1.75555 1.73734L1.69688 12.2707H5.85688C5.40474 11.567 5.18458 10.7392 5.22736 9.90386C5.27015 9.06851 5.57373 8.26759 6.0954 7.61375C6.61708 6.95992 7.3306 6.48607 8.13559 6.25887C8.94059 6.03166 9.79656 6.06252 10.5831 6.34712L10.5813 4.04312L8.42577 1.7809L1.75466 1.73645L1.75555 1.73734ZM8.97599 9.83157L9.01599 9.83423L9.09599 9.8609L9.14488 9.89645L9.25777 10.0102C9.2956 10.0474 9.31784 10.0977 9.31999 10.1507L9.31644 10.2102L9.29422 10.2813L9.25866 10.3311L9.12622 10.4627L9.26666 10.6031L9.39822 10.4725L9.43822 10.4405L9.48711 10.42L9.54577 10.4102L9.59822 10.4138L9.66933 10.4369L9.71822 10.4716L9.83199 10.5836C9.86949 10.6209 9.89141 10.6711 9.89333 10.724L9.89066 10.7836L9.86755 10.8547L9.83199 10.9045L9.69866 11.036L9.73599 11.0733L9.76799 11.1133L9.78844 11.1622L9.79733 11.2209L9.79466 11.2733L9.77155 11.3445L9.73599 11.3942L9.32444 11.8058C9.13511 11.996 8.88088 12.1 8.61422 12.1C8.51822 12.1 8.41599 12.0822 8.31199 12.0458L8.20711 12.004L8.17155 11.9862L7.96533 12.1942L7.94133 12.2138L7.91199 12.2307L7.87644 12.244L7.83111 12.2529L7.75999 12.2493L7.68444 12.2191L7.64799 12.1898L7.52088 12.0627C7.48338 12.0253 7.46146 11.9751 7.45955 11.9222L7.46222 11.8627L7.48533 11.7916L7.52088 11.7418L7.72444 11.5373L7.71377 11.5151C7.61887 11.2988 7.59885 11.057 7.65688 10.828L7.69244 10.7169L7.74044 10.6102L7.78844 10.5293L7.84533 10.452L7.90488 10.3862L8.32088 9.97023C8.34383 9.94827 8.3715 9.93185 8.40177 9.92223L8.45511 9.91157L8.52533 9.91423L8.60088 9.94534L8.63733 9.97468L8.69333 10.0307L8.86488 9.86534L8.90044 9.84845L8.97599 9.83157ZM8.47999 10.6707L8.33688 10.8165C8.3002 10.8525 8.27108 10.8956 8.25124 10.943C8.2314 10.9905 8.22123 11.0414 8.22133 11.0929C8.22085 11.1444 8.23065 11.1955 8.25013 11.2431C8.26962 11.2908 8.29841 11.3341 8.33482 11.3705C8.37124 11.4069 8.41454 11.4357 8.46221 11.4552C8.50987 11.4747 8.56095 11.4845 8.61244 11.484C8.65955 11.484 8.70577 11.4751 8.74755 11.4609L8.80533 11.4342L8.84711 11.4067L8.88888 11.3693L9.03288 11.2245L8.47999 10.6707ZM11.0364 8.40134L11.0764 8.40845L11.152 8.43868L11.1893 8.46801L11.3156 8.59512C11.3534 8.63233 11.3756 8.68255 11.3778 8.73557L11.3742 8.79512L11.352 8.86623L11.3164 8.91601L11.1111 9.11868L11.1235 9.14268C11.2187 9.36045 11.2373 9.60401 11.1796 9.82979L11.144 9.9409L11.096 10.0476L11.048 10.1285L10.9911 10.2058L10.9324 10.2716L10.5164 10.6876C10.4932 10.7096 10.4653 10.7261 10.4347 10.7356L10.3813 10.7462L10.312 10.7436L10.2364 10.7125L10.1991 10.6831L9.10133 9.58445C9.0635 9.54724 9.04126 9.49703 9.03911 9.44401L9.04266 9.38445L9.06488 9.31334L9.10044 9.26357L9.51288 8.85112C9.70222 8.66179 9.95555 8.55779 10.2222 8.55779C10.3182 8.55779 10.4213 8.57557 10.5253 8.61201L10.6302 8.65379L10.664 8.67068L10.872 8.46357L10.9022 8.43957L10.9422 8.41823L10.9822 8.40668L11.0169 8.40223H11.0364V8.40134ZM10.224 9.17379C10.1783 9.17385 10.1329 9.18166 10.0898 9.1969L10.032 9.22357L9.98933 9.25112L9.94844 9.28845L9.80355 9.43245L10.3556 9.98445L10.5004 9.84134C10.5455 9.79671 10.579 9.7418 10.5982 9.68134L10.6107 9.62268L10.6151 9.5649C10.6156 9.51341 10.6058 9.46233 10.5863 9.41467C10.5668 9.367 10.538 9.3237 10.5016 9.28728C10.4652 9.25087 10.4219 9.22208 10.3742 9.20259C10.3266 9.18311 10.2755 9.17331 10.224 9.17379ZM5.49777 6.36312C5.59555 6.36312 5.67555 6.44312 5.67555 6.5409V7.16312C5.67555 7.21027 5.65682 7.25549 5.62348 7.28883C5.59014 7.32217 5.54492 7.3409 5.49777 7.3409H3.18844C3.14129 7.3409 3.09607 7.32217 3.06273 7.28883C3.02939 7.25549 3.01066 7.21027 3.01066 7.16312V6.5409C3.01066 6.44312 3.09066 6.36312 3.18844 6.36312H5.49777ZM7.27022 3.69645C7.36799 3.69645 7.44799 3.77645 7.44799 3.87423V4.49645C7.44799 4.5436 7.42926 4.58882 7.39592 4.62216C7.36258 4.6555 7.31737 4.67423 7.27022 4.67423H3.18844C3.14129 4.67423 3.09607 4.6555 3.06273 4.62216C3.02939 4.58882 3.01066 4.5436 3.01066 4.49645V3.87423C3.01066 3.77645 3.09066 3.69645 3.18844 3.69645H7.27022Z"
    fill="black" stroke="black" strokeOpacity="0.85" strokeWidth="2.4"
    mask="url(#path-1-inside-1_5042_2751)" />
</svg>
  