<svg width="14" height="16" viewBox="0 0 14 16" fill="none" xmlns="http://www.w3.org/2000/svg">
  <path
    d="M4.10847 9.39856C4.48904 9.62999 4.90175 9.81299 5.33847 9.93984L1.85718 14.0006H7.33132L7.34589 14.0271L8.07275 15.2863H1.85718C1.61131 15.2863 1.3706 15.2158 1.16358 15.0831C0.956563 14.9505 0.791919 14.7612 0.689166 14.5379C0.586413 14.3145 0.549861 14.0664 0.583843 13.8229C0.617824 13.5793 0.720915 13.3507 0.880893 13.164L4.10847 9.39856ZM6.77589 0.714844C9.14289 0.714844 11.0616 2.63356 11.0616 5.00056C11.0616 7.36756 9.14289 9.28627 6.77589 9.28627C4.40889 9.28627 2.49018 7.36756 2.49018 5.00056C2.49018 2.63356 4.40889 0.714844 6.77589 0.714844ZM6.77589 2.00056C6.38191 2.00053 5.99178 2.0781 5.62777 2.22885C5.26377 2.3796 4.93303 2.60058 4.65443 2.87916C4.37583 3.15774 4.15483 3.48846 4.00405 3.85245C3.85327 4.21645 3.77566 4.60657 3.77566 5.00056C3.77566 5.39454 3.85327 5.78467 4.00405 6.14866C4.15483 6.51265 4.37583 6.84338 4.65443 7.12196C4.93303 7.40054 5.26377 7.62151 5.62777 7.77226C5.99178 7.92301 6.38191 8.00059 6.77589 8.00056C7.5715 8.0005 8.33451 7.6844 8.89707 7.1218C9.45963 6.55919 9.77566 5.79617 9.77566 5.00056C9.77566 4.20495 9.45963 3.44192 8.89707 2.87932C8.33451 2.31672 7.5715 2.00062 6.77589 2.00056ZM11.8459 10.1434C12.0717 10.1433 12.2934 10.2027 12.489 10.3156C12.6845 10.4284 12.8469 10.5908 12.9598 10.7863L13.717 12.0986C13.8299 12.294 13.8893 12.5157 13.8893 12.7414C13.8893 12.9671 13.8299 13.1888 13.717 13.3843L12.9598 14.6966C12.8469 14.8921 12.6845 15.0544 12.489 15.1673C12.2934 15.2801 12.0717 15.3395 11.8459 15.3394H10.3309C10.1051 15.3395 9.88334 15.2801 9.68781 15.1673C9.49228 15.0544 9.32992 14.8921 9.21704 14.6966L8.45975 13.3843C8.34691 13.1888 8.2875 12.9671 8.2875 12.7414C8.2875 12.5157 8.34691 12.294 8.45975 12.0986L9.21704 10.7863C9.32992 10.5908 9.49228 10.4284 9.68781 10.3156C9.88334 10.2027 10.1051 10.1433 10.3309 10.1434H11.8459ZM11.8459 11.4291H10.3309L9.57318 12.7414L10.3309 14.0537H11.8459L12.6036 12.7414L11.8459 11.4291ZM11.0616 12.0831C11.2321 12.0831 11.3956 12.1509 11.5162 12.2714C11.6367 12.392 11.7045 12.5555 11.7045 12.726C11.7045 12.8965 11.6367 13.06 11.5162 13.1806C11.3956 13.3011 11.2321 13.3688 11.0616 13.3688C10.8911 13.3688 10.7276 13.3011 10.607 13.1806C10.4865 13.06 10.4188 12.8965 10.4188 12.726C10.4188 12.5555 10.4865 12.392 10.607 12.2714C10.7276 12.1509 10.8911 12.0831 11.0616 12.0831Z"
    fill="black" />
</svg>
  