<svg width="14" height="14" viewBox="0 0 14 14" fill="none" xmlns="http://www.w3.org/2000/svg">
<path d="M10.5886 11.9969C10.5886 12.1975 10.4887 12.2978 10.2889 12.3981C10.189 12.4984 9.98923 12.4984 9.78945 12.3981L6.29321 10.6928C6.09343 10.5925 5.99354 10.2916 5.99354 10.0909C6.09343 9.89032 6.29321 9.6897 6.493 9.6897C6.59289 9.6897 6.69278 9.6897 6.69278 9.79001L9.48977 11.1944L10.6885 3.26971L5.49408 9.58938V12.4984C5.49408 12.7994 5.29429 13 4.99462 13C4.89472 13 4.69494 12.8997 4.59505 12.8997C4.49515 12.7994 4.39526 12.6991 4.39526 12.4984V9.38876C4.39526 9.28845 4.39526 9.18813 4.49515 9.08782L9.38988 3.26971L1.59828 7.38251L3.59612 8.38564C3.79591 8.48595 3.8958 8.58626 3.8958 8.78689C3.8958 8.98751 3.79591 9.18813 3.69602 9.28845C3.49623 9.38876 3.29645 9.38876 3.19655 9.28845L0.299677 7.78376C0.0998923 7.68345 0 7.48283 0 7.2822C0 7.08158 0.0998923 6.88095 0.299677 6.78064L11.1879 1.06284C11.5875 0.862217 12.087 1.16315 11.9871 1.66472L10.5886 11.9969Z" fill="#2962FF"/>
</svg>
