<svg xmlns="http://www.w3.org/2000/svg" width="99" height="90" viewBox="0 0 99 90" fill="none">
    <path
        d="M44.6033 89.4921C69.237 89.4921 89.2066 85.7608 89.2066 81.1579C89.2066 76.5551 69.237 72.8237 44.6033 72.8237C19.9696 72.8237 0 76.5551 0 81.1579C0 85.7608 19.9696 89.4921 44.6033 89.4921Z"
        fill="#F5F5F7" fill-opacity="0.8" />
    <path fill-rule="evenodd" clip-rule="evenodd"
        d="M80.2854 56.6739L64.5452 37.3022C63.79 36.3904 62.686 35.8384 61.5235 35.8384H27.6814C26.5196 35.8384 25.4156 36.3904 24.6604 37.3022L8.9209 56.6739V66.7943H80.286V56.6739H80.2854Z"
        fill="#AEB8C2" />
    <path fill-rule="evenodd" clip-rule="evenodd"
        d="M22.2566 10.8357H66.9493C67.6473 10.8357 68.3166 11.1129 68.8102 11.6065C69.3037 12.1 69.5809 12.7693 69.5809 13.4673V74.8778C69.5809 75.5757 69.3037 76.2451 68.8102 76.7386C68.3166 77.2321 67.6473 77.5094 66.9493 77.5094H22.2566C21.5586 77.5094 20.8893 77.2321 20.3958 76.7386C19.9023 76.2451 19.625 75.5757 19.625 74.8778V13.4673C19.625 12.7693 19.9023 12.1 20.3958 11.6065C20.8893 11.1129 21.5586 10.8357 22.2566 10.8357V10.8357Z"
        fill="#F5F5F7" />
    <path fill-rule="evenodd" clip-rule="evenodd"
        d="M28.0772 17.3838H61.1278C61.4768 17.3838 61.8115 17.5224 62.0582 17.7692C62.305 18.0159 62.4436 18.3506 62.4436 18.6996V35.1187C62.4436 35.4676 62.305 35.8023 62.0582 36.0491C61.8115 36.2958 61.4768 36.4344 61.1278 36.4344H28.0772C27.7282 36.4344 27.3935 36.2958 27.1468 36.0491C26.9 35.8023 26.7614 35.4676 26.7614 35.1187V18.6996C26.7614 18.3506 26.9 18.0159 27.1468 17.7692C27.3935 17.5224 27.7282 17.3838 28.0772 17.3838ZM28.2495 43.5772H60.9555C61.3501 43.5772 61.7287 43.734 62.0077 44.0131C62.2868 44.2922 62.4436 44.6707 62.4436 45.0654C62.4436 45.4601 62.2868 45.8386 62.0077 46.1177C61.7287 46.3967 61.3501 46.5535 60.9555 46.5535H28.2495C27.8548 46.5535 27.4763 46.3967 27.1972 46.1177C26.9182 45.8386 26.7614 45.4601 26.7614 45.0654C26.7614 44.6707 26.9182 44.2922 27.1972 44.0131C27.4763 43.734 27.8548 43.5772 28.2495 43.5772ZM28.2495 51.316H60.9555C61.3502 51.316 61.7288 51.4729 62.008 51.752C62.2871 52.0311 62.4439 52.4097 62.4439 52.8045C62.4439 53.1993 62.2871 53.5779 62.008 53.857C61.7288 54.1362 61.3502 54.293 60.9555 54.293H28.2495C27.8548 54.293 27.4762 54.1362 27.197 53.857C26.9179 53.5779 26.761 53.1993 26.761 52.8045C26.761 52.4097 26.9179 52.0311 27.197 51.752C27.4762 51.4729 27.8548 51.316 28.2495 51.316ZM80.1397 79.9358C79.6298 81.9562 77.839 83.4621 75.7087 83.4621H13.4962C11.366 83.4621 9.57519 81.9555 9.06597 79.9358C8.96886 79.5508 8.9198 79.1552 8.91992 78.7581V56.6746H26.2344C28.1469 56.6746 29.6883 58.2851 29.6883 60.2404V60.2667C29.6883 62.2213 31.2476 63.7996 33.1601 63.7996H56.0449C57.9574 63.7996 59.5166 62.2068 59.5166 60.2515V60.2437C59.5166 58.2884 61.0581 56.6739 62.9706 56.6739H80.2851V78.7588C80.2851 79.1647 80.2344 79.5588 80.1397 79.9358Z"
        fill="#DCE0E6" />
    <path
        d="M96.2523 4.056C97.2874 4.056 98.1266 3.22684 98.1266 2.20402C98.1266 1.18121 97.2874 0.352051 96.2523 0.352051C95.2171 0.352051 94.3779 1.18121 94.3779 2.20402C94.3779 3.22684 95.2171 4.056 96.2523 4.056Z"
        fill="white" />
    <path fill-rule="evenodd" clip-rule="evenodd"
        d="M86.4127 3.82453H82.6641L84.5706 0.58374L86.4127 3.82453ZM88.7555 0.58374H92.0351V3.82453H88.7555V0.58374Z"
        fill="white" />
</svg>