<svg width="18" height="18" viewBox="0 0 18 18" fill="none" xmlns="http://www.w3.org/2000/svg">
  <path
    d="M8.99999 4.4993C9.14917 4.4993 9.29225 4.44003 9.39774 4.33454C9.50323 4.22905 9.56249 4.08598 9.56249 3.9368V2.23242C9.56249 2.08324 9.50323 1.94016 9.39774 1.83467C9.29225 1.72919 9.14917 1.66992 8.99999 1.66992C8.8508 1.66992 8.70773 1.72919 8.60224 1.83467C8.49675 1.94016 8.43749 2.08324 8.43749 2.23242V3.9368C8.43749 4.08598 8.49675 4.22905 8.60224 4.33454C8.70773 4.44003 8.8508 4.4993 8.99999 4.4993ZM6.01818 10.828C5.97365 10.8279 5.93011 10.8411 5.89308 10.8658C5.85605 10.8906 5.82718 10.9257 5.81014 10.9669C5.79309 11.008 5.78864 11.0533 5.79733 11.0969C5.80603 11.1406 5.82749 11.1807 5.85899 11.2122L8.86049 14.2137C8.88139 14.2346 8.9062 14.2512 8.93351 14.2625C8.96083 14.2738 8.99011 14.2797 9.01968 14.2797C9.04925 14.2797 9.07852 14.2738 9.10584 14.2625C9.13315 14.2512 9.15797 14.2346 9.17886 14.2137L12.1804 11.2122C12.2119 11.1807 12.2333 11.1406 12.242 11.0969C12.2507 11.0533 12.2463 11.008 12.2292 10.9669C12.2122 10.9257 12.1833 10.8906 12.1463 10.8658C12.1092 10.8411 12.0657 10.8279 12.0212 10.828H9.56249V6.1868C9.56249 6.03761 9.50323 5.89454 9.39774 5.78905C9.29225 5.68356 9.14917 5.6243 8.99999 5.6243C8.8508 5.6243 8.70773 5.68356 8.60224 5.78905C8.49675 5.89454 8.43749 6.03761 8.43749 6.1868V10.828H6.01818Z"
    fill="currentColor" />
  <path
    d="M15.1917 3.61613L12.2609 2.22053C12.1337 2.1659 11.9895 2.16079 11.8586 2.20628C11.7276 2.25177 11.62 2.34433 11.5582 2.46456C11.4965 2.5848 11.4854 2.72339 11.5274 2.8513C11.5693 2.97921 11.661 3.08652 11.7832 3.15076L14.7141 4.54635V12.6989L8.79102 15.0906L2.86794 12.6989V4.54635L5.79879 3.15076C5.92361 3.08808 6.018 2.98079 6.06174 2.85187C6.10547 2.72296 6.09507 2.58267 6.03277 2.46106C5.97047 2.33944 5.86121 2.24616 5.72841 2.20121C5.59561 2.15625 5.44981 2.16319 5.32225 2.22053L2.39087 3.61613C2.21036 3.70133 2.05838 3.83375 1.9523 3.99825C1.84623 4.16275 1.79033 4.35269 1.79102 4.54635V12.6989C1.79102 13.1186 2.05056 13.4943 2.45171 13.6556L8.58317 16.1314C8.64914 16.1581 8.71999 16.1719 8.79155 16.1719C8.86312 16.1719 8.93397 16.1581 8.99994 16.1314L15.1309 13.6561C15.3267 13.5773 15.494 13.4443 15.6115 13.2739C15.729 13.1036 15.7915 12.9035 15.791 12.6989V4.54635C15.7917 4.35276 15.7358 4.16288 15.6299 3.99839C15.5239 3.83391 15.3721 3.70145 15.1917 3.61613Z"
    fill="currentColor" />
</svg>
  