<svg width="16" height="16" viewBox="0 0 16 16" fill="none" xmlns="http://www.w3.org/2000/svg">
    <rect width="16" height="16" rx="2" fill="#91D5FF" />
    <path fill-rule="evenodd" clip-rule="evenodd"
        d="M3.10409 3.49854C2.87132 3.49854 2.68262 3.68724 2.68262 3.92001V5.13445H2.68327V11.9958C2.68327 12.2751 2.90971 12.5015 3.18904 12.5015H4.45877C4.45676 12.4791 4.45573 12.4565 4.45573 12.4336C4.45573 12.0195 4.79142 11.6838 5.20552 11.6838C5.61962 11.6838 5.95531 12.0195 5.95531 12.4336C5.95531 12.4565 5.95428 12.4791 5.95227 12.5015H9.91135C9.90927 12.4788 9.9082 12.4557 9.9082 12.4324C9.9082 12.0183 10.2439 11.6826 10.658 11.6826C11.0721 11.6826 11.4078 12.0183 11.4078 12.4324C11.4078 12.4557 11.4067 12.4788 11.4046 12.5015H12.8109C13.0902 12.5015 13.3167 12.2751 13.3167 11.9958V4.82771C13.3167 4.54838 13.0902 4.32194 12.8109 4.32194H6.7408L6.47609 3.7444C6.40743 3.59459 6.25775 3.49854 6.09295 3.49854H3.10409ZM7.99906 7.59079C7.99906 7.36492 8.18217 7.18181 8.40804 7.18181H10.9982C11.2241 7.18181 11.4072 7.36492 11.4072 7.59079C11.4072 7.81666 11.2241 7.99977 10.9982 7.99977H8.40804C8.18217 7.99977 7.99906 7.81666 7.99906 7.59079ZM7.99906 9.22702C7.99906 9.00115 8.18217 8.81804 8.40804 8.81804H10.9982C11.2241 8.81804 11.4072 9.00115 11.4072 9.22702C11.4072 9.4529 11.2241 9.636 10.9982 9.636H8.40804C8.18217 9.636 7.99906 9.4529 7.99906 9.22702ZM7.3172 10.0444H4.31803C4.31803 9.78988 4.38052 9.66264 4.69293 9.47178C4.86231 9.36831 5.0423 9.28547 5.16757 9.22783C5.24043 9.1943 5.29478 9.16928 5.31775 9.15369C5.35941 9.06886 5.38024 8.77197 5.31775 8.64474C5.26139 8.52996 5.18987 8.44405 5.12685 8.36835L5.12685 8.36835C5.07722 8.30874 5.03287 8.25546 5.00534 8.1994C4.98918 8.1665 4.97364 8.13612 4.95876 8.10703L4.95875 8.107C4.90085 7.99383 4.853 7.90028 4.81789 7.75407C4.75416 7.48859 4.75541 7.37236 4.81789 7.05426C4.85598 6.86035 4.89407 6.85557 4.91801 6.85257C4.93334 6.85065 4.94286 6.84946 4.94286 6.79978C4.94286 6.69799 5.00534 6.54531 5.06782 6.48169C5.13031 6.41807 5.29692 6.33325 5.38023 6.29083L5.38024 6.29083C5.46355 6.24842 5.54269 6.22721 5.69265 6.22721C5.8783 6.22721 5.92569 6.24315 6.06351 6.28948L6.06754 6.29083C6.28614 6.36431 6.41568 6.43266 6.56741 6.60893C6.66118 6.71788 6.70215 6.79246 6.75485 6.92702C6.8286 7.11531 6.82379 7.29139 6.81936 7.45311V7.45313C6.81834 7.4906 6.81734 7.52731 6.81734 7.56321C6.81734 7.75407 6.71866 8.11238 6.62989 8.26302C6.58614 8.33726 6.52482 8.40012 6.46639 8.46003C6.40625 8.52168 6.34917 8.5802 6.31748 8.64474C6.25499 8.77197 6.31748 9.15369 6.31748 9.15369C6.35913 9.17489 6.42856 9.20317 6.50955 9.23616C6.67154 9.30213 6.87982 9.38696 7.00478 9.47178C7.15183 9.5716 7.3172 9.78988 7.3172 10.0444Z"
        fill="white" />
</svg>
    