<svg width="16" height="16" viewBox="0 0 16 16" fill="none" xmlns="http://www.w3.org/2000/svg">
    <rect width="16" height="16" rx="2.77778" fill="#87E8DE" />
    <path fill-rule="evenodd" clip-rule="evenodd"
        d="M3.19083 4.00033C3.18521 4.00011 3.17957 4 3.17389 4C2.93655 4 2.74414 4.19241 2.74414 4.42975L2.74414 11.5702C2.74414 11.8076 2.93655 12 3.17389 12C3.17963 12 3.18534 11.9999 3.19102 11.9997C3.19636 11.9999 3.20172 12 3.20711 12H4.39719C4.61628 12 4.79389 11.8224 4.79389 11.6033C4.79389 11.3842 4.61628 11.2066 4.39719 11.2066H3.60364L3.60364 4.79339H4.39719C4.61628 4.79339 4.79389 4.61578 4.79389 4.39669C4.79389 4.17761 4.61628 4 4.39719 4H3.20711C3.20166 4 3.19623 4.00011 3.19083 4.00033ZM11.2729 4.39669C11.2729 4.17761 11.4505 4 11.6696 4H12.8268H12.8597C13.0788 4 13.2564 4.17761 13.2564 4.39669L13.2562 4.41023C13.2564 4.4167 13.2566 4.42321 13.2566 4.42975V11.5702L13.2565 11.5787L13.2562 11.5898L13.2564 11.6033C13.2564 11.8224 13.0788 12 12.8597 12H12.8294L12.8268 12L12.8243 12H11.6696C11.4505 12 11.2729 11.8224 11.2729 11.6033C11.2729 11.3842 11.4505 11.2066 11.6696 11.2066H12.3971V4.79339H11.6696C11.4505 4.79339 11.2729 4.61578 11.2729 4.39669ZM5.19062 6.37977C5.19062 6.16068 5.36823 5.98307 5.58732 5.98307H10.4138C10.6329 5.98307 10.8105 6.16068 10.8105 6.37977C10.8105 6.59886 10.6329 6.77646 10.4138 6.77646H5.58732C5.36823 6.77646 5.19062 6.59886 5.19062 6.37977ZM5.58732 7.63585C5.36823 7.63585 5.19062 7.81346 5.19062 8.03255C5.19062 8.25163 5.36823 8.42924 5.58732 8.42924H9.22368C9.44277 8.42924 9.62038 8.25163 9.62038 8.03255C9.62038 7.81346 9.44277 7.63585 9.22368 7.63585H5.58732ZM5.19062 9.62022C5.19062 9.40113 5.36823 9.22352 5.58732 9.22352H10.4138C10.6329 9.22352 10.8105 9.40113 10.8105 9.62022C10.8105 9.83931 10.6329 10.0169 10.4138 10.0169H5.58732C5.36823 10.0169 5.19062 9.83931 5.19062 9.62022Z"
        fill="white" />
</svg>
    