<svg width="28" height="11" viewBox="0 0 28 11" fill="none" xmlns="http://www.w3.org/2000/svg">
<path d="M4.27361 9.96014C4.36028 10.0468 4.46317 10.1156 4.57642 10.1625C4.68966 10.2094 4.81103 10.2335 4.93361 10.2335C5.05618 10.2335 5.17755 10.2094 5.2908 10.1625C5.40404 10.1156 5.50693 10.0468 5.59361 9.96014C5.68028 9.87347 5.74903 9.77057 5.79594 9.65733C5.84284 9.54409 5.86699 9.42271 5.86699 9.30014C5.86699 9.17757 5.84284 9.05619 5.79594 8.94295C5.74903 8.82971 5.68028 8.72681 5.59361 8.64014L3.18694 6.23347L22.4349 6.23347C22.6537 6.81893 23.0711 7.30896 23.6144 7.618C24.1576 7.92704 24.7921 8.03545 25.4072 7.9243C26.0222 7.81315 26.5786 7.48952 26.9794 7.00989C27.3801 6.53027 27.5996 5.92513 27.5996 5.30014C27.5996 4.67515 27.3801 4.07001 26.9794 3.59039C26.5786 3.11076 26.0222 2.78712 25.4072 2.67598C24.7921 2.56483 24.1576 2.67324 23.6144 2.98228C23.0711 3.29132 22.6537 3.78135 22.4349 4.36681L3.18694 4.36681L5.59361 1.96014C5.68028 1.87347 5.74903 1.77057 5.79594 1.65733C5.84284 1.54409 5.86699 1.42271 5.86699 1.30014C5.86699 1.17757 5.84284 1.05619 5.79594 0.94295C5.74903 0.829707 5.68028 0.726812 5.59361 0.64014C5.50693 0.553467 5.40404 0.484715 5.2908 0.437808C5.17755 0.390902 5.05618 0.366759 4.93361 0.366759C4.81103 0.366759 4.68966 0.390902 4.57642 0.437808C4.46317 0.484715 4.36028 0.553467 4.27361 0.64014L0.273605 4.64014C0.186928 4.72681 0.118172 4.8297 0.0712605 4.94295C0.0243511 5.05619 0.000205994 5.17756 0.000205994 5.30014C0.000205994 5.42271 0.0243511 5.54409 0.0712605 5.65733C0.118172 5.77058 0.186928 5.87347 0.273605 5.96014L4.27361 9.96014Z" fill="black" fill-opacity="0.85"/>
</svg>
