<svg width="42" height="16" viewBox="0 0 42 16" fill="none" xmlns="http://www.w3.org/2000/svg">
<path d="M6.40944 14.9903C6.53944 15.1203 6.69379 15.2235 6.86365 15.2938C7.03352 15.3642 7.21557 15.4004 7.39943 15.4004C7.58329 15.4004 7.76535 15.3642 7.93522 15.2938C8.10508 15.2235 8.25943 15.1203 8.38943 14.9903C8.51944 14.8603 8.62257 14.706 8.69293 14.5361C8.76329 14.3662 8.79951 14.1842 8.79951 14.0003C8.79951 13.8165 8.76329 13.6344 8.69293 13.4645C8.62257 13.2947 8.51944 13.1403 8.38943 13.0103L4.77943 9.40032L33.6514 9.40032C33.9796 10.2785 34.6057 11.0136 35.4206 11.4771C36.2354 11.9407 37.1872 12.1033 38.1098 11.9366C39.0323 11.7698 39.867 11.2844 40.4681 10.5649C41.0692 9.84551 41.3984 8.93781 41.3984 8.00032C41.3984 7.06283 41.0692 6.15513 40.4681 5.43569C39.867 4.71625 39.0323 4.23079 38.1098 4.06408C37.1872 3.89736 36.2354 4.05997 35.4206 4.52353C34.6057 4.98708 33.9796 5.72213 33.6514 6.60032L4.77943 6.60032L8.38943 2.99032C8.51944 2.86031 8.62257 2.70597 8.69293 2.5361C8.76329 2.36624 8.79951 2.18418 8.79951 2.00032C8.79951 1.81646 8.76329 1.6344 8.69293 1.46453C8.62257 1.29467 8.51944 1.14033 8.38943 1.01032C8.25943 0.88031 8.10508 0.777182 7.93522 0.706821C7.76535 0.636461 7.58329 0.600248 7.39943 0.600248C7.21557 0.600248 7.03352 0.636461 6.86365 0.706821C6.69379 0.777182 6.53944 0.88031 6.40944 1.01032L0.409435 7.01032C0.279419 7.14032 0.176281 7.29466 0.105915 7.46453C0.0355492 7.63439 -0.000663757 7.81646 -0.000663757 8.00032C-0.000663757 8.18418 0.0355492 8.36624 0.105915 8.53611C0.176281 8.70597 0.279419 8.86031 0.409435 8.99032L6.40944 14.9903Z" fill="black" fill-opacity="0.85"/>
</svg>
