<svg width="16" height="16" viewBox="0 0 16 16" fill="none" xmlns="http://www.w3.org/2000/svg">
    <rect width="16" height="16" rx="2.77778" fill="#D3F261" />
    <path fill-rule="evenodd" clip-rule="evenodd"
        d="M3.68945 4.3421C3.68945 4.15316 3.84262 4 4.03155 4H5.03153C5.04081 4 5.05 4.00037 5.05909 4.00109C5.20805 3.99692 5.34779 4.09117 5.39479 4.24035L5.93264 5.94744H11.9303C12.1802 5.94744 12.362 6.18462 12.297 6.42592L11.5151 9.32997C11.4004 9.75633 11.0138 10.0526 10.5722 10.0526H7.19981C6.77112 10.0526 6.39256 9.77302 6.26649 9.36328L5.36667 6.43887C5.36074 6.41959 5.35641 6.4003 5.3536 6.38111C5.34929 6.37096 5.34543 6.36052 5.34205 6.34979L4.81728 4.6842H4.03155C3.84262 4.6842 3.68945 4.53103 3.68945 4.3421ZM7.90011 11.3422C7.90011 11.7055 7.60557 12.0001 7.24223 12.0001C6.8789 12.0001 6.58435 11.7055 6.58435 11.3422C6.58435 10.9789 6.8789 10.6843 7.24223 10.6843C7.60557 10.6843 7.90011 10.9789 7.90011 11.3422ZM11.1101 11.3422C11.1101 11.7055 10.8156 12.0001 10.4522 12.0001C10.0889 12.0001 9.79435 11.7055 9.79435 11.3422C9.79435 10.9789 10.0889 10.6843 10.4522 10.6843C10.8156 10.6843 11.1101 10.9789 11.1101 11.3422Z"
        fill="white" />
</svg>
    