<svg width="100" height="100" viewBox="0 0 100 100" fill="none" xmlns="http://www.w3.org/2000/svg">
<path d="M91.4682 0H16.2909C15.3785 0 14.5034 0.36247 13.8582 1.00767C13.213 1.65287 12.8505 2.52795 12.8505 3.4404V23.2796H8.53122C6.63074 23.2796 5.09082 24.82 5.09082 26.72C5.09082 28.62 6.63074 30.1604 8.53122 30.1604H12.8505V46.5596H8.53122C7.61877 46.5596 6.74369 46.9221 6.09849 47.5673C5.45329 48.2125 5.09082 49.0876 5.09082 50C5.09082 50.9124 5.45329 51.7875 6.09849 52.4327C6.74369 53.0779 7.61877 53.4404 8.53122 53.4404H12.8505V69.8392H8.53122C7.61877 69.8392 6.74369 70.2016 6.09849 70.8468C5.45329 71.492 5.09082 72.3671 5.09082 73.2796C5.09082 74.192 5.45329 75.0671 6.09849 75.7123C6.74369 76.3575 7.61877 76.72 8.53122 76.72H12.8505V96.5591C12.8505 97.4716 13.213 98.3467 13.8582 98.9919C14.5034 99.6371 15.3785 99.9995 16.2909 99.9995H91.4687C92.3811 99.9995 93.2562 99.6371 93.9014 98.9919C94.5466 98.3467 94.9091 97.4716 94.9091 96.5591V3.4404C94.909 2.52791 94.5464 1.65283 93.9011 1.00764C93.2558 0.362455 92.3807 -8.10788e-09 91.4682 0ZM88.0278 93.1187H19.7313V76.72H24.0506C24.5024 76.72 24.9498 76.631 25.3672 76.4581C25.7846 76.2852 26.1639 76.0318 26.4834 75.7123C26.8028 75.3928 27.0562 75.0136 27.2291 74.5962C27.402 74.1787 27.491 73.7314 27.491 73.2796C27.491 72.3671 27.1286 71.492 26.4834 70.8468C25.8382 70.2016 24.9631 69.8392 24.0506 69.8392H19.7313V53.4404H24.0506C24.5024 53.4404 24.9498 53.3514 25.3672 53.1785C25.7846 53.0056 26.1639 52.7522 26.4834 52.4327C26.8028 52.1133 27.0562 51.734 27.2291 51.3166C27.402 50.8992 27.491 50.4518 27.491 50C27.491 49.0876 27.1286 48.2125 26.4834 47.5673C25.8382 46.9221 24.9631 46.5596 24.0506 46.5596H19.7313V30.1604H24.0506C25.9511 30.1604 27.491 28.62 27.491 26.72C27.491 24.82 25.9511 23.2796 24.0506 23.2796H19.7313V6.8808H88.0283V93.1187H88.0278Z" fill="#DDE1E5"/>
<path d="M56.3413 51.5816C64.1414 51.5816 70.4873 45.2334 70.4873 37.4306C70.4873 29.6273 64.1414 23.2791 56.3413 23.2791C48.539 23.2791 42.1912 29.6273 42.1912 37.4306C42.1912 45.2334 48.539 51.5816 56.3413 51.5816ZM56.3413 30.1603C60.3473 30.1603 63.6065 33.4218 63.6065 37.431C63.6065 41.4398 60.3478 44.7013 56.3413 44.7013C52.333 44.7013 49.072 41.4398 49.072 37.431C49.072 33.4218 52.333 30.1603 56.3413 30.1603ZM40.5898 77.3126C41.5023 77.3126 42.3773 76.9501 43.0225 76.3049C43.6677 75.6597 44.0302 74.7846 44.0302 73.8722V67.9267C44.0302 64.1106 47.1357 61.0055 50.9523 61.0055H61.8157C65.6322 61.0055 68.7378 64.1102 68.7378 67.9267V73.8722C68.7378 74.7846 69.1002 75.6597 69.7454 76.3049C70.3906 76.9501 71.2657 77.3126 72.1782 77.3126C73.0906 77.3126 73.9657 76.9501 74.6109 76.3049C75.2561 75.6597 75.6186 74.7846 75.6186 73.8722V67.9267C75.6186 60.3165 69.4268 54.1247 61.8157 54.1247H50.9523C43.3412 54.1247 37.1494 60.3161 37.1494 67.9267V73.8722C37.1494 74.7846 37.5119 75.6597 38.1571 76.3049C38.8023 76.9501 39.6774 77.3126 40.5898 77.3126Z" fill="#DDE1E5"/>
</svg>
