<svg width="17" height="17" viewBox="0 0 17 17" fill="none" xmlns="http://www.w3.org/2000/svg">
<path d="M0 3.4C0 1.52223 1.52223 0 3.4 0H17V13.6C17 15.4778 15.4778 17 13.6 17H0V3.4Z" fill="#2962FF"/>
<path d="M8.1281 5.19824C8.1281 5.20823 8.1281 5.50262 8.1281 5.83042C8.1281 6.29598 7.75069 6.67347 7.28512 6.67347H4.7562V7.86768H7.77686C7.77686 7.91115 7.77686 8.10551 7.77686 8.35938C7.77686 8.82494 7.39945 9.20239 6.93388 9.20239H4.7562V10.6074H8.2686C8.2686 10.843 8.2686 10.9482 8.2686 11.2393C8.2686 11.7048 7.89162 12.0825 7.42605 12.0825C6.00815 12.0825 4.08162 12.0825 3 12.0825V6.04122C3 5.57566 3.37798 5.19824 3.84354 5.19824C6.49695 5.19825 7.4633 5.19824 8.1281 5.19824Z" fill="white"/>
<path d="M8.78077 6.04135C8.78076 5.57579 9.15817 5.19824 9.62373 5.19824H14.9626C14.9626 5.36652 14.9626 5.61877 14.9626 5.90065C14.9626 6.36621 14.5852 6.7437 14.1196 6.7437H12.7147V11.1693C12.7147 11.6349 12.3372 12.0123 11.8717 12.0123C11.5586 12.0123 11.2765 12.0123 11.099 12.0123V6.7437H8.78077C8.78077 6.5653 8.78077 6.33113 8.78077 6.04135Z" fill="white"/>
</svg>
