<svg width="14" height="15" viewBox="0 0 14 15" fill="none" xmlns="http://www.w3.org/2000/svg">
<g clipPath="url(#clip0_3116_63384)">
<path d="M6.781 3.1254C6.6056 3.13024 6.43102 3.09987 6.26755 3.03609C6.10409 2.97231 5.95507 2.87641 5.8293 2.75406C5.70353 2.63171 5.60356 2.48539 5.53529 2.32375C5.46703 2.1621 5.43186 1.98842 5.43186 1.81295C5.43186 1.63749 5.46703 1.4638 5.53529 1.30216C5.60356 1.14051 5.70353 0.994195 5.8293 0.871844C5.95507 0.749494 6.10409 0.653594 6.26755 0.589813C6.43102 0.526031 6.6056 0.495662 6.781 0.500499C7.12282 0.509926 7.44748 0.652337 7.68591 0.897441C7.92435 1.14255 8.05776 1.471 8.05776 1.81295C8.05776 2.1549 7.92435 2.48336 7.68591 2.72846C7.44748 2.97357 7.12282 3.11598 6.781 3.1254ZM9.56491 4.27835C9.43906 4.15732 9.3386 4.0124 9.26944 3.85208C9.20027 3.69175 9.16378 3.51924 9.16209 3.34464C9.16041 3.17004 9.19357 2.99686 9.25963 2.83523C9.3257 2.6736 9.42334 2.52677 9.54684 2.40334C9.67034 2.27991 9.81722 2.18235 9.97888 2.11637C10.1405 2.05039 10.3137 2.01733 10.4883 2.0191C10.6629 2.02088 10.8354 2.05747 10.9957 2.12672C11.156 2.19597 11.3009 2.2965 11.4218 2.42242C11.66 2.6703 11.7914 3.00166 11.7879 3.34535C11.7844 3.68904 11.6462 4.01766 11.4031 4.26063C11.16 4.50361 10.8313 4.64156 10.4876 4.64488C10.1439 4.64819 9.81266 4.5166 9.56491 4.27835ZM10.7189 7.06226C10.714 6.88686 10.7444 6.71227 10.8082 6.54881C10.872 6.38535 10.9679 6.23633 11.0902 6.11055C11.2126 5.98478 11.3589 5.88481 11.5205 5.81655C11.6822 5.74828 11.8559 5.71311 12.0313 5.71311C12.2068 5.71311 12.3805 5.74828 12.5421 5.81655C12.7038 5.88481 12.8501 5.98478 12.9724 6.11055C13.0948 6.23633 13.1907 6.38535 13.2545 6.54881C13.3182 6.71227 13.3486 6.88686 13.3438 7.06226C13.3344 7.40408 13.1919 7.72873 12.9468 7.96717C12.7017 8.20561 12.3733 8.33902 12.0313 8.33902C11.6894 8.33902 11.3609 8.20561 11.1158 7.96717C10.8707 7.72873 10.7283 7.40408 10.7189 7.06226ZM9.56491 9.84817C9.68587 9.72224 9.83074 9.62171 9.99103 9.55246C10.1513 9.48321 10.3238 9.44662 10.4984 9.44485C10.673 9.44307 10.8462 9.47614 11.0079 9.54211C11.1695 9.60809 11.3164 9.70565 11.4399 9.82908C11.5634 9.95252 11.6611 10.0993 11.7271 10.261C11.7932 10.4226 11.8263 10.5958 11.8247 10.7704C11.823 10.945 11.7865 11.1175 11.7173 11.2778C11.6481 11.4381 11.5477 11.5831 11.4218 11.7041C11.1741 11.9423 10.8428 12.0739 10.4991 12.0706C10.1554 12.0673 9.82673 11.9293 9.58362 11.6864C9.34052 11.4434 9.20238 11.1148 9.19888 10.7711C9.19539 10.4274 9.3268 10.096 9.56491 9.84817ZM6.781 11.0001C6.9564 10.9953 7.13099 11.0256 7.29446 11.0894C7.45792 11.1532 7.60694 11.2491 7.73271 11.3715C7.85848 11.4938 7.95845 11.6401 8.02672 11.8018C8.09498 11.9634 8.13015 12.1371 8.13015 12.3126C8.13015 12.488 8.09498 12.6617 8.02672 12.8234C7.95845 12.985 7.85848 13.1313 7.73271 13.2537C7.60694 13.376 7.45792 13.4719 7.29446 13.5357C7.13099 13.5995 6.9564 13.6299 6.781 13.625C6.43919 13.6156 6.11453 13.4732 5.87609 13.2281C5.63765 12.983 5.50425 12.6545 5.50425 12.3126C5.50425 11.9706 5.63765 11.6422 5.87609 11.3971C6.11453 11.152 6.43919 11.0095 6.781 11.0001ZM3.99711 9.84718C4.12514 9.96763 4.22769 10.1126 4.29866 10.2734C4.36963 10.4342 4.40758 10.6077 4.41026 10.7834C4.41294 10.9592 4.38029 11.1337 4.31426 11.2966C4.24823 11.4596 4.15016 11.6076 4.02585 11.7319C3.90155 11.8562 3.75355 11.9542 3.59064 12.0203C3.42772 12.0863 3.2532 12.1189 3.07744 12.1163C2.90167 12.1136 2.72822 12.0756 2.5674 12.0047C2.40657 11.9337 2.26163 11.8311 2.14118 11.7031C1.90723 11.4546 1.77927 11.1247 1.78443 10.7834C1.78959 10.4421 1.92747 10.1162 2.16883 9.87483C2.41019 9.63347 2.73606 9.49559 3.07736 9.49042C3.41866 9.48525 3.74855 9.61321 3.99711 9.84715V9.84718ZM2.84416 7.06327C2.84896 7.23865 2.81857 7.41321 2.75477 7.57665C2.69097 7.74008 2.59507 7.88907 2.47272 8.01482C2.35037 8.14056 2.20406 8.24051 2.04244 8.30876C1.88081 8.37701 1.70715 8.41217 1.5317 8.41217C1.35626 8.41217 1.18259 8.37701 1.02096 8.30876C0.859338 8.24051 0.713029 8.14056 0.590681 8.01482C0.468333 7.88907 0.372428 7.74008 0.30863 7.57665C0.244833 7.41321 0.214439 7.23865 0.219242 7.06327C0.228669 6.72145 0.37108 6.3968 0.616184 6.15836C0.861289 5.91992 1.18975 5.78652 1.53169 5.78652C1.87364 5.78652 2.2021 5.91992 2.4472 6.15836C2.69231 6.3968 2.83473 6.72145 2.84416 7.06327ZM3.99711 4.27837C3.87666 4.4064 3.73172 4.50894 3.57089 4.57991C3.41006 4.65088 3.23662 4.68883 3.06085 4.69151C2.88508 4.69419 2.71057 4.66155 2.54765 4.59552C2.38473 4.52949 2.23674 4.43141 2.11243 4.30711C1.98813 4.18281 1.89006 4.03481 1.82403 3.8719C1.758 3.70898 1.72535 3.53446 1.72803 3.35869C1.73071 3.18292 1.76866 3.00948 1.83963 2.84865C1.9106 2.68783 2.01314 2.54289 2.14118 2.42244C2.38976 2.18863 2.7196 2.0608 3.06082 2.06602C3.40203 2.07125 3.72781 2.20912 3.96911 2.45042C4.21042 2.69172 4.34829 3.0175 4.35352 3.35871C4.35874 3.69993 4.23091 4.02977 3.99711 4.27835V4.27837Z" fill="#2962FF"/>
</g>
<defs>
<clipPath id="clip0_3116_63384">
<rect width="14" height="14" fill="white" transform="translate(0 0.5)"/>
</clipPath>
</defs>
</svg>
