<svg width="438" height="268" viewBox="0 0 438 268" fill="none" xmlns="http://www.w3.org/2000/svg">
<mask id="mask0_2621_20526" style="mask-type:luminance" maskUnits="userSpaceOnUse" x="12" y="35" width="403" height="233">
<rect x="12" y="35" width="403" height="233" fill="white"/>
</mask>
<g mask="url(#mask0_2621_20526)">
<path fill-rule="evenodd" clip-rule="evenodd" d="M207.552 117.887L206.889 98.3828H179.141L178.482 117.739C178.452 118.651 177.81 119.435 176.923 119.657C172.736 120.7 170.516 121.064 170.516 121.064C170.516 121.064 172.385 135.825 193.981 135.825C215.579 135.825 216.625 122.186 216.625 122.186C216.625 122.186 212.697 120.838 209.031 119.781C208.178 119.535 207.582 118.773 207.552 117.887Z" fill="#FFB69C"/>
<path fill-rule="evenodd" clip-rule="evenodd" d="M176.711 99.4688C173.426 100.9 170.651 96.3663 169.713 94.4286C168.033 90.9633 169.315 86.986 171 86.144C172.542 85.3737 174.145 86.3688 174.145 86.3688C174.145 86.3688 176.88 88.9419 177.515 94.3848C177.895 97.6413 176.711 99.4688 176.711 99.4688Z" fill="#FFB594"/>
<path fill-rule="evenodd" clip-rule="evenodd" d="M209.317 99.4688C212.602 100.9 215.377 96.3663 216.315 94.4286C217.994 90.9633 216.713 86.986 215.027 86.144C213.486 85.3737 211.883 86.3688 211.883 86.3688C211.883 86.3688 209.148 88.9419 208.513 94.3848C208.133 97.6413 209.317 99.4688 209.317 99.4688Z" fill="#FFB594"/>
<path fill-rule="evenodd" clip-rule="evenodd" d="M192.271 64.1133C178.275 64.1133 171.13 75.0931 173.581 89.2974C174.784 96.2784 174.739 96.1405 176.329 103.09C177.051 106.249 183.854 116.517 193.346 116.517C202.22 116.517 208.657 106.501 209.378 103.27C210.897 96.461 210.982 96.3063 211.902 89.2974C213.782 75.0062 207.209 64.1133 193.213 64.1133H192.271Z" fill="#FFC6A0"/>
<path fill-rule="evenodd" clip-rule="evenodd" d="M193.313 116.951C188.477 116.951 184.567 114.349 182.139 112.165C181.971 112.015 181.958 111.757 182.108 111.59C182.26 111.423 182.518 111.409 182.684 111.56C185.006 113.647 188.736 116.137 193.313 116.137C197.808 116.137 201.446 113.473 203.707 111.239C203.867 111.08 204.126 111.082 204.284 111.242C204.442 111.403 204.44 111.66 204.281 111.819C201.91 114.16 198.084 116.951 193.313 116.951Z" fill="#DB836E"/>
<path fill-rule="evenodd" clip-rule="evenodd" d="M193.178 64.4399H192.237C192.072 64.4399 191.938 64.3059 191.938 64.1409C191.938 63.9758 192.072 63.8419 192.237 63.8419H193.178C193.343 63.8419 193.477 63.9758 193.477 64.1409C193.477 64.3059 193.343 64.4399 193.178 64.4399Z" fill="#EA967D"/>
<path fill-rule="evenodd" clip-rule="evenodd" d="M186.054 92.5645C185.754 92.5645 185.51 92.3213 185.51 92.0215C185.51 91.0295 184.939 90.1923 184.264 90.1923C183.588 90.1923 183.017 91.0295 183.017 92.0215C183.017 92.3213 182.774 92.5645 182.474 92.5645C182.174 92.5645 181.93 92.3213 181.93 92.0215C181.93 90.4132 182.977 89.1055 184.264 89.1055C185.55 89.1055 186.598 90.4132 186.598 92.0215C186.598 92.3213 186.354 92.5645 186.054 92.5645Z" fill="#5C2552"/>
<path fill-rule="evenodd" clip-rule="evenodd" d="M202.733 92.5645C202.433 92.5645 202.189 92.3213 202.189 92.0215C202.189 91.0295 201.619 90.1923 200.943 90.1923C200.268 90.1923 199.697 91.0295 199.697 92.0215C199.697 92.3213 199.453 92.5645 199.153 92.5645C198.853 92.5645 198.609 92.3213 198.609 92.0215C198.609 90.4132 199.657 89.1055 200.943 89.1055C202.23 89.1055 203.277 90.4132 203.277 92.0215C203.277 92.3213 203.033 92.5645 202.733 92.5645Z" fill="#5C2552"/>
<path fill-rule="evenodd" clip-rule="evenodd" d="M194.929 99.2104H191.727C191.502 99.2104 191.32 99.0278 191.32 98.8029C191.32 98.5781 191.502 98.3955 191.727 98.3955H194.511L194.269 89.1292C194.266 89.0511 194.286 88.9745 194.327 88.9084L196.153 85.8768C196.269 85.6838 196.52 85.6224 196.712 85.738C196.905 85.8536 196.967 86.104 196.851 86.297L195.086 89.2265L195.337 98.7926C195.34 98.9026 195.298 99.0087 195.221 99.0868C195.144 99.1657 195.039 99.2104 194.929 99.2104Z" fill="#DB836E"/>
<path fill-rule="evenodd" clip-rule="evenodd" d="M194.748 108.858H191.497C191.273 108.858 191.09 108.675 191.09 108.45C191.09 108.226 191.273 108.043 191.497 108.043H194.748C194.973 108.043 195.156 108.226 195.156 108.45C195.156 108.675 194.973 108.858 194.748 108.858Z" fill="#DB836E"/>
<path fill-rule="evenodd" clip-rule="evenodd" d="M198.482 102.762L187.723 102.775C187.723 102.775 189.121 105.788 193.034 105.788C196.947 105.788 198.482 102.762 198.482 102.762Z" fill="#F7F7F7"/>
<path fill-rule="evenodd" clip-rule="evenodd" d="M188.448 103.183C189.047 103.999 190.444 105.382 193.032 105.382C195.617 105.382 197.08 103.996 197.722 103.172L188.448 103.183ZM193.032 106.197C188.905 106.197 187.411 103.081 187.35 102.948C187.292 102.822 187.302 102.675 187.376 102.558C187.451 102.441 187.58 102.369 187.719 102.369L198.478 102.355H198.479C198.621 102.355 198.752 102.429 198.827 102.55C198.901 102.67 198.907 102.821 198.843 102.947C198.775 103.08 197.148 106.197 193.032 106.197Z" fill="#DB836E"/>
<path fill-rule="evenodd" clip-rule="evenodd" d="M177.291 74.5217C176.342 78.4392 176.505 82.3814 176.224 83.3924C176.148 83.6627 175.045 85.413 175.045 85.413L174.117 92.1508C174.117 92.1508 171.598 83.2617 170.938 68.8883C170.86 67.2058 171.859 65.6533 173.43 65.0449C174.718 64.5466 176.51 63.8042 178.855 62.7294C187.485 58.7736 194.356 59.0025 194.356 59.0025C212.194 59.2162 215.194 71.585 213.026 84.5773C212.568 87.3139 212.258 89.1215 211.566 92.1508L210.26 85.413L208.47 83.4411C208.47 83.4411 208.294 79.2373 207.41 74.5392L177.291 74.5217Z" fill="#5C2552"/>
<path fill-rule="evenodd" clip-rule="evenodd" d="M178.86 87.0475C178.635 87.0475 178.423 86.9055 178.346 86.6799C178.248 86.396 178.401 86.0866 178.685 85.9902L180.412 85.4009C180.474 85.3786 180.541 85.3682 180.609 85.3722C182.462 85.4456 187.564 85.4695 188.927 84.7032C189.19 84.5549 189.521 84.649 189.667 84.9097C189.814 85.1713 189.722 85.503 189.46 85.6497C187.652 86.6663 181.742 86.5005 180.668 86.4614L179.036 87.018C178.978 87.0379 178.919 87.0475 178.86 87.0475Z" fill="#5C2552"/>
<path fill-rule="evenodd" clip-rule="evenodd" d="M206.463 87.0491C206.405 87.0491 206.346 87.0395 206.287 87.0196L204.652 86.4614C203.85 86.4806 198.725 86.5723 196.457 85.9248C196.169 85.8427 196.001 85.5413 196.083 85.2534C196.166 84.9656 196.468 84.7981 196.756 84.8803C199.006 85.5229 204.663 85.3754 204.721 85.373C204.785 85.3746 204.851 85.3818 204.911 85.4025L206.638 85.9918C206.922 86.0883 207.075 86.3977 206.977 86.6815C206.9 86.9072 206.689 87.0491 206.463 87.0491Z" fill="#5C2552"/>
<path fill-rule="evenodd" clip-rule="evenodd" d="M152.892 125.77C152.892 125.77 165.056 143.501 150.828 171.945C143.486 185.496 127.882 208.252 120.153 207.617C113.257 207.052 112.077 185.736 115.634 176.437C119.191 167.138 134.449 144.281 134.449 144.281C134.449 144.281 143.041 127.958 152.892 125.77Z" fill="#FFB594"/>
<path fill-rule="evenodd" clip-rule="evenodd" d="M127.014 189.9C127.014 189.9 125.751 181.662 112.944 174.486C94.4813 164.143 76.6633 147.518 76.6633 147.518C76.6633 147.518 69.2679 139.084 64.2377 139.802C59.2059 140.52 53.8997 139.357 50.3053 137.92C46.7117 136.483 48.1404 142.719 59.4364 144.412C52.5651 147.142 44.0929 147.142 39.9505 144.883C35.6597 142.543 38.5147 153.66 47.8588 156.174C57.2013 158.689 68.7798 158.729 68.7798 158.729C68.7798 158.729 102.635 207.512 117.223 207.925C131.811 208.338 127.014 189.9 127.014 189.9Z" fill="#FFC6A0"/>
<path fill-rule="evenodd" clip-rule="evenodd" d="M52.1455 153.832C48.3924 153.832 44.3369 152.506 42.0244 150.559C41.6264 150.309 40.918 150.008 40.6883 150.15C40.6125 150.197 40.5846 150.357 40.6117 150.588C40.6301 150.745 40.5176 150.888 40.3605 150.906C40.1961 150.928 40.0605 150.812 40.0414 150.655C39.9847 150.174 40.0996 149.84 40.3836 149.662C41.0026 149.272 42.1417 149.956 42.3635 150.097C45.8557 153.034 53.3636 154.511 57.4972 151.976C61.859 149.301 65.3417 149.291 67.4978 149.753C69.8502 150.256 71.1504 151.394 71.2055 151.442C71.3235 151.547 71.3347 151.728 71.2294 151.846C71.1241 151.965 70.9438 151.976 70.8234 151.871C70.6224 151.693 65.7884 147.566 57.7979 152.466C56.2464 153.417 54.2426 153.832 52.1455 153.832Z" fill="#EA967D"/>
<path fill-rule="evenodd" clip-rule="evenodd" d="M49.5575 149.099C47.0129 149.099 43.7288 148.613 40.5564 146.728C40.1256 146.392 39.3503 145.961 38.965 146.137C38.7169 146.251 38.6491 146.649 38.6363 146.964C38.63 147.122 38.4975 147.248 38.338 147.239C38.1785 147.232 38.0556 147.098 38.0628 146.94C38.0907 146.249 38.3141 145.803 38.7257 145.615C39.5545 145.237 40.7478 146.15 40.881 146.256C47.162 149.983 53.9185 148.015 53.9871 147.994C54.1362 147.947 54.2982 148.034 54.3444 148.186C54.3907 148.338 54.3037 148.498 54.1522 148.543C54.1163 148.554 52.2497 149.099 49.5575 149.099Z" fill="#EA967D"/>
<path fill-rule="evenodd" clip-rule="evenodd" d="M50.6573 151.486C47.8511 151.486 44.1043 150.893 40.7213 148.406C40.5219 148.279 40.0066 148.038 39.7649 148.168C39.6101 148.253 39.5782 148.526 39.5782 148.739C39.5782 148.898 39.4498 149.026 39.2911 149.026C39.1323 149.026 39.0039 148.898 39.0039 148.739C39.0039 148.201 39.1682 147.84 39.4905 147.664C40.0935 147.336 40.9519 147.872 41.0468 147.933C47.2775 152.512 54.7654 150.46 54.8388 150.439C54.9944 150.395 55.1507 150.485 55.1938 150.637C55.2369 150.789 55.1491 150.948 54.996 150.991C54.9593 151.002 53.1924 151.486 50.6573 151.486Z" fill="#EA967D"/>
<path fill-rule="evenodd" clip-rule="evenodd" d="M230.75 125.77C230.75 125.77 218.585 143.501 232.813 171.945C240.155 185.496 255.759 208.252 263.488 207.617C270.384 207.052 271.564 185.736 268.007 176.437C264.45 167.138 249.192 144.281 249.192 144.281C249.192 144.281 240.6 127.958 230.75 125.77Z" fill="#FFB594"/>
<path fill-rule="evenodd" clip-rule="evenodd" d="M256.626 189.9C256.626 189.9 257.889 181.662 270.696 174.486C289.159 164.143 306.977 147.518 306.977 147.518C306.977 147.518 314.372 139.084 319.402 139.802C324.434 140.52 329.741 139.357 333.335 137.92C336.928 136.483 335.5 142.719 324.204 144.412C331.076 147.142 339.547 147.142 343.69 144.883C347.98 142.543 345.126 153.66 335.782 156.174C326.439 158.689 314.86 158.729 314.86 158.729C314.86 158.729 281.005 207.512 266.418 207.925C251.829 208.338 256.626 189.9 256.626 189.9Z" fill="#FFC6A0"/>
<path fill-rule="evenodd" clip-rule="evenodd" d="M331.503 153.832C329.403 153.832 327.398 153.418 325.843 152.465C317.835 147.553 312.866 151.827 312.818 151.871C312.7 151.976 312.516 151.965 312.412 151.847C312.307 151.728 312.318 151.547 312.436 151.441C312.488 151.394 317.775 146.842 326.144 151.976C330.276 154.511 337.785 153.032 341.247 150.119C341.499 149.955 342.638 149.273 343.258 149.662C343.542 149.84 343.656 150.174 343.6 150.654C343.582 150.812 343.452 150.927 343.282 150.906C343.124 150.887 343.011 150.745 343.029 150.587C343.057 150.356 343.029 150.196 342.953 150.148C342.726 150.006 342.014 150.309 341.586 150.58C339.295 152.512 335.25 153.832 331.503 153.832Z" fill="#EA967D"/>
<path fill-rule="evenodd" clip-rule="evenodd" d="M334.063 149.097C331.379 149.097 329.522 148.555 329.486 148.544C329.334 148.499 329.248 148.339 329.293 148.187C329.34 148.036 329.5 147.948 329.652 147.995C329.72 148.015 336.485 149.98 342.789 146.235C342.89 146.151 344.084 145.235 344.913 145.616C345.324 145.804 345.547 146.249 345.576 146.94C345.582 147.099 345.459 147.233 345.301 147.239C345.153 147.249 345.009 147.123 345.002 146.964C344.989 146.65 344.921 146.251 344.674 146.138C344.285 145.961 343.512 146.393 343.114 146.707C339.917 148.607 336.615 149.097 334.063 149.097Z" fill="#EA967D"/>
<path fill-rule="evenodd" clip-rule="evenodd" d="M332.987 151.488C330.449 151.488 328.68 151.002 328.642 150.992C328.489 150.949 328.401 150.79 328.445 150.638C328.487 150.485 328.643 150.395 328.8 150.439C328.874 150.461 336.368 152.507 342.576 147.943C342.686 147.872 343.54 147.336 344.147 147.664C344.47 147.84 344.634 148.202 344.634 148.739C344.634 148.898 344.505 149.027 344.346 149.027C344.188 149.027 344.059 148.898 344.059 148.739C344.059 148.525 344.027 148.253 343.873 148.169C343.635 148.04 343.108 148.284 342.903 148.416C339.53 150.895 335.79 151.488 332.987 151.488Z" fill="#EA967D"/>
<path fill-rule="evenodd" clip-rule="evenodd" d="M233.66 276.731L249.336 485.777C238.764 493.819 223.851 488.232 223.851 488.232L199.073 291.108C198.802 288.948 196.963 287.327 194.786 287.327C192.603 287.327 190.764 288.953 190.496 291.118L166.205 487.853C152.304 492.136 140.781 486.344 140.781 486.344L154.624 275.55C152.83 269.657 155.829 266.678 155.829 266.678L159.325 234.909L229.244 234.707L233.003 268.524C233.003 268.524 234.752 272.391 233.66 276.731Z" fill="#6297CC"/>
<path fill-rule="evenodd" clip-rule="evenodd" d="M146.647 179.188C146.647 179.188 147.37 178.073 148.484 176.283C148.943 175.545 150.056 175.23 150.625 174.294C151.244 173.276 152.238 171.493 152.928 170.317C155.537 165.874 158.214 161.927 159.815 157.927C164.192 146.987 167.322 125.042 151.85 125.042C151.85 125.042 140.237 124.047 132.191 145.642C131.686 146.999 130.836 148.763 129.87 150.607C129.123 152.032 127.535 152.123 126.755 153.492C126.254 154.371 126.541 156.589 126.097 157.343C124.889 159.398 124 160.834 124 160.834C124 160.834 136.854 167.564 146.647 179.188Z" fill="#E5E3EA"/>
<path fill-rule="evenodd" clip-rule="evenodd" d="M229.309 236.36C190.856 243.221 159.104 236.425 159.104 236.425C153.814 229.592 158.282 218.344 158.282 218.344C153.219 169.259 150.777 125.194 150.777 125.194C150.777 125.194 151.855 124.684 152.926 124.276C154.534 123.664 155.928 123.872 156.904 123.664C158.627 123.297 159.229 123.24 162.1 122.593C165.476 121.833 170.006 121.472 174.838 119.516C175.072 119.421 175.34 119.523 175.483 119.731C176.501 121.208 181.187 126.876 193.163 126.876C203.558 126.876 209.162 121.544 210.629 120.163C210.855 119.949 211.491 119.961 211.706 120.058C213.82 121.013 214.517 121.213 217.849 121.88C224.99 123.308 230.056 123.994 231.111 124.225C232.264 124.478 233.147 124.991 234.324 125.347C234.324 125.347 230.122 187.949 228.956 211.14C228.893 212.386 229.733 214.061 229.683 216.203C229.626 218.552 228.816 219.568 228.816 221.862C228.816 221.862 233.457 230.58 229.309 236.36Z" fill="#E5E3EA"/>
<path fill-rule="evenodd" clip-rule="evenodd" d="M237.662 179.801C237.662 179.801 236.734 178.377 235.352 176.162C234.945 175.507 234.085 175.378 233.609 174.6C233.208 173.944 233.022 172.569 232.589 171.847C229.702 167.033 226.462 161.07 224.719 156.714C220.341 145.774 221.011 125.042 232.001 125.042C232.001 125.042 243.614 124.048 251.66 145.643C252.106 146.842 252.823 148.322 253.653 149.876C254.335 151.155 256.071 151.619 256.817 152.881C257.494 154.026 257.184 155.979 257.775 156.928C258.986 158.874 259.877 160.222 259.877 160.222C259.877 160.222 246.819 166.851 237.662 179.801Z" fill="#E5E3EA"/>
<path fill-rule="evenodd" clip-rule="evenodd" d="M257.373 187.992C257.337 187.992 257.301 187.989 257.265 187.982C256.97 187.923 256.78 187.637 256.839 187.343C258.102 181.033 267.147 176.545 267.53 176.356C267.804 176.224 268.126 176.336 268.258 176.605C268.39 176.875 268.278 177.2 268.009 177.332C267.92 177.376 259.062 181.774 257.905 187.555C257.854 187.814 257.625 187.992 257.373 187.992Z" fill="#EA967D"/>
<path fill-rule="evenodd" clip-rule="evenodd" d="M127.067 190.848C126.816 190.848 126.59 190.672 126.536 190.416C124.965 182.962 117.042 177.345 116.963 177.289C116.716 177.117 116.657 176.778 116.829 176.532C117.001 176.287 117.34 176.227 117.586 176.399C117.926 176.637 125.941 182.323 127.6 190.192C127.661 190.486 127.474 190.774 127.18 190.836C127.142 190.844 127.104 190.848 127.067 190.848Z" fill="#EA967D"/>
<path fill-rule="evenodd" clip-rule="evenodd" d="M193.977 253.497C193.766 253.497 193.596 253.326 193.596 253.116V247.814C193.596 247.603 193.766 247.434 193.977 247.434C194.188 247.434 194.358 247.603 194.358 247.814V253.116C194.358 253.326 194.188 253.497 193.977 253.497Z" fill="#4670B2"/>
<path fill-rule="evenodd" clip-rule="evenodd" d="M194.114 278.786C193.92 278.786 193.754 278.638 193.736 278.441C193.717 278.232 193.87 278.046 194.08 278.027C194.142 278.021 200.32 277.408 200.468 274.309C200.871 265.85 200.875 247.993 200.875 247.814C200.875 247.604 201.045 247.434 201.256 247.434C201.466 247.434 201.637 247.604 201.637 247.814C201.637 247.994 201.632 265.868 201.228 274.345C201.049 278.1 194.432 278.758 194.15 278.785C194.138 278.785 194.127 278.786 194.114 278.786Z" fill="#4670B2"/>
<path fill-rule="evenodd" clip-rule="evenodd" d="M193.98 286.947C193.919 286.947 193.857 286.932 193.801 286.902L175.44 277.113C175.254 277.014 175.184 276.783 175.283 276.598C175.383 276.413 175.615 276.343 175.798 276.441L193.599 285.932V257.81C193.599 257.6 193.77 257.43 193.98 257.43C194.191 257.43 194.362 257.6 194.362 257.81V286.566C194.362 286.7 194.291 286.824 194.176 286.893C194.116 286.928 194.048 286.947 193.98 286.947Z" fill="#4670B2"/>
<path fill-rule="evenodd" clip-rule="evenodd" d="M232.063 266.447C232.026 266.447 231.989 266.442 231.951 266.431C224.795 264.238 223.588 246.795 223.54 246.054C223.527 245.844 223.686 245.663 223.896 245.65C224.106 245.633 224.286 245.796 224.301 246.005C224.311 246.181 225.517 263.663 232.175 265.703C232.376 265.765 232.488 265.978 232.427 266.179C232.377 266.342 232.226 266.447 232.063 266.447Z" fill="#4670B2"/>
<path fill-rule="evenodd" clip-rule="evenodd" d="M155.826 267.062C155.68 267.062 155.542 266.978 155.478 266.836C155.393 266.645 155.478 266.42 155.671 266.334C162.561 263.257 163.092 247.254 163.096 247.093C163.102 246.886 163.271 246.723 163.477 246.723H163.487C163.697 246.729 163.863 246.904 163.857 247.113C163.838 247.792 163.308 263.757 155.981 267.028C155.931 267.052 155.878 267.062 155.826 267.062Z" fill="#4670B2"/>
<path fill-rule="evenodd" clip-rule="evenodd" d="M193.317 131.636C187.735 131.636 182.91 130.601 178.975 128.56C178.824 128.482 178.765 128.297 178.843 128.145C178.923 127.994 179.109 127.936 179.258 128.014C183.105 130.009 187.835 131.021 193.317 131.021C202.745 131.021 208.518 127.172 211.118 124.878C211.245 124.766 211.44 124.777 211.552 124.905C211.664 125.032 211.652 125.226 211.525 125.339C208.859 127.691 202.948 131.636 193.317 131.636Z" fill="#C2C0CC"/>
<path fill-rule="evenodd" clip-rule="evenodd" d="M177.792 127.847C177.737 127.847 177.681 127.833 177.632 127.802C176.244 126.953 174.981 125.962 173.879 124.852C173.758 124.732 173.759 124.537 173.88 124.417C174 124.298 174.195 124.298 174.315 124.419C175.383 125.493 176.607 126.454 177.953 127.277C178.098 127.366 178.143 127.555 178.055 127.7C177.997 127.795 177.896 127.847 177.792 127.847Z" fill="#C2C0CC"/>
<path fill-rule="evenodd" clip-rule="evenodd" d="M230.296 184.492C230.289 184.492 230.282 184.492 230.275 184.491C230.105 184.479 229.978 184.333 229.989 184.163L232.438 149.493C232.45 149.324 232.589 149.196 232.767 149.208C232.936 149.22 233.063 149.366 233.051 149.536L230.603 184.206C230.591 184.369 230.456 184.492 230.296 184.492Z" fill="#C2C0CC"/>
<path fill-rule="evenodd" clip-rule="evenodd" d="M154.611 179.192C154.454 179.192 154.32 179.073 154.305 178.913L151.857 153.217C151.84 153.047 151.965 152.898 152.135 152.881C152.299 152.862 152.453 152.989 152.469 153.158L154.918 178.855C154.934 179.024 154.81 179.174 154.64 179.19C154.631 179.192 154.621 179.192 154.611 179.192Z" fill="#C2C0CC"/>
<path fill-rule="evenodd" clip-rule="evenodd" d="M249.983 161.8C249.885 161.8 249.789 161.753 249.729 161.665C249.634 161.525 249.67 161.334 249.81 161.238C252.077 159.701 254.396 158.44 256.704 157.492C256.86 157.427 257.041 157.502 257.105 157.659C257.17 157.816 257.095 157.996 256.937 158.06C254.67 158.993 252.388 160.233 250.156 161.747C250.103 161.783 250.043 161.8 249.983 161.8Z" fill="#C2C0CC"/>
<path fill-rule="evenodd" clip-rule="evenodd" d="M236.007 175.825C235.949 175.825 235.89 175.81 235.839 175.776C235.696 175.683 235.657 175.493 235.749 175.35C235.795 175.279 240.457 168.183 248.045 162.495C248.18 162.394 248.372 162.42 248.475 162.556C248.577 162.693 248.55 162.885 248.414 162.987C240.916 168.608 236.311 175.616 236.264 175.686C236.205 175.776 236.107 175.825 236.007 175.825Z" fill="#C2C0CC"/>
<path fill-rule="evenodd" clip-rule="evenodd" d="M147.971 175.724C147.879 175.724 147.788 175.682 147.727 175.604C140.504 166.277 126.838 158.324 126.7 158.246C126.554 158.16 126.503 157.973 126.588 157.825C126.673 157.679 126.862 157.628 127.009 157.713C127.147 157.793 140.917 165.806 148.214 175.228C148.319 175.363 148.293 175.556 148.159 175.659C148.103 175.703 148.037 175.724 147.971 175.724Z" fill="#C2C0CC"/>
<path fill-rule="evenodd" clip-rule="evenodd" d="M233.558 156.758C233.535 156.758 233.509 156.756 233.485 156.75C233.32 156.71 233.219 156.544 233.259 156.379C236.063 144.77 233.29 134.609 233.262 134.508C233.216 134.344 233.311 134.175 233.475 134.129C233.637 134.082 233.808 134.179 233.854 134.342C233.882 134.445 236.699 144.752 233.857 156.523C233.823 156.664 233.697 156.758 233.558 156.758Z" fill="#C2C0CC"/>
<path fill-rule="evenodd" clip-rule="evenodd" d="M151.549 159.41C151.419 159.41 151.298 159.327 151.257 159.196C149.093 152.438 148.595 138.451 148.59 138.311C148.584 138.141 148.718 137.999 148.888 137.993C149.067 137.985 149.199 138.12 149.206 138.29C149.21 138.429 149.705 152.332 151.842 159.009C151.895 159.171 151.805 159.344 151.643 159.396C151.612 159.405 151.581 159.41 151.549 159.41Z" fill="#C2C0CC"/>
<path fill-rule="evenodd" clip-rule="evenodd" d="M199.538 195.282C189.72 195.282 178.257 190.652 178.129 190.6C177.972 190.536 177.896 190.356 177.96 190.199C178.026 190.042 178.205 189.967 178.361 190.031C178.503 190.088 192.567 195.767 202.734 194.477C202.901 194.457 203.057 194.576 203.078 194.744C203.099 194.913 202.98 195.067 202.811 195.087C201.754 195.221 200.656 195.282 199.538 195.282Z" fill="#C2C0CC"/>
<path fill-rule="evenodd" clip-rule="evenodd" d="M195.07 202.904C186.691 202.904 179.374 202.045 179.251 202.031C179.082 202.011 178.963 201.858 178.983 201.688C179.003 201.52 179.145 201.401 179.325 201.42C179.527 201.444 199.804 203.822 211.441 200.613C211.603 200.567 211.774 200.664 211.82 200.827C211.866 200.992 211.769 201.161 211.605 201.206C206.867 202.512 200.727 202.904 195.07 202.904Z" fill="#C2C0CC"/>
<path fill-rule="evenodd" clip-rule="evenodd" d="M314.291 161.788C313.916 162.283 313.239 162.434 312.682 162.157C310.985 161.308 304.661 157.301 303.449 149.535C303.425 149.381 303.519 149.228 303.633 149.12C304.389 148.409 305.084 147.8 305.553 147.399C305.819 147.171 306.228 147.302 306.313 147.642C306.849 149.784 308.891 155.977 315.049 158.739C315.565 158.97 315.751 159.609 315.453 160.089C315.162 160.56 314.767 161.16 314.291 161.788Z" fill="#192064"/>
<path fill-rule="evenodd" clip-rule="evenodd" d="M310.565 157.99C310.565 158.264 310.342 158.487 310.067 158.487C309.793 158.487 309.57 158.264 309.57 157.99C309.57 157.715 309.793 157.492 310.067 157.492C310.342 157.492 310.565 157.715 310.565 157.99Z" fill="#C1C4D6"/>
<path fill-rule="evenodd" clip-rule="evenodd" d="M312.553 159.326C312.553 159.6 312.331 159.823 312.056 159.823C311.781 159.823 311.559 159.6 311.559 159.326C311.559 159.051 311.781 158.828 312.056 158.828C312.331 158.828 312.553 159.051 312.553 159.326Z" fill="#C1C4D6"/>
<path fill-rule="evenodd" clip-rule="evenodd" d="M158.273 244.961C158.273 244.961 193.905 251.416 230.038 244.961C229.732 240.067 229.379 236.363 229.379 236.363C229.379 236.363 199.35 241.321 159.115 236.473C158.634 241.054 158.273 244.961 158.273 244.961Z" fill="#5C2552"/>
<path fill-rule="evenodd" clip-rule="evenodd" d="M184.543 238.79V248.349C184.543 249.2 185.209 249.903 186.059 249.934C190.813 250.108 195.924 250.138 201.318 249.95C202.171 249.92 202.852 249.215 202.852 248.363V238.815C202.852 237.923 202.123 237.211 201.232 237.235C196.588 237.356 191.551 237.365 186.181 237.212C185.289 237.186 184.543 237.897 184.543 238.79Z" fill="white"/>
<path fill-rule="evenodd" clip-rule="evenodd" d="M186.715 240.603V246.59C186.715 247.267 187.245 247.825 187.922 247.846C191.483 247.96 195.307 247.98 199.342 247.857C200.021 247.837 200.566 247.276 200.566 246.598V240.62C200.566 239.915 199.994 239.351 199.29 239.367C195.806 239.447 192.031 239.452 188.009 239.352C187.304 239.334 186.715 239.897 186.715 240.603Z" fill="#5C2552"/>
</g>
<path fill-rule="evenodd" clip-rule="evenodd" d="M343.083 232.04H330.949V190.051C330.949 186.709 333.651 184 336.984 184H337.048C340.381 184 343.083 186.709 343.083 190.051V232.04Z" fill="#5BA02E"/>
<path fill-rule="evenodd" clip-rule="evenodd" d="M349.443 242.248H337.211V220.201C337.211 216.93 339.867 214.277 343.143 214.277H343.511C346.787 214.277 349.443 216.93 349.443 220.201V242.248Z" fill="#92C110"/>
<path fill-rule="evenodd" clip-rule="evenodd" d="M331.244 231.834H319.012V208.002C319.012 204.73 321.657 202.078 324.92 202.078H325.335C328.598 202.078 331.244 204.73 331.244 208.002V231.834Z" fill="#92C110"/>
<path fill-rule="evenodd" clip-rule="evenodd" d="M317.379 267C316.065 267 315 265.986 315 264.734V233.266C315 232.014 316.065 231 317.379 231H350.621C351.935 231 353 232.014 353 233.266V264.734C353 265.986 351.935 267 350.621 267H317.379Z" fill="#CAD5EE"/>
<path fill-rule="evenodd" clip-rule="evenodd" d="M335.121 193.151C335.121 193.809 334.587 194.341 333.928 194.341C333.269 194.341 332.734 193.809 332.734 193.151C332.734 192.494 333.269 191.961 333.928 191.961C334.587 191.961 335.121 192.494 335.121 193.151Z" fill="#92C110"/>
<path fill-rule="evenodd" clip-rule="evenodd" d="M341.387 205.35C341.387 206.008 340.852 206.541 340.193 206.541C339.534 206.541 339 206.008 339 205.35C339 204.693 339.534 204.16 340.193 204.16C340.852 204.16 341.387 204.693 341.387 205.35Z" fill="#92C110"/>
<path fill-rule="evenodd" clip-rule="evenodd" d="M322.891 211.3C322.891 211.957 322.356 212.49 321.697 212.49C321.038 212.49 320.504 211.957 320.504 211.3C320.504 210.642 321.038 210.109 321.697 210.109C322.356 210.109 322.891 210.642 322.891 211.3Z" fill="#5BA02E"/>
<path fill-rule="evenodd" clip-rule="evenodd" d="M328.855 223.503C328.855 224.16 328.321 224.693 327.662 224.693C327.003 224.693 326.469 224.16 326.469 223.503C326.469 222.845 327.003 222.312 327.662 222.312C328.321 222.312 328.855 222.845 328.855 223.503Z" fill="#5BA02E"/>
<g opacity="0.567708">
<mask id="mask1_2621_20526" style="mask-type:luminance" maskUnits="userSpaceOnUse" x="360" y="158" width="39" height="10">
<path fill-rule="evenodd" clip-rule="evenodd" d="M360 158.109H398.65V167.221H360V158.109Z" fill="white"/>
</mask>
<g mask="url(#mask1_2621_20526)">
<path fill-rule="evenodd" clip-rule="evenodd" d="M364.549 167.221L394.105 167.209C396.616 167.208 398.651 165.169 398.65 162.657C398.649 160.144 396.613 158.108 394.102 158.109L364.545 158.122C362.034 158.123 359.999 160.162 360 162.674C360.001 165.186 362.037 167.222 364.549 167.221Z" fill="#E4E6EF"/>
</g>
<mask id="mask2_2621_20526" style="mask-type:luminance" maskUnits="userSpaceOnUse" x="371" y="176" width="39" height="10">
<path fill-rule="evenodd" clip-rule="evenodd" d="M371.227 176.012H409.915V185.086H371.227V176.012Z" fill="white"/>
</mask>
<g mask="url(#mask2_2621_20526)">
<path fill-rule="evenodd" clip-rule="evenodd" d="M375.78 185.086L405.366 185.074C407.879 185.073 409.916 183.043 409.915 180.54C409.914 178.038 407.876 176.011 405.362 176.012L375.777 176.024C373.262 176.025 371.225 178.054 371.227 180.558C371.228 183.06 373.267 185.087 375.78 185.086Z" fill="#E4E6EF"/>
</g>
<path fill-rule="evenodd" clip-rule="evenodd" d="M378.309 167.275V167.272L393.882 167.266C391.381 167.267 389.357 169.28 389.358 171.762C389.358 174.243 391.386 176.254 393.885 176.253L378.312 176.26V176.259C380.794 176.236 382.799 174.233 382.798 171.764C382.796 169.296 380.79 167.295 378.309 167.275Z" fill="#E4E6EF"/>
</g>
<rect y="267" width="438" height="1" fill="#E5E3EA"/>
<path fill-rule="evenodd" clip-rule="evenodd" d="M66.4119 50.3203L55.2578 86.0236H62.0014L73.1565 50.3203H66.4119Z" fill="#CED0DB"/>
<mask id="mask3_2621_20526" style="mask-type:luminance" maskUnits="userSpaceOnUse" x="38" y="54" width="14" height="29">
<path fill-rule="evenodd" clip-rule="evenodd" d="M38 54.5078H51.1594V82.4438H38V54.5078Z" fill="white"/>
</mask>
<g mask="url(#mask3_2621_20526)">
<path fill-rule="evenodd" clip-rule="evenodd" d="M50.5115 54.5078H43.2345H38.6481C38.2901 54.5078 38 54.8023 38 55.1658V59.822V77.1296V81.7858C38 82.1493 38.2901 82.4438 38.6481 82.4438H43.2345H50.5115C50.8695 82.4438 51.1596 82.1493 51.1596 81.7858V77.7876C51.1596 77.4241 50.8695 77.1296 50.5115 77.1296H43.2345V59.822H50.5115C50.8695 59.822 51.1596 59.5275 51.1596 59.1651V55.1658C51.1596 54.8023 50.8695 54.5078 50.5115 54.5078Z" fill="#E4E6EF"/>
</g>
<mask id="mask4_2621_20526" style="mask-type:luminance" maskUnits="userSpaceOnUse" x="77" y="54" width="14" height="29">
<path fill-rule="evenodd" clip-rule="evenodd" d="M77.7148 54.5078H90.8739V82.4438H77.7148V54.5078Z" fill="white"/>
</mask>
<g mask="url(#mask4_2621_20526)">
<path fill-rule="evenodd" clip-rule="evenodd" d="M90.2263 54.5078H85.6399H78.363C78.0049 54.5078 77.7148 54.8023 77.7148 55.1658V59.1651C77.7148 59.5275 78.0049 59.822 78.363 59.822H85.6399V77.1296H78.363C78.0049 77.1296 77.7148 77.4241 77.7148 77.7876V81.7858C77.7148 82.1493 78.0049 82.4438 78.363 82.4438H85.6399H90.2263C90.5844 82.4438 90.8745 82.1493 90.8745 81.7858V77.7876V59.1651V55.1658C90.8745 54.8023 90.5844 54.5078 90.2263 54.5078Z" fill="#E4E6EF"/>
</g>
<mask id="mask5_2621_20526" style="mask-type:luminance" maskUnits="userSpaceOnUse" x="44" y="240" width="11" height="10">
<path fill-rule="evenodd" clip-rule="evenodd" d="M44.8359 240.043H54.775V249.981H44.8359V240.043Z" fill="white"/>
</mask>
<g mask="url(#mask5_2621_20526)">
<path fill-rule="evenodd" clip-rule="evenodd" d="M54.7486 245.519C54.4685 248.249 52.0284 250.235 49.2986 249.955C46.5678 249.675 44.5814 247.235 44.8624 244.505C45.1426 241.775 47.5826 239.788 50.3125 240.069C53.0423 240.35 55.0287 242.79 54.7486 245.519Z" fill="#E4E6EF"/>
</g>
<path fill-rule="evenodd" clip-rule="evenodd" d="M86.6693 227.323C86.3869 230.068 83.9272 232.065 81.1752 231.784C78.4224 231.502 76.4199 229.048 76.7023 226.303C76.9856 223.558 79.4454 221.56 82.1973 221.843C84.9492 222.124 86.9517 224.578 86.6693 227.323Z" fill="#E4E6EF"/>
<path fill-rule="evenodd" clip-rule="evenodd" d="M21.9934 225.507C21.7113 228.252 19.2507 230.249 16.4981 229.967C13.7464 229.685 11.7437 227.232 12.0266 224.487C12.3088 221.742 14.7694 219.745 17.5211 220.026C20.2737 220.308 22.2764 222.762 21.9934 225.507Z" fill="#E4E6EF"/>
<mask id="mask6_2621_20526" style="mask-type:luminance" maskUnits="userSpaceOnUse" x="104" y="232" width="11" height="12">
<path fill-rule="evenodd" clip-rule="evenodd" d="M104.027 232.805H114.873V243.528H104.027V232.805Z" fill="white"/>
</mask>
<g mask="url(#mask6_2621_20526)">
<path fill-rule="evenodd" clip-rule="evenodd" d="M114.845 238.714C114.538 241.659 111.876 243.802 108.897 243.5C105.917 243.197 103.751 240.565 104.056 237.619C104.362 234.673 107.025 232.531 110.004 232.833C112.982 233.136 115.15 235.768 114.845 238.714Z" fill="#E4E6EF"/>
</g>
<path fill-rule="evenodd" clip-rule="evenodd" d="M49.871 245.439L49.7489 245.362L17.4648 224.958L17.7218 224.543L49.8845 244.872L82.4609 226.447L82.5679 226.49L110.378 237.52L110.201 237.973L82.4971 226.986L49.871 245.439Z" fill="#E4E6EF"/>
<rect x="279" y="36.4375" width="101.915" height="74.5473" rx="2.97879" fill="#E2E7F2"/>
<path fill-rule="evenodd" clip-rule="evenodd" d="M309.433 103.568C308.87 103.568 308.414 103.112 308.414 102.549V51.3551C308.414 50.7922 308.87 50.3359 309.433 50.3359H371.449C372.011 50.3359 372.468 50.7922 372.468 51.3551V102.749C372.468 103.201 372.092 103.568 371.628 103.568H309.433Z" fill="white"/>
<path fill-rule="evenodd" clip-rule="evenodd" d="M314.731 90.647C314.267 90.647 313.891 90.2803 313.891 89.828V56.5651C313.891 56.1127 314.267 55.7461 314.731 55.7461H366.442C366.905 55.7461 367.281 56.1127 367.281 56.5651V89.828C367.281 90.2803 366.905 90.647 366.442 90.647H314.731Z" fill="#CED7EC"/>
<path fill-rule="evenodd" clip-rule="evenodd" d="M321.195 60.5562H317.529C317.246 60.5562 317.016 60.332 317.016 60.0554C317.016 59.7789 317.246 59.5547 317.529 59.5547H321.195C321.479 59.5547 321.709 59.7789 321.709 60.0554C321.709 60.332 321.479 60.5562 321.195 60.5562Z" fill="#B2BED9"/>
<path fill-rule="evenodd" clip-rule="evenodd" d="M321.254 62.9585H317.588C317.304 62.9585 317.074 62.7343 317.074 62.4577C317.074 62.1812 317.304 61.957 317.588 61.957H321.254C321.538 61.957 321.768 62.1812 321.768 62.4577C321.768 62.7343 321.538 62.9585 321.254 62.9585Z" fill="#B2BED9"/>
<path fill-rule="evenodd" clip-rule="evenodd" d="M313.891 81.4285C319.447 81.4285 317.972 74.5636 326.387 74.5636C334.803 74.5636 334.364 80.7006 340.928 80.7006C347.594 80.7006 347.153 63.0742 353.539 63.0742C360.279 63.0742 358.758 79.0462 367.154 79.0462V89.8704C367.154 90.323 366.778 90.6898 366.314 90.6894L314.73 90.6461C314.266 90.6457 313.891 90.2792 313.891 89.8271L313.891 81.4285Z" fill="#393D65"/>
<path d="M313.703 84.0814C322.1 84.0814 320.909 65.3086 326.32 65.3086C331.475 65.3086 329.927 84.0814 340.601 84.0814C347.164 84.0814 349.229 76.4289 353.865 76.4289C358.502 76.4289 361.6 84.0814 367.156 84.0814" stroke="white" stroke-width="0.5"/>
<path d="M314.453 95.5043H366.246" stroke="#E4E6EF" stroke-width="0.76436" stroke-linecap="round" stroke-linejoin="round"/>
<path d="M314.453 98.9613H357.969" stroke="#E4E6EF" stroke-width="0.76436" stroke-linecap="round" stroke-linejoin="round"/>
<path d="M281.73 33H378.134C379.641 33 380.864 34.1916 380.864 35.6616V43.5932H279V35.6616C279 34.1916 280.222 33 281.73 33Z" fill="#393D65"/>
<ellipse cx="284.835" cy="38.2982" rx="1.94844" ry="1.89973" fill="white"/>
<ellipse cx="292.112" cy="38.2982" rx="1.94844" ry="1.89973" fill="white"/>
<ellipse cx="299.39" cy="38.2982" rx="1.94844" ry="1.89973" fill="white"/>
<path d="M312.839 75.8092L311.586 74.8898L312.839 73.9727L314.093 74.8898L312.839 75.8092Z" fill="white"/>
<rect x="286.254" y="71.0469" width="14.582" height="3.58985" rx="0.804028" fill="#B2BED9"/>
<rect x="286.254" y="77.957" width="14.582" height="3.48117" rx="0.791829" fill="#B2BED9"/>
<rect x="286.254" y="84.7266" width="14.582" height="3.48117" rx="0.791829" fill="#B2BED9"/>
<ellipse cx="293.541" cy="58.0859" rx="7.27962" ry="7.09763" fill="white"/>
<path d="M293.543 65.1815C295.641 65.1827 297.632 64.2789 298.982 62.7129C297.919 60.7441 295.824 59.5117 293.542 59.5117C291.26 59.5117 289.165 60.7441 288.102 62.7129C289.452 64.2793 291.444 65.183 293.543 65.1815Z" fill="#393D65"/>
<ellipse cx="293.582" cy="57.1264" rx="2.73782" ry="2.66937" fill="#393D65"/>
<mask id="mask7_2621_20526" style="mask-type:luminance" maskUnits="userSpaceOnUse" x="351" y="0" width="60" height="60">
<path fill-rule="evenodd" clip-rule="evenodd" d="M351.094 0H410.566V59.3414H351.094V0Z" fill="white"/>
</mask>
<g mask="url(#mask7_2621_20526)">
<path fill-rule="evenodd" clip-rule="evenodd" d="M351.094 29.6707C351.094 46.0574 364.407 59.3414 380.83 59.3414C397.252 59.3414 410.566 46.0574 410.566 29.6707C410.566 13.284 397.252 0 380.83 0C364.407 0 351.094 13.284 351.094 29.6707Z" fill="#764ABC"/>
</g>
<path fill-rule="evenodd" clip-rule="evenodd" d="M374.492 21.0223C374.492 17.5311 377.328 14.7008 380.825 14.7008C384.322 14.7008 387.158 17.5311 387.158 21.0223V24.19H390.324V21.0243C390.324 15.79 386.073 11.5469 380.83 11.5469H380.83C375.587 11.5469 371.336 15.79 371.336 21.0243V24.19H374.492V21.0223Z" fill="white"/>
<mask id="mask8_2621_20526" style="mask-type:luminance" maskUnits="userSpaceOnUse" x="366" y="23" width="30" height="21">
<path fill-rule="evenodd" clip-rule="evenodd" d="M366.043 23.6562H395.696V43.3543H366.043V23.6562Z" fill="white"/>
</mask>
<g mask="url(#mask8_2621_20526)">
<path fill-rule="evenodd" clip-rule="evenodd" d="M394.51 43.3543H367.229C366.577 43.3543 366.043 42.8225 366.043 42.1724V24.8381C366.043 24.1881 366.577 23.6562 367.229 23.6562H394.51C395.163 23.6562 395.696 24.1881 395.696 24.8381V42.1724C395.696 42.8225 395.163 43.3543 394.51 43.3543Z" fill="white"/>
</g>
<path fill-rule="evenodd" clip-rule="evenodd" d="M382.055 30.2053C382.055 29.5914 381.542 29.0938 380.91 29.0938C380.277 29.0938 379.765 29.5914 379.765 30.2053V33.8598C379.115 34.2486 378.68 34.9584 378.68 35.7697C378.68 36.9987 379.678 37.995 380.91 37.995C382.142 37.995 383.14 36.9987 383.14 35.7697C383.14 34.9585 382.705 34.2486 382.055 33.8598V30.2053Z" fill="#764ABC"/>
</svg>
