<svg width="113" height="119" viewBox="0 0 113 119" fill="none" xmlns="http://www.w3.org/2000/svg">
    <path
        d="M31.7009 18.4385H14.4819C11.5157 18.4385 9.11108 20.8431 9.11108 23.8093L9.11106 41.1261C9.11106 44.0923 11.5157 46.497 14.4819 46.497H31.7009C34.6671 46.497 37.0717 44.0923 37.0717 41.1261V23.8093C37.0717 20.8431 34.6671 18.4385 31.7009 18.4385Z"
        fill="#E4EBF7" />
    <path
        d="M104.286 43.5957H103.884C100.917 43.5957 98.5127 46.0003 98.5127 48.9666L98.5127 52.6031C98.5127 55.5694 100.917 57.974 103.884 57.974H104.286C107.252 57.974 109.657 55.5694 109.657 52.6031V48.9666C109.657 46.0003 107.252 43.5957 104.286 43.5957Z"
        fill="#E4EBF7" />
    <path
        d="M95.2619 81.2498L95.2619 79.6327C95.2619 78.094 96.5092 76.8467 98.0479 76.8467C99.5866 76.8467 100.834 78.094 100.834 79.6327V81.2498C100.834 82.7885 99.5866 84.0358 98.0479 84.0358C96.5092 84.0358 95.2619 82.7885 95.2619 81.2498Z"
        fill="#FF7946" />
    <path
        d="M23.4436 53.2957L23.4436 51.6786C23.4436 50.1399 24.6909 48.8926 26.2296 48.8926C27.7683 48.8926 29.0156 50.1399 29.0156 51.6786V53.2957C29.0156 54.8344 27.7683 56.0817 26.2296 56.0817C24.6909 56.0817 23.4436 54.8344 23.4436 53.2957Z"
        fill="#FAAD14" />
    <path fillRule="evenodd" clipRule="evenodd"
        d="M100.173 66.5381C100.173 91.3326 80.1423 111.432 55.4359 111.432C30.728 111.432 10.6984 91.3326 10.6984 66.5381C10.6984 41.7436 30.728 21.6445 55.4359 21.6445C80.1423 21.6445 100.173 41.7436 100.173 66.5381Z"
        fill="#ADC6FF" />
    <mask id="mask0_6112_11357" style="mask-type:alpha" maskUnits="userSpaceOnUse" x="10" y="21"
        width="91" height="91">
        <path
            d="M55.4367 21.6445C30.7281 21.6445 10.6992 41.7436 10.6992 66.5374C10.6992 91.3326 30.7281 111.432 55.4367 111.432C80.1438 111.432 100.173 91.3326 100.173 66.5374C100.173 41.7436 80.1438 21.6445 55.4367 21.6445Z"
            fill="white" />
    </mask>
    <g mask="url(#mask0_6112_11357)">
        <path fillRule="evenodd" clipRule="evenodd"
            d="M83.4715 62.9492V117.009C83.4715 117.802 82.6737 118.203 82.2347 117.649L79.6783 113.821L76.9855 117.294C76.449 117.986 75.5806 117.994 75.0373 117.31L72.2588 113.821L69.6216 117.268C69.0834 117.971 68.2049 117.978 67.6599 117.283L64.9431 113.821L62.2016 117.305C61.6612 117.991 60.7939 117.991 60.2545 117.304L57.5175 113.821L54.7884 117.294C54.2457 117.985 53.3728 117.981 52.834 117.285L50.1474 113.821L47.656 117.693C47.2187 118.255 46.5308 117.855 46.5308 117.059V62.9492H83.4715Z"
            fill="#E4EBF7" />
        <path fillRule="evenodd" clipRule="evenodd"
            d="M46.4743 62.7801H83.5305V59.9714C83.5305 58.9833 82.9094 58.1826 82.1435 58.1826H47.8613C47.0949 58.1826 46.4743 58.9833 46.4743 59.9714V62.7801Z"
            fill="#597EF7" />
        <path fillRule="evenodd" clipRule="evenodd"
            d="M75.5418 77.3353C75.7969 77.3353 76.0038 77.0684 76.0038 76.7393V73.1602C76.0038 72.8304 75.7969 72.5635 75.5418 72.5635H72.7683C72.5127 72.5635 72.3058 72.8304 72.3058 73.1602V76.7393C72.3058 77.0684 72.5127 77.3353 72.7683 77.3353H75.5418Z"
            fill="#FAAD14" />
        <path fillRule="evenodd" clipRule="evenodd"
            d="M50.452 84.4334H79.3106C79.4962 84.4334 79.6458 84.2396 79.6458 84.0001V82.4811C79.6458 82.2417 79.4962 82.0479 79.3106 82.0479H50.452C50.2669 82.0479 50.1161 82.2417 50.1161 82.4811V84.0001C50.1161 84.2396 50.2669 84.4334 50.452 84.4334Z"
            fill="#A3B5D6" />
        <path fillRule="evenodd" clipRule="evenodd"
            d="M50.452 91.532H79.3106C79.4962 91.532 79.6458 91.3382 79.6458 91.0988V89.5798C79.6458 89.3403 79.4962 89.1465 79.3106 89.1465H50.452C50.2669 89.1465 50.1161 89.3403 50.1161 89.5798V91.0988C50.1161 91.3382 50.2669 91.532 50.452 91.532Z"
            fill="#FF7946" />
        <path fillRule="evenodd" clipRule="evenodd"
            d="M50.452 98.6307H79.3106C79.4962 98.6307 79.6458 98.4368 79.6458 98.1974V96.6784C79.6458 96.439 79.4962 96.2451 79.3106 96.2451H50.452C50.2669 96.2451 50.1161 96.439 50.1161 96.6784V98.1974C50.1161 98.4368 50.2669 98.6307 50.452 98.6307Z"
            fill="#FAAD14" />
        <path fillRule="evenodd" clipRule="evenodd"
            d="M46.5696 67.8251H62.6032V52.7949H46.5696V67.8251Z" fill="#253368" />
        <path fillRule="evenodd" clipRule="evenodd"
            d="M46.5696 75.2534H62.6032V70.3115H46.5696V75.2534Z" fill="#253368" />
        <path fillRule="evenodd" clipRule="evenodd"
            d="M68.6626 55.5187H40.5087L54.5862 37.3564L68.6626 55.5187Z" fill="#253368" />
    </g>
    <path fillRule="evenodd" clipRule="evenodd"
        d="M94.9846 21.6445C87.7047 21.6445 81.8032 27.5667 81.8032 34.8721C81.8032 42.1775 87.7047 48.0997 94.9846 48.0997C102.265 48.0997 108.166 42.1775 108.166 34.8721C108.166 27.5667 102.265 21.6445 94.9846 21.6445Z"
        fill="#8BBC06" />
    <path fillRule="evenodd" clipRule="evenodd"
        d="M93.6368 40.75L92.7921 39.6603L100.977 29.0619C101.257 28.7007 101.71 28.7007 101.99 29.0619L102.328 29.4977C102.608 29.8589 102.608 30.4443 102.328 30.8055L94.6503 40.75C94.3704 41.1112 93.9166 41.1112 93.6368 40.75Z"
        fill="white" />
    <path fillRule="evenodd" clipRule="evenodd"
        d="M95.1534 38.5772L94.7589 39.8998C94.6281 40.3381 94.2051 40.5028 93.814 40.2678L89.1142 37.4434C88.723 37.2083 88.512 36.6625 88.6427 36.2242L88.8005 35.6952C88.9313 35.257 89.3543 35.0922 89.7455 35.3273L95.1534 38.5772Z"
        fill="white" />
</svg>
    