<svg width="1124" height="188" viewBox="0 0 1124 188" fill="none" xmlns="http://www.w3.org/2000/svg">
    <rect width="1120" height="180" rx="8" fill="url(#paint0_linear_4325_24881)" fill-opacity="0.6" />
    <mask id="mask0_4325_24881" style="mask-type:alpha" maskUnits="userSpaceOnUse" x="0" y="0"
        width="1120" height="180">
        <rect width="1120" height="180" rx="8" fill="url(#paint1_linear_4325_24881)"
            fill-opacity="0.4" />
    </mask>
    <g mask="url(#mask0_4325_24881)">
        <ellipse cx="259.943" cy="254.985" rx="259.943" ry="254.985"
            transform="matrix(0.785859 -0.618405 0.421117 0.907006 490 -50)"
            fill="url(#paint2_linear_4325_24881)" fill-opacity="0.44"
            style="mix-blend-mode:multiply" />
        <ellipse cx="254.685" cy="238.988" rx="254.685" ry="238.988"
            transform="matrix(-0.963366 -0.268191 0.26767 -0.963511 1167.7 169.096)"
            fill="url(#paint3_linear_4325_24881)" fill-opacity="0.7" style="mix-blend-mode:multiply" />
    </g>
    <path
        d="M886.587 35H865.108C861.408 35 858.408 37.9995 858.408 41.6996L858.408 63.3004C858.408 67.0005 861.408 70 865.108 70H886.587C890.287 70 893.286 67.0005 893.286 63.3004V41.6996C893.286 37.9995 890.287 35 886.587 35Z"
        fill="#E4EBF7" />
    <path
        d="M979.13 72.3809H978.628C974.928 72.3809 971.929 75.3804 971.929 79.0804L971.929 83.6166C971.929 87.3167 974.928 90.3162 978.628 90.3162H979.13C982.83 90.3162 985.83 87.3167 985.83 83.6167V79.0804C985.83 75.3804 982.83 72.3809 979.13 72.3809Z"
        fill="#E4EBF7" />
    <path
        d="M967.872 119.352L967.872 117.335C967.872 115.415 969.428 113.859 971.347 113.859C973.267 113.859 974.823 115.415 974.823 117.335V119.352C974.823 121.271 973.267 122.827 971.347 122.827C969.428 122.827 967.872 121.271 967.872 119.352Z"
        fill="#FF7946" />
    <path
        d="M878.289 84.4807L878.289 82.4636C878.289 80.5442 879.845 78.9883 881.764 78.9883C883.684 78.9883 885.24 80.5442 885.24 82.4636V84.4807C885.24 86.4 883.684 87.956 881.764 87.956C879.845 87.956 878.289 86.4 878.289 84.4807Z"
        fill="#FAAD14" />
    <path fill-rule="evenodd" clip-rule="evenodd"
        d="M974.002 101C974.002 131.928 949.017 157 918.198 157C887.377 157 862.393 131.928 862.393 101C862.393 70.0715 887.377 45 918.198 45C949.017 45 974.002 70.0715 974.002 101Z"
        fill="#ADC6FF" />
    <mask id="mask1_4325_24881" style="mask-type:alpha" maskUnits="userSpaceOnUse" x="862" y="45"
        width="113" height="112">
        <path
            d="M918.198 45C887.377 45 862.393 70.0715 862.393 100.999C862.393 131.928 887.377 157 918.198 157C949.017 157 974.002 131.928 974.002 100.999C974.002 70.0715 949.017 45 918.198 45Z"
            fill="white" />
    </mask>
    <g mask="url(#mask1_4325_24881)">
        <path fill-rule="evenodd" clip-rule="evenodd"
            d="M953.17 96.5234V163.958C953.17 164.946 952.174 165.447 951.627 164.755L948.438 159.98L945.079 164.313C944.41 165.177 943.326 165.186 942.649 164.333L939.183 159.98L935.893 164.281C935.222 165.158 934.126 165.167 933.446 164.299L930.057 159.98L926.638 164.327C925.963 165.182 924.882 165.182 924.209 164.325L920.795 159.98L917.39 164.313C916.713 165.175 915.624 165.169 914.952 164.302L911.601 159.98L908.493 164.811C907.948 165.511 907.09 165.013 907.09 164.02V96.5234H953.17Z"
            fill="#E4EBF7" />
        <path fill-rule="evenodd" clip-rule="evenodd"
            d="M907.018 96.3131H953.241V92.8095C953.241 91.577 952.466 90.5781 951.511 90.5781H908.748C907.792 90.5781 907.018 91.577 907.018 92.8095V96.3131Z"
            fill="#597EF7" />
        <path fill-rule="evenodd" clip-rule="evenodd"
            d="M943.276 114.468C943.594 114.468 943.852 114.135 943.852 113.725V109.26C943.852 108.849 943.594 108.516 943.276 108.516H939.816C939.497 108.516 939.239 108.849 939.239 109.26V113.725C939.239 114.135 939.497 114.468 939.816 114.468H943.276Z"
            fill="#FAAD14" />
        <path fill-rule="evenodd" clip-rule="evenodd"
            d="M911.977 123.321H947.976C948.207 123.321 948.394 123.08 948.394 122.781V120.886C948.394 120.588 948.207 120.346 947.976 120.346H911.977C911.747 120.346 911.559 120.588 911.559 120.886V122.781C911.559 123.08 911.747 123.321 911.977 123.321Z"
            fill="#A3B5D6" />
        <path fill-rule="evenodd" clip-rule="evenodd"
            d="M911.977 132.177H947.976C948.207 132.177 948.394 131.935 948.394 131.636V129.742C948.394 129.443 948.207 129.201 947.976 129.201H911.977C911.747 129.201 911.559 129.443 911.559 129.742V131.636C911.559 131.935 911.747 132.177 911.977 132.177Z"
            fill="#FF7946" />
        <path fill-rule="evenodd" clip-rule="evenodd"
            d="M911.977 141.03H947.976C948.207 141.03 948.394 140.789 948.394 140.49V138.595C948.394 138.296 948.207 138.055 947.976 138.055H911.977C911.747 138.055 911.559 138.296 911.559 138.595V140.49C911.559 140.789 911.747 141.03 911.977 141.03Z"
            fill="#FAAD14" />
        <path fill-rule="evenodd" clip-rule="evenodd"
            d="M907.136 102.606H927.136V83.8574H907.136V102.606Z" fill="#253368" />
        <path fill-rule="evenodd" clip-rule="evenodd"
            d="M907.136 111.871H927.136V105.707H907.136V111.871Z" fill="#253368" />
        <path fill-rule="evenodd" clip-rule="evenodd"
            d="M934.696 87.2531H899.577L917.137 64.5977L934.696 87.2531Z" fill="#253368" />
    </g>
    <path fill-rule="evenodd" clip-rule="evenodd"
        d="M967.526 45C958.446 45 951.084 52.3873 951.084 61.5C951.084 70.6127 958.446 78 967.526 78C976.607 78 983.969 70.6127 983.969 61.5C983.969 52.3873 976.607 45 967.526 45Z"
        fill="#8BBC06" />
    <path fill-rule="evenodd" clip-rule="evenodd"
        d="M965.848 68.8317L964.795 67.4724L975.004 54.2519C975.354 53.8014 975.92 53.8014 976.269 54.2519L976.69 54.7956C977.039 55.2461 977.039 55.9764 976.69 56.4269L967.113 68.8317C966.764 69.2822 966.198 69.2822 965.848 68.8317Z"
        fill="white" />
    <path fill-rule="evenodd" clip-rule="evenodd"
        d="M967.739 66.1209L967.247 67.7706C967.084 68.3173 966.556 68.5228 966.068 68.2296L960.206 64.7065C959.718 64.4133 959.455 63.7325 959.618 63.1858L959.814 62.5259C959.978 61.9792 960.505 61.7737 960.993 62.0669L967.739 66.1209Z"
        fill="white" />
    <defs>
        <linearGradient id="paint0_linear_4325_24881" x1="235.867" y1="-8.93129e-06" x2="485.706"
            y2="498.132" gradientUnits="userSpaceOnUse">
            <stop stop-color="#2962FF" />
            <stop offset="1" stop-color="#40A9FF" />
        </linearGradient>
        <linearGradient id="paint1_linear_4325_24881" x1="1.2135e-05" y1="65.3049" x2="192.228"
            y2="368.329" gradientUnits="userSpaceOnUse">
            <stop stop-color="#684FFF" />
            <stop offset="1" stop-color="#B871FE" />
        </linearGradient>
        <linearGradient id="paint2_linear_4325_24881" x1="259.943" y1="0" x2="259.943" y2="509.97"
            gradientUnits="userSpaceOnUse">
            <stop stop-color="#684FFF" />
            <stop offset="1" stop-color="#FFF8F0" stop-opacity="0" />
        </linearGradient>
        <linearGradient id="paint3_linear_4325_24881" x1="254.685" y1="0" x2="194.328" y2="186.31"
            gradientUnits="userSpaceOnUse">
            <stop stop-color="#5481FF" />
            <stop offset="1" stop-color="#E9E9E9" />
        </linearGradient>
    </defs>
</svg>