<svg viewBox="0 0 42 16" fill="none" xmlns="http://www.w3.org/2000/svg">
<path id="Vector" d="M34.989 1.01C34.859 0.879993 34.7047 0.776865 34.5348 0.706504C34.3649 0.636144 34.1829 0.59993 33.999 0.59993C33.8151 0.59993 33.6331 0.636144 33.4632 0.706504C33.2934 0.776865 33.139 0.879993 33.009 1.01C32.879 1.14001 32.7759 1.29435 32.7055 1.46422C32.6351 1.63408 32.5989 1.81614 32.5989 2C32.5989 2.18386 32.6351 2.36592 32.7055 2.53579C32.7759 2.70565 32.879 2.85999 33.009 2.99L36.619 6.6H7.747C7.41888 5.72181 6.79272 4.98677 5.97786 4.52321C5.163 4.05966 4.21121 3.89704 3.28866 4.06376C2.36612 4.23048 1.53144 4.71593 0.930362 5.43537C0.329285 6.15481 0 7.06251 0 8C0 8.93749 0.329285 9.84519 0.930362 10.5646C1.53144 11.2841 2.36612 11.7695 3.28866 11.9362C4.21121 12.103 5.163 11.9403 5.97786 11.4768C6.79272 11.0132 7.41888 10.2782 7.747 9.4H36.619L33.009 13.01C32.879 13.14 32.7759 13.2944 32.7055 13.4642C32.6351 13.6341 32.5989 13.8161 32.5989 14C32.5989 14.1839 32.6351 14.3659 32.7055 14.5358C32.7759 14.7057 32.879 14.86 33.009 14.99C33.139 15.12 33.2934 15.2231 33.4632 15.2935C33.6331 15.3639 33.8151 15.4001 33.999 15.4001C34.1829 15.4001 34.3649 15.3639 34.5348 15.2935C34.7047 15.2231 34.859 15.12 34.989 14.99L40.989 8.99C41.119 8.86 41.2222 8.70566 41.2925 8.53579C41.3629 8.36593 41.3991 8.18386 41.3991 8C41.3991 7.81614 41.3629 7.63408 41.2925 7.46421C41.2222 7.29435 41.119 7.14001 40.989 7.01L34.989 1.01Z" fill="black" fill-opacity="0.85"/>
</svg>
