<svg width="18" height="18" viewBox="0 0 18 18" fill="none" xmlns="http://www.w3.org/2000/svg">
  <path
    d="M14.6447 3.57538H6.06662V2.08877C6.06662 1.95418 5.91193 1.87985 5.80746 1.96221L2.95479 4.21221C2.93558 4.22724 2.92004 4.24645 2.90936 4.26838C2.89867 4.29031 2.89312 4.31438 2.89312 4.33877C2.89312 4.36317 2.89867 4.38724 2.90936 4.40917C2.92004 4.43109 2.93558 4.4503 2.95479 4.46534L5.80746 6.71534C5.91193 6.7977 6.06662 6.72337 6.06662 6.58877V5.10217H14.4037V14.5441H2.22956C2.14117 14.5441 2.06885 14.6165 2.06885 14.7048V15.9102C2.06885 15.9986 2.14117 16.0709 2.22956 16.0709H14.6447C15.3539 16.0709 15.9305 15.4944 15.9305 14.7852V4.8611C15.9305 4.15194 15.3539 3.57538 14.6447 3.57538Z"
    fill="currentColor" fillOpacity="0.45" />
</svg>