<svg width="206" height="250" viewBox="0 0 206 250" fill="none" xmlns="http://www.w3.org/2000/svg">
<g filter="url(#filter0_i_925_132204)">
<rect x="0.397949" width="205.204" height="250" rx="4.46095" fill="white"/>
<rect x="0.397949" width="205.204" height="250" rx="4.46095" fill="url(#paint0_linear_925_132204)" fill-opacity="0.2"/>
<g opacity="0.8" filter="url(#filter1_di_925_132204)">
<rect x="21.8105" y="28.5508" width="71.3753" height="8.15717" rx="4.07859" fill="#9584FF"/>
</g>
<g opacity="0.8" filter="url(#filter2_di_925_132204)">
<rect x="42.2031" y="48.9434" width="50.9828" height="8.15725" rx="4.07863" fill="#9584FF"/>
</g>
<g opacity="0.8" filter="url(#filter3_di_925_132204)">
<rect x="42.2031" y="69.3359" width="50.9828" height="8.15725" rx="4.07863" fill="#9584FF"/>
</g>
<g opacity="0.8" filter="url(#filter4_di_925_132204)">
<rect x="42.2031" y="89.7305" width="50.9828" height="8.15725" rx="4.07863" fill="#9584FF"/>
</g>
<g opacity="0.8" filter="url(#filter5_di_925_132204)">
<rect x="121.733" y="76.6016" width="62.4534" height="7.13753" rx="3.56876" fill="#7897FF"/>
</g>
<g opacity="0.8" filter="url(#filter6_di_925_132204)">
<rect x="121.733" y="94.4453" width="44.61" height="7.13759" rx="3.5688" fill="#FF8F87"/>
</g>
<g opacity="0.8" filter="url(#filter7_di_925_132204)">
<rect x="121.733" y="112.289" width="44.61" height="7.13759" rx="3.5688" fill="#91D0FF"/>
</g>
<g opacity="0.8" filter="url(#filter8_di_925_132204)">
<rect x="121.733" y="130.133" width="44.61" height="7.13759" rx="3.5688" fill="#FFDBAF"/>
</g>
<path d="M95.1846 93.6364V93.6364C98.0163 93.6354 100.31 95.9356 100.3 98.7673L99.9309 210.755C99.8984 220.631 107.63 228.791 117.494 229.29V229.29" stroke="#7366FF" stroke-width="0.892191" stroke-linecap="round" stroke-dasharray="1.78 1.78"/>
<path d="M87.1646 10.4858V10.4858C95.2631 17.875 99.8775 28.3317 99.8775 39.2946L99.8779 210.76C99.8779 220.646 107.626 228.796 117.499 229.296V229.296" stroke="#7366FF" stroke-width="0.892191" stroke-linecap="round" stroke-dasharray="1.78 1.78"/>
<g opacity="0.8" filter="url(#filter9_di_925_132204)">
<rect x="48.5747" y="158.684" width="44.61" height="5.09828" rx="2.54914" fill="#9584FF"/>
</g>
<g opacity="0.8" filter="url(#filter10_di_925_132204)">
<rect x="61.3203" y="171.43" width="31.8643" height="5.09828" rx="2.54914" fill="#9584FF"/>
</g>
<g opacity="0.8" filter="url(#filter11_di_925_132204)">
<rect x="61.3203" y="184.176" width="31.8643" height="5.09828" rx="2.54914" fill="#9584FF"/>
</g>
<g opacity="0.8" filter="url(#filter12_di_925_132204)">
<rect x="61.3203" y="196.92" width="31.8643" height="5.09828" rx="2.54914" fill="#9584FF"/>
</g>
<g opacity="0.8" filter="url(#filter13_di_925_132204)">
<rect x="112.813" y="176.975" width="44.61" height="5.09828" rx="2.54914" fill="#AFC2FF"/>
</g>
<g opacity="0.8" filter="url(#filter14_di_925_132204)">
<rect x="112.813" y="189.721" width="31.8643" height="5.09828" rx="2.54914" fill="#FF9E97"/>
</g>
<g opacity="0.8" filter="url(#filter15_di_925_132204)">
<rect x="112.813" y="202.467" width="31.8643" height="5.09828" rx="2.54914" fill="#FFCCC9"/>
</g>
<g opacity="0.8" filter="url(#filter16_di_925_132204)">
<rect x="112.813" y="215.211" width="31.8643" height="5.09828" rx="2.54914" fill="#A7EEE7"/>
</g>
<path d="M43.6976 235.552C44.7688 235.59 45.8435 235.583 46.9148 235.577C49.904 235.556 52.8966 235.539 55.8857 235.518C56.3488 235.514 56.9501 235.435 56.9812 235.145C57.0089 234.882 56.5354 234.709 56.1346 234.63C54.7005 234.336 53.1938 234.27 51.7044 234.208C49.5135 234.122 47.326 234.042 45.1351 233.98C43.7667 233.939 42.3637 233.907 41.092 234.187C40.4008 234.339 39.378 235.006 40.4872 235.345C40.7948 235.438 41.4134 235.404 41.7416 235.428C42.3948 235.48 43.0445 235.528 43.6976 235.552Z" fill="url(#paint1_linear_925_132204)"/>
<path d="M43.699 235.552C44.7703 235.59 45.845 235.583 46.9163 235.577C49.9054 235.556 52.898 235.539 55.8872 235.518C56.3503 235.514 56.9516 235.435 56.9827 235.145C57.0103 234.882 56.5369 234.709 56.1361 234.63C54.7019 234.336 53.1952 234.27 51.7058 234.208C49.5149 234.122 47.3275 234.042 45.1366 233.98C43.7681 233.939 42.3651 233.907 41.0934 234.187C40.4023 234.339 39.3794 235.006 40.4887 235.345C40.7963 235.438 41.4148 235.404 41.7431 235.428C42.3962 235.48 43.0459 235.528 43.699 235.552Z" fill="url(#paint2_linear_925_132204)"/>
<path d="M49.0436 206.057C49.289 205.721 49.5792 205.338 49.9248 205.079C50.1771 204.892 50.2186 204.951 50.5088 205.092C50.7991 205.231 51.5594 205.556 51.8462 205.704C52.2471 205.911 52.5615 206.036 53.0073 206.267C53.3287 206.433 53.9161 206.613 54.0786 206.938C54.2479 207.28 53.9265 207.605 53.7399 207.936C53.3667 208.597 52.9002 209.205 52.3611 209.744C52.1952 209.91 52.0052 210.076 51.7702 210.096C51.5974 210.114 51.428 210.044 51.2656 209.975C50.2496 209.536 49.2682 209.018 48.3317 208.427C48.1659 208.324 47.8169 208.171 47.7616 207.964C47.7098 207.764 47.9171 207.594 48.0276 207.449C48.3767 206.99 48.705 206.52 49.0436 206.057Z" fill="#E5E5E5"/>
<path d="M49.2683 206.186C49.4998 205.872 49.7728 205.509 50.1011 205.263C50.3395 205.087 50.3776 205.143 50.654 205.277C50.927 205.409 51.5491 205.661 51.8186 205.803C52.1987 206 52.4924 206.117 52.914 206.335C53.2181 206.494 53.467 206.532 53.619 206.839C53.778 207.161 53.4773 207.468 53.2976 207.783C52.9451 208.405 52.5063 208.982 51.9983 209.486C51.8428 209.642 51.6596 209.801 51.4419 209.818C51.276 209.832 51.1171 209.77 50.965 209.704C50.0043 209.289 49.4825 208.978 48.6013 208.419C48.4458 208.322 48.1141 208.177 48.0657 207.983C48.0174 207.793 48.2109 207.634 48.3145 207.496C48.6394 207.067 48.9504 206.625 49.2683 206.186Z" fill="white"/>
<path d="M52.9525 208.486C52.9421 208.499 52.9318 208.517 52.9249 208.534C52.9076 208.596 52.949 208.658 53.0043 208.689C53.032 208.707 53.0631 208.714 53.0942 208.71C53.1633 208.7 53.2013 208.624 53.2117 208.555C53.2324 208.389 53.0389 208.375 52.9525 208.486Z" fill="#F7F7F7"/>
<path d="M49.0327 206.311C49.0189 206.304 49.0051 206.314 48.9947 206.325C48.9567 206.37 48.9221 206.415 48.891 206.463C48.8841 206.473 48.8565 206.508 48.8738 206.518C48.8945 206.529 48.9118 206.491 48.9152 206.477C48.9394 206.428 48.9912 206.394 49.0258 206.352C49.0327 206.345 49.0362 206.338 49.0396 206.332C49.0431 206.325 49.0396 206.314 49.0327 206.311Z" fill="#BFBFBF"/>
<path d="M48.8322 206.54C48.8252 206.544 48.8218 206.554 48.8218 206.561C48.8252 206.568 48.8321 206.575 48.8494 206.572C48.8529 206.565 48.8563 206.561 48.8563 206.554C48.8563 206.551 48.8529 206.547 48.8494 206.544C48.846 206.54 48.8391 206.537 48.8322 206.54Z" fill="#BFBFBF"/>
<path d="M48.8481 206.539C48.8517 206.539 48.8481 206.543 48.8517 206.543H48.8553L48.8481 206.539Z" fill="#BFBFBF"/>
<path d="M49.5783 206.62C49.834 206.492 50.1278 206.361 50.3974 206.461C50.4734 206.492 50.5459 206.544 50.577 206.617C50.6185 206.717 50.577 206.838 50.501 206.917C50.425 206.997 50.3248 207.045 50.2246 207.09C50.1313 207.132 50.0276 207.183 50.0069 207.284C50.0034 207.301 50.0034 207.322 49.9896 207.335C49.9792 207.349 49.9585 207.356 49.9412 207.363C49.6786 207.453 49.4056 207.505 49.1291 207.512C49.1049 207.512 49.0807 207.512 49.06 207.501C49.0289 207.484 49.022 207.443 49.0151 207.408C48.9874 207.246 48.8907 207.031 49.0151 206.907C49.0877 206.831 49.4781 206.62 49.5783 206.62Z" fill="#FFE7D9"/>
<path d="M48.9262 206.849C48.9711 206.835 49.0264 206.821 49.0609 206.856C49.0851 206.88 49.0921 206.914 49.0955 206.946C49.1197 207.146 49.1404 207.346 49.1646 207.547C49.1681 207.585 49.175 207.623 49.1611 207.661C49.1508 207.692 49.1266 207.72 49.1058 207.744C48.819 208.065 48.5426 208.397 48.2765 208.736C48.197 208.836 48.1175 208.939 48.0139 209.012C47.9102 209.085 47.7754 209.13 47.6545 209.095C47.4471 209.036 47.3573 208.798 47.2985 208.594C47.2121 208.293 47.226 208.273 47.4541 208.072C47.6165 207.927 47.7651 207.765 47.9171 207.606C48.2074 207.301 48.5184 206.987 48.9262 206.849Z" fill="#606D9A"/>
<path d="M42.9647 225.694C43.0546 223.206 42.8679 220.666 42.8852 218.16C42.8265 217.293 42.9198 216.408 43.1617 215.593C43.1755 215.541 43.1928 215.489 43.2239 215.451C43.3172 215.33 43.4727 215.396 43.5971 215.458C44.7686 216.073 46.1509 215.928 47.2187 215.061C47.4295 215.468 47.4917 215.969 47.5435 216.453C47.6265 217.234 47.7198 218.015 47.7439 218.803V218.807C47.7474 218.976 47.7509 219.145 47.7474 219.315C47.7336 220.296 47.585 221.26 47.4675 222.224C47.3914 222.853 47.3258 223.489 47.3189 224.128C47.3154 224.65 47.229 225.037 47.1772 225.752C47.0839 227.028 47.0528 228.272 46.956 229.557C46.8524 230.936 46.7522 232.315 46.6692 233.694C46.6658 233.749 46.6623 233.804 46.6589 233.859C46.6036 233.877 45.7708 234.122 45.7708 233.849C45.7051 231.171 45.636 228.493 45.5703 225.815C45.5427 224.688 45.401 221.132 45.3803 219.805C45.287 219.816 45.2869 219.816 45.1936 219.829C44.9656 223.482 44.2226 229.55 43.7146 233.092C43.6697 233.403 43.3794 233.787 43.217 233.987C43.0546 234.188 42.7539 234.132 42.7056 233.821C42.8507 231.109 42.868 228.403 42.9647 225.694Z" fill="#E1EFFE"/>
<path d="M45.3947 233.831C45.4051 233.8 45.412 233.769 45.4224 233.738C45.526 233.334 45.5779 232.916 45.5779 232.498C45.5779 232.307 45.5675 232.114 45.6124 231.931C45.8543 231.934 46.5316 231.889 46.7735 231.893C46.7943 231.893 46.8185 231.893 46.8323 231.907C46.8496 231.92 46.8565 231.945 46.8599 231.965C46.967 232.539 46.6077 233.175 46.739 233.745C46.7908 233.973 47.0051 234.056 47.2021 234.174C47.3714 234.274 47.7066 234.526 47.907 234.526C48.0245 234.574 48.1455 234.619 48.2319 234.709C48.3182 234.802 48.3528 234.955 48.2733 235.051C48.2042 235.134 48.0798 235.145 47.9692 235.145C47.126 235.155 46.2828 235.082 45.4535 234.93C45.4051 234.92 45.3498 234.91 45.3152 234.875C45.2876 234.847 45.2738 234.806 45.2634 234.768C45.1597 234.412 45.2979 234.153 45.3947 233.831Z" fill="#494949"/>
<path d="M42.5198 234.133C42.5474 234.043 42.6062 233.967 42.6373 233.881C42.6684 233.791 42.6546 233.68 42.6546 233.583C42.6546 233.148 42.6546 232.713 42.6511 232.274C42.6511 232.142 42.6615 231.987 42.7755 231.921C42.8515 231.876 42.9483 231.89 43.0381 231.904C43.2939 231.949 43.5496 231.99 43.8053 232.035C43.8709 232.046 43.947 232.063 43.985 232.118C44.023 232.174 44.0126 232.25 43.9988 232.315C43.9228 232.733 43.8917 233.162 43.909 233.587C43.9124 233.708 43.9228 233.832 43.909 233.953C44.2027 234.206 44.531 234.42 44.88 234.593C44.9802 234.641 45.0908 234.693 45.1599 234.779C45.2325 234.866 45.2532 235.007 45.1737 235.09C45.1046 235.163 44.994 235.163 44.8938 235.156C44.137 235.111 43.3837 234.993 42.6511 234.803C42.6062 234.793 42.5613 234.779 42.5302 234.745C42.506 234.717 42.4956 234.679 42.4887 234.644C42.4576 234.475 42.4679 234.299 42.5198 234.133Z" fill="#494949"/>
<path d="M40.5286 217.979C40.4629 218.073 40.3938 218.173 40.3696 218.287C40.3455 218.401 40.3696 218.522 40.4042 218.636C40.6012 219.282 41.199 219.783 41.8694 219.866C42.0353 219.887 42.2012 219.884 42.3601 219.928C42.6435 220.008 42.8646 220.222 43.1238 220.364C43.4728 220.557 43.891 220.62 44.2815 220.53C44.6996 220.436 45.0625 220.181 45.4668 220.039C45.7951 219.925 46.1475 219.887 46.4896 219.925C46.849 219.966 47.1946 220.091 47.5505 220.16C47.9065 220.226 48.297 220.229 48.6045 220.039C48.8499 219.89 49.0365 219.624 49.3198 219.569C49.5168 219.531 49.738 219.604 49.9212 219.517C50.1354 219.42 50.208 219.151 50.2045 218.916C50.2011 218.574 50.087 218.246 49.9661 217.928C49.5825 216.925 49.0952 215.961 48.5181 215.056C48.4525 214.952 48.3799 214.845 48.2831 214.766C48.1414 214.652 47.9583 214.607 47.7786 214.576C47.0564 214.462 46.3203 214.576 45.5912 214.652C45.0832 214.703 44.5717 214.738 44.0603 214.752C43.5799 214.766 42.9994 214.655 42.5294 214.738C42.2323 214.793 42.1735 215.408 42.0422 215.688C41.859 216.082 41.624 216.449 41.3752 216.805C41.1022 217.205 40.8085 217.585 40.5286 217.979Z" fill="#606D9A"/>
<path d="M46.7101 198.717C46.3369 198.661 45.9637 198.63 45.587 198.609C45.1723 199.079 44.9132 199.705 44.7784 200.348C44.6678 200.866 44.6298 201.412 44.7369 201.934C44.844 202.452 45.1032 202.943 45.4971 203.237C46.095 203.682 46.9347 203.592 47.5118 203.119C48.0889 202.646 48.4207 201.84 48.4759 201.032C48.5209 200.351 48.3895 199.67 48.1615 199.034C47.7295 198.834 47.149 198.782 46.7101 198.717Z" fill="#FFE7D9"/>
<path d="M46.8448 203.842C47.0729 203.846 47.3148 203.839 47.5187 203.943C47.8297 204.102 47.9645 204.464 48.0543 204.8C48.4379 206.251 47.9956 207.847 48.0059 209.347C48.0198 211.186 48.3688 212.965 48.4586 214.787C48.4828 215.27 48.1062 215.675 47.6224 215.713C47.2664 215.74 46.9105 215.778 46.5545 215.823C46.0465 215.889 45.5351 215.979 45.0237 215.958C44.2703 215.927 42.9779 215.464 42.387 215.001C42.3213 214.949 42.2557 214.894 42.2177 214.821C42.1693 214.731 42.1624 214.621 42.1589 214.517C42.0932 212.654 42.1693 211.006 42.2937 209.147C42.3904 207.716 42.5425 206.254 43.0747 204.91C43.2509 204.471 44.1045 203.438 44.647 203.372C44.9373 203.338 45.3278 203.59 45.6042 203.663C46.0051 203.773 46.4232 203.832 46.8448 203.842Z" fill="#AAC5FA"/>
<path d="M51.5654 209.424C51.6726 209.324 51.8004 209.22 51.9318 209.251C52.0216 209.272 52.1011 209.355 52.1909 209.348C52.2635 209.341 52.3257 209.279 52.3948 209.244C52.5434 209.165 52.7404 209.241 52.8198 209.41C52.8682 209.514 52.8717 209.635 52.8717 209.752C52.8682 209.839 52.8614 209.929 52.8164 209.998C52.7681 210.07 52.6885 210.098 52.6125 210.122C52.2946 210.226 51.9767 210.319 51.6518 210.402C51.562 210.426 51.4652 210.447 51.3789 210.406C50.9054 210.16 51.3719 209.604 51.5654 209.424Z" fill="#FFE7D9"/>
<path d="M45.4865 204.814C45.718 204.521 46.1569 204.348 46.4817 204.535C46.6372 204.624 46.7443 204.78 46.8376 204.932C47.7465 206.439 47.819 208.325 48.6726 209.863C48.7244 209.96 48.7832 210.053 48.8696 210.119C49.0735 210.274 49.3672 210.223 49.6126 210.15C50.0445 210.026 50.4661 209.874 50.8773 209.694C51.0052 209.639 51.1572 209.58 51.2747 209.652C51.3611 209.701 51.3992 209.801 51.4337 209.894C51.5063 210.088 51.5719 210.323 51.4475 210.489C51.4026 210.547 51.3404 210.585 51.2782 210.623C50.3521 211.183 49.3085 211.55 48.2338 211.695C48.0886 211.715 47.9262 211.729 47.8018 211.646C47.7223 211.591 47.6705 211.505 47.6221 211.418C47.242 210.748 46.8895 210.064 46.5646 209.362C46.423 209.055 46.2847 208.747 46.15 208.439C45.68 207.365 44.5984 205.941 45.4865 204.814Z" fill="#606D9A"/>
<path d="M49.0714 200.37C48.5565 200.522 47.9967 200.087 47.4922 200.263C47.0153 200.429 46.8736 201.02 46.8045 201.521C46.808 201.352 46.6663 201.193 46.497 201.175C46.3276 201.158 46.1583 201.289 46.1272 201.455C46.0788 201.735 46.376 201.981 46.3449 202.264C46.3173 202.499 46.0788 202.644 45.9199 202.817C45.5397 203.232 45.5847 203.878 45.754 204.413C45.9268 204.949 46.2032 205.46 46.2274 206.02C46.2343 206.155 46.2205 206.293 46.1618 206.411C46.0339 206.663 45.7194 206.774 45.595 207.026C45.4603 207.302 45.6019 207.634 45.7782 207.89C45.9509 208.146 46.1687 208.401 46.1825 208.709C46.1998 209.075 45.875 209.424 45.5087 209.431C45.3877 209.435 45.2564 209.403 45.1492 209.462C44.8624 209.614 45.0732 210.139 44.8106 210.333C44.7311 210.392 44.6274 210.402 44.5272 210.412C44.1747 210.444 43.7531 210.44 43.5493 210.153C43.494 210.074 43.456 209.974 43.3799 209.915C43.2279 209.801 43.0136 209.894 42.834 209.96C42.4365 210.105 41.9838 210.081 41.6037 209.894C41.4482 209.818 41.2858 209.67 41.3307 209.504C41.3687 209.362 41.5381 209.3 41.6279 209.186C41.8284 208.93 41.5899 208.56 41.3273 208.363C41.0681 208.166 40.7398 207.959 40.7363 207.631C40.7363 207.295 41.0785 207.081 41.3238 206.85C41.7731 206.421 41.9424 205.72 41.7316 205.132C41.6521 204.911 41.5242 204.69 41.5795 204.462C41.6694 204.075 42.1808 203.992 42.4849 203.736C42.7441 203.518 42.8512 203.173 42.9272 202.845C43.0931 202.136 43.1899 201.41 43.2106 200.685C43.221 200.35 43.2175 200.007 43.3108 199.686C43.456 199.185 43.8292 198.777 44.2439 198.456C44.9039 197.937 45.7194 197.585 46.5557 197.592C48.0313 197.606 49.2477 198.874 49.0714 200.37Z" fill="#E8D9A9"/>
<path d="M178.883 201.749C179.671 201.734 180.462 201.715 181.235 201.567C181.329 201.548 181.443 201.51 181.461 201.408C181.485 201.271 181.325 201.191 181.197 201.168C180.781 201.1 180.354 201.085 179.934 201.073C177.162 200.99 174.391 200.906 171.619 200.933C171.088 200.937 170.557 200.948 170.03 201.024C169.77 201.062 169.239 201.081 169.062 201.332C168.892 201.571 169.1 201.711 169.305 201.78C169.95 202.004 170.817 201.848 171.487 201.848C173.065 201.848 174.647 201.825 176.226 201.799C177.11 201.787 177.999 201.768 178.883 201.749Z" fill="url(#paint3_linear_925_132204)"/>
<path d="M178.885 201.749C179.673 201.734 180.464 201.715 181.237 201.567C181.331 201.548 181.445 201.51 181.463 201.408C181.487 201.271 181.327 201.191 181.199 201.168C180.783 201.1 180.356 201.085 179.936 201.073C177.164 200.99 174.393 200.906 171.621 200.933C171.09 200.937 170.559 200.948 170.032 201.024C169.772 201.062 169.241 201.081 169.064 201.332C168.894 201.571 169.102 201.711 169.307 201.78C169.952 202.004 170.819 201.848 171.489 201.848C173.067 201.848 174.649 201.825 176.228 201.799C177.112 201.787 178 201.768 178.885 201.749Z" fill="url(#paint4_linear_925_132204)"/>
<path d="M175.961 167.317C175.905 166.781 175.294 166.356 174.83 166.523C174.358 166.694 174.139 167.264 173.872 167.72C173.661 168.08 173.39 168.4 173.078 168.654C172.932 168.776 172.755 168.928 172.786 169.125C172.8 169.205 172.845 169.277 172.89 169.342C173.074 169.607 173.262 169.87 173.501 170.075C173.74 170.28 174.035 170.42 174.34 170.398C174.899 170.36 175.315 169.805 175.517 169.235C175.69 168.73 176.016 167.875 175.961 167.317Z" fill="#AAC5FA"/>
<path d="M173.561 177.111C173.561 177.111 171.313 197.273 171.306 200.262L172.649 200.304C172.649 200.304 176.159 184.02 176.985 183.124C176.985 183.124 177.328 183.055 177.46 183.124C177.592 183.192 177.384 199.726 177.162 200.835H178.279C178.279 200.835 181.245 181.494 181.127 177.229C181.127 177.229 180.499 175.086 177.866 175.28C175.233 175.474 173.825 174.984 173.561 177.111Z" fill="#E1EFFE"/>
<path d="M181.393 177.77C181.217 175.073 180.488 169.645 179.766 167.12C179.728 166.987 179.687 166.85 179.61 166.751C179.479 166.58 179.281 166.565 179.1 166.561C178.653 166.554 177.48 166.618 177.036 166.66C176.8 166.683 175.69 166.607 175.482 166.755C175.218 166.941 175.042 167.287 174.885 167.629C174.098 169.357 174.48 171.404 174.056 173.349C173.841 174.333 173.082 177.952 173.095 178.849C173.175 179.092 173.245 179.346 173.29 179.601C173.751 180.307 174.976 179.92 175.593 180.399C176.065 180.763 176.592 180.938 177.13 181.048C177.241 181.037 177.349 181.025 177.456 181.01C178.08 180.923 179.413 180.763 179.975 180.391C180.537 180.019 181.06 180.623 181.279 179.833C181.456 179.179 181.439 178.461 181.393 177.77Z" fill="#AAC5FA"/>
<path d="M179.684 161.587C179.559 161.283 179.278 161.085 178.987 160.994C178.696 160.903 178.387 160.899 178.082 160.884C177.742 160.869 177.398 160.835 177.058 160.873C176.718 160.907 176.375 161.017 176.111 161.253C175.847 161.488 175.674 161.868 175.723 162.236L175.702 163.323C175.653 164.136 175.861 164.967 176.281 165.64C176.399 165.83 176.538 166.008 176.722 166.122C176.94 166.259 177.204 166.285 177.457 166.289C177.742 166.293 178.036 166.266 178.293 166.126C178.501 166.012 178.671 165.83 178.834 165.644C179.081 165.366 179.323 165.074 179.448 164.713C179.632 164.185 179.535 163.596 179.611 163.038C179.646 162.795 179.712 162.555 179.743 162.312C179.778 162.069 179.778 161.811 179.684 161.587Z" fill="#89796E"/>
<path d="M172.86 200.1C172.364 200.02 171.354 200.009 170.855 200.062C170.456 200.347 170.022 200.575 169.568 200.738C169.436 200.787 169.297 200.829 169.197 200.936C169.096 201.038 169.047 201.22 169.127 201.346C169.2 201.452 169.335 201.475 169.457 201.482C170.38 201.558 171.812 201.539 172.732 201.422C172.787 201.414 172.846 201.407 172.888 201.365C172.922 201.334 172.94 201.285 172.954 201.239C173.068 200.867 173.033 200.446 172.86 200.1Z" fill="#A58C41"/>
<path d="M178.672 200.197C178.672 200.197 177.069 200.262 176.903 200.368C176.736 200.475 176.566 201.432 176.837 201.568C177.111 201.705 180.167 201.363 180.167 201.363C180.167 201.363 180.42 200.968 179.661 200.729C178.904 200.49 178.783 200.49 178.672 200.197Z" fill="#A58C41"/>
<path d="M179.656 172.97C179.025 173.016 178.39 173.008 177.759 172.943C177.641 173.384 177.523 173.832 177.474 174.288C177.454 174.463 177.447 174.641 177.495 174.808C177.544 174.975 177.662 175.127 177.818 175.162L178.182 175.401C178.578 174.884 179.119 174.523 179.587 174.083C179.91 173.779 180.198 173.437 180.486 173.095C180.25 172.921 179.941 172.947 179.656 172.97Z" fill="#CCCCCC"/>
<path d="M183.488 173.794C183.513 174.079 183.523 174.379 183.391 174.63C183.207 174.979 182.805 175.112 182.437 175.116C181.546 175.127 180.734 174.58 180.026 173.984C179.877 173.859 179.728 173.729 179.548 173.661C179.315 173.574 179.058 173.608 178.819 173.559C178.777 173.551 178.729 173.536 178.708 173.494C178.691 173.464 178.694 173.426 178.698 173.388C178.722 173.129 178.75 172.871 178.777 172.613C179.135 172.537 179.489 172.73 179.825 172.879C180.165 173.027 180.519 173.137 180.873 173.243C181.043 173.296 181.22 173.346 181.397 173.342C181.574 173.338 181.761 173.27 181.872 173.122C181.976 172.985 182.004 172.799 181.99 172.62C181.972 172.446 181.913 172.278 181.855 172.111C181.636 171.507 181.397 170.907 181.025 170.402C180.904 170.239 180.762 170.06 180.779 169.851C180.793 169.703 180.887 169.578 181.001 169.498C181.116 169.422 181.251 169.384 181.383 169.358C181.598 169.312 181.938 169.198 182.136 169.358C182.354 169.532 182.451 169.988 182.555 170.25C182.84 170.979 183.096 171.724 183.273 172.495C183.377 172.924 183.45 173.357 183.488 173.794Z" fill="#89796E"/>
<path d="M179.115 173.073C179.115 173.236 179.011 173.376 178.907 173.494C178.726 173.695 178.518 173.874 178.275 173.973C178.032 174.072 177.751 174.075 177.526 173.942C177.3 173.809 177.144 173.521 177.186 173.243C177.221 173.016 177.38 172.829 177.564 172.719C177.748 172.609 177.96 172.564 178.168 172.522C178.539 172.446 179.115 172.495 179.115 173.073Z" fill="#89796E"/>
<path d="M182.571 169.393C182.349 168.501 181.735 167.794 181.145 167.133C180.653 166.583 179.56 166.172 179.161 167.103C178.842 167.851 179.466 169.177 179.685 169.883C179.747 170.081 179.83 170.305 180.007 170.381C180.084 170.411 180.163 170.415 180.247 170.411C181.003 170.392 181.756 170.168 182.415 169.762C182.484 169.72 182.557 169.667 182.581 169.583C182.602 169.522 182.588 169.458 182.571 169.393Z" fill="#AAC5FA"/>
<path d="M177.605 161.259C177.689 161.252 177.754 161.183 177.807 161.111C177.872 161.286 178.133 161.309 178.223 161.145C178.257 161.275 178.448 161.305 178.514 161.187C178.5 161.256 178.563 161.324 178.625 161.332C178.688 161.343 178.754 161.313 178.813 161.282C178.788 161.419 178.958 161.537 179.062 161.453C179.024 161.628 179.156 161.822 179.319 161.825C179.222 161.996 179.291 162.251 179.458 162.334C179.35 162.456 179.357 162.68 179.472 162.794C179.371 162.881 179.381 163.079 179.489 163.151C179.44 163.204 179.447 163.288 179.458 163.364C179.472 163.485 179.489 163.611 179.503 163.732C179.42 163.778 179.451 163.945 179.541 163.952C179.437 164.066 179.437 164.268 179.538 164.382C179.479 164.423 179.434 164.488 179.416 164.56C179.416 164.629 179.513 164.617 179.565 164.583C179.784 164.439 180.002 164.287 180.211 164.127C180.263 164.089 180.315 164.047 180.342 163.983C180.37 163.922 180.36 163.835 180.308 163.801C180.394 163.763 180.485 163.725 180.54 163.641C180.596 163.557 180.592 163.421 180.512 163.371C180.596 163.386 180.675 163.322 180.724 163.246C180.773 163.17 180.797 163.079 180.838 162.999C180.904 162.866 181.012 162.707 180.929 162.585C180.956 162.524 181.012 162.486 181.061 162.441C181.109 162.399 181.158 162.342 181.158 162.274C181.158 162.205 181.088 162.137 181.036 162.175C181.165 162.099 181.248 161.936 181.241 161.776C181.276 161.677 181.307 161.578 181.331 161.476C181.296 161.461 181.262 161.449 181.224 161.434C181.303 161.301 181.373 161.096 181.255 161.005C181.376 160.978 181.425 160.781 181.331 160.69C181.307 160.667 181.279 160.652 181.265 160.621C181.227 160.553 181.289 160.473 181.303 160.397C181.328 160.272 181.196 160.143 181.081 160.188C181.116 160.021 180.988 159.835 180.832 159.827C180.8 159.827 180.766 159.831 180.738 159.812C180.703 159.789 180.693 159.74 180.679 159.702C180.641 159.599 180.551 159.52 180.45 159.501C180.405 159.493 180.356 159.493 180.318 159.467C180.277 159.432 180.259 159.372 180.224 159.33C180.113 159.204 179.895 159.341 179.777 159.227C179.725 159.178 179.711 159.094 179.652 159.053C179.572 158.996 179.461 159.06 179.368 159.049C179.239 159.034 179.135 158.889 179.01 158.916C178.958 158.927 178.917 158.965 178.865 158.973C178.774 158.984 178.702 158.897 178.625 158.84C178.549 158.783 178.41 158.783 178.4 158.882C178.303 158.695 178.018 158.676 177.9 158.851C177.914 158.794 177.807 158.787 177.81 158.844C177.723 158.806 177.633 158.764 177.539 158.768C177.446 158.768 177.345 158.821 177.31 158.916C177.199 158.855 177.057 158.794 176.96 158.882C176.922 158.916 176.901 158.965 176.863 158.996C176.787 159.056 176.683 159.026 176.589 159.03C176.495 159.034 176.381 159.125 176.426 159.216C176.339 159.197 176.245 159.182 176.162 159.216C176.079 159.25 176.016 159.36 176.051 159.448C175.912 159.455 175.794 159.6 175.801 159.748C175.801 159.782 175.808 159.82 175.794 159.854C175.781 159.888 175.742 159.903 175.715 159.926C175.59 160.01 175.541 160.2 175.604 160.344C175.513 160.371 175.423 160.405 175.361 160.477C175.298 160.549 175.274 160.671 175.326 160.75C175.347 160.781 175.375 160.804 175.385 160.842C175.395 160.891 175.361 160.937 175.337 160.986C175.284 161.096 175.323 161.252 175.423 161.313C175.288 161.396 175.257 161.624 175.361 161.753C175.243 161.92 175.281 162.163 175.33 162.369C175.357 162.49 175.385 162.612 175.409 162.733C175.347 162.824 175.375 162.976 175.468 163.033C175.399 163.102 175.427 163.25 175.513 163.284C175.52 163.447 175.572 163.607 175.659 163.74C175.68 163.793 175.746 163.728 175.76 163.675C175.826 163.394 175.892 163.117 175.957 162.836C175.992 162.684 176.027 162.509 175.944 162.38C176.051 162.3 176.117 162.16 176.124 162.019C176.277 162.061 176.433 161.863 176.374 161.704C176.533 161.738 176.696 161.559 176.665 161.385C176.811 161.442 176.988 161.309 176.995 161.142C177.036 161.248 177.217 161.21 177.217 161.092C177.217 161.149 177.394 161.111 177.415 161.123C177.494 161.164 177.494 161.271 177.605 161.259Z" fill="#333333"/>
<path d="M178.154 174.992C178.192 175.128 178.203 175.28 178.189 175.425C175.927 175.614 173.662 175.694 171.396 175.66C171.216 174.729 171.847 174.995 172.343 175.037C172.999 175.094 173.655 175.128 174.31 175.143C174.657 175.147 178.13 174.893 178.154 174.992Z" fill="#F7F7F7"/>
<path d="M171.158 168.529C173.538 168.457 175.727 168.43 178.04 168.18C178.138 170.307 178.308 173.114 178.085 175.226C176.504 175.427 174.731 175.21 173.142 175.321C172.753 175.347 172.351 175.412 171.963 175.393C171.574 175.374 171.498 175.036 171.449 174.546C171.352 173.547 171.383 172.498 171.328 171.492C171.314 171.192 171.262 168.544 171.158 168.529Z" fill="#E6E6E6"/>
<path d="M175.282 172.536C174.987 172.16 174.831 171.617 174.664 171.161C174.636 171.085 174.546 171.063 174.505 171.139C174.244 171.602 174.012 172.081 173.804 172.574C173.755 172.685 173.908 172.783 173.956 172.673C174.38 172.654 174.803 172.666 175.223 172.7C175.303 172.707 175.327 172.593 175.282 172.536ZM174.043 172.479C174.203 172.115 174.376 171.758 174.567 171.412C174.699 171.784 174.834 172.176 175.039 172.498C174.619 172.46 174.338 172.46 174.043 172.479Z" fill="white"/>
<path d="M173.604 175.517C173.715 175.419 173.833 175.305 173.864 175.153C173.896 175.001 173.833 174.841 173.743 174.723C173.649 174.606 173.531 174.518 173.417 174.423C173.237 174.272 173.07 174.089 172.865 173.983C172.661 173.876 172.394 173.861 172.22 174.025C172.113 174.127 172.061 174.275 172.019 174.423C171.918 174.777 171.856 175.145 171.839 175.514C171.832 175.654 171.832 175.798 171.891 175.92C171.956 176.053 172.085 176.136 172.217 176.174C172.727 176.319 173.237 175.848 173.604 175.517Z" fill="#89796E"/>
</g>
<defs>
<filter id="filter0_i_925_132204" x="0.397949" y="0" width="209.665" height="254.461" filterUnits="userSpaceOnUse" color-interpolation-filters="sRGB">
<feFlood flood-opacity="0" result="BackgroundImageFix"/>
<feBlend mode="normal" in="SourceGraphic" in2="BackgroundImageFix" result="shape"/>
<feColorMatrix in="SourceAlpha" type="matrix" values="0 0 0 0 0 0 0 0 0 0 0 0 0 0 0 0 0 0 127 0" result="hardAlpha"/>
<feOffset dx="4.46095" dy="4.46095"/>
<feGaussianBlur stdDeviation="2.23048"/>
<feComposite in2="hardAlpha" operator="arithmetic" k2="-1" k3="1"/>
<feColorMatrix type="matrix" values="0 0 0 0 1 0 0 0 0 1 0 0 0 0 1 0 0 0 0.25 0"/>
<feBlend mode="normal" in2="shape" result="effect1_innerShadow_925_132204"/>
</filter>
<filter id="filter1_di_925_132204" x="19.7713" y="28.5508" width="75.4541" height="12.2348" filterUnits="userSpaceOnUse" color-interpolation-filters="sRGB">
<feFlood flood-opacity="0" result="BackgroundImageFix"/>
<feColorMatrix in="SourceAlpha" type="matrix" values="0 0 0 0 0 0 0 0 0 0 0 0 0 0 0 0 0 0 127 0" result="hardAlpha"/>
<feOffset dy="2.03929"/>
<feGaussianBlur stdDeviation="1.01965"/>
<feComposite in2="hardAlpha" operator="out"/>
<feColorMatrix type="matrix" values="0 0 0 0 0.22164 0 0 0 0 0.210838 0 0 0 0 0.345859 0 0 0 0.15 0"/>
<feBlend mode="normal" in2="BackgroundImageFix" result="effect1_dropShadow_925_132204"/>
<feBlend mode="normal" in="SourceGraphic" in2="effect1_dropShadow_925_132204" result="shape"/>
<feColorMatrix in="SourceAlpha" type="matrix" values="0 0 0 0 0 0 0 0 0 0 0 0 0 0 0 0 0 0 127 0" result="hardAlpha"/>
<feOffset dx="2.03929" dy="2.03929"/>
<feGaussianBlur stdDeviation="1.01965"/>
<feComposite in2="hardAlpha" operator="arithmetic" k2="-1" k3="1"/>
<feColorMatrix type="matrix" values="0 0 0 0 1 0 0 0 0 1 0 0 0 0 1 0 0 0 0.15 0"/>
<feBlend mode="normal" in2="shape" result="effect2_innerShadow_925_132204"/>
</filter>
<filter id="filter2_di_925_132204" x="40.1638" y="48.9434" width="55.0615" height="12.2368" filterUnits="userSpaceOnUse" color-interpolation-filters="sRGB">
<feFlood flood-opacity="0" result="BackgroundImageFix"/>
<feColorMatrix in="SourceAlpha" type="matrix" values="0 0 0 0 0 0 0 0 0 0 0 0 0 0 0 0 0 0 127 0" result="hardAlpha"/>
<feOffset dy="2.03929"/>
<feGaussianBlur stdDeviation="1.01965"/>
<feComposite in2="hardAlpha" operator="out"/>
<feColorMatrix type="matrix" values="0 0 0 0 0.22164 0 0 0 0 0.210838 0 0 0 0 0.345859 0 0 0 0.15 0"/>
<feBlend mode="normal" in2="BackgroundImageFix" result="effect1_dropShadow_925_132204"/>
<feBlend mode="normal" in="SourceGraphic" in2="effect1_dropShadow_925_132204" result="shape"/>
<feColorMatrix in="SourceAlpha" type="matrix" values="0 0 0 0 0 0 0 0 0 0 0 0 0 0 0 0 0 0 127 0" result="hardAlpha"/>
<feOffset dx="2.03929" dy="2.03929"/>
<feGaussianBlur stdDeviation="1.01965"/>
<feComposite in2="hardAlpha" operator="arithmetic" k2="-1" k3="1"/>
<feColorMatrix type="matrix" values="0 0 0 0 1 0 0 0 0 1 0 0 0 0 1 0 0 0 0.15 0"/>
<feBlend mode="normal" in2="shape" result="effect2_innerShadow_925_132204"/>
</filter>
<filter id="filter3_di_925_132204" x="40.1638" y="69.3359" width="55.0615" height="12.2368" filterUnits="userSpaceOnUse" color-interpolation-filters="sRGB">
<feFlood flood-opacity="0" result="BackgroundImageFix"/>
<feColorMatrix in="SourceAlpha" type="matrix" values="0 0 0 0 0 0 0 0 0 0 0 0 0 0 0 0 0 0 127 0" result="hardAlpha"/>
<feOffset dy="2.03929"/>
<feGaussianBlur stdDeviation="1.01965"/>
<feComposite in2="hardAlpha" operator="out"/>
<feColorMatrix type="matrix" values="0 0 0 0 0.22164 0 0 0 0 0.210838 0 0 0 0 0.345859 0 0 0 0.15 0"/>
<feBlend mode="normal" in2="BackgroundImageFix" result="effect1_dropShadow_925_132204"/>
<feBlend mode="normal" in="SourceGraphic" in2="effect1_dropShadow_925_132204" result="shape"/>
<feColorMatrix in="SourceAlpha" type="matrix" values="0 0 0 0 0 0 0 0 0 0 0 0 0 0 0 0 0 0 127 0" result="hardAlpha"/>
<feOffset dx="2.03929" dy="2.03929"/>
<feGaussianBlur stdDeviation="1.01965"/>
<feComposite in2="hardAlpha" operator="arithmetic" k2="-1" k3="1"/>
<feColorMatrix type="matrix" values="0 0 0 0 1 0 0 0 0 1 0 0 0 0 1 0 0 0 0.15 0"/>
<feBlend mode="normal" in2="shape" result="effect2_innerShadow_925_132204"/>
</filter>
<filter id="filter4_di_925_132204" x="40.1638" y="89.7305" width="55.0615" height="12.2368" filterUnits="userSpaceOnUse" color-interpolation-filters="sRGB">
<feFlood flood-opacity="0" result="BackgroundImageFix"/>
<feColorMatrix in="SourceAlpha" type="matrix" values="0 0 0 0 0 0 0 0 0 0 0 0 0 0 0 0 0 0 127 0" result="hardAlpha"/>
<feOffset dy="2.03929"/>
<feGaussianBlur stdDeviation="1.01965"/>
<feComposite in2="hardAlpha" operator="out"/>
<feColorMatrix type="matrix" values="0 0 0 0 0.22164 0 0 0 0 0.210838 0 0 0 0 0.345859 0 0 0 0.15 0"/>
<feBlend mode="normal" in2="BackgroundImageFix" result="effect1_dropShadow_925_132204"/>
<feBlend mode="normal" in="SourceGraphic" in2="effect1_dropShadow_925_132204" result="shape"/>
<feColorMatrix in="SourceAlpha" type="matrix" values="0 0 0 0 0 0 0 0 0 0 0 0 0 0 0 0 0 0 127 0" result="hardAlpha"/>
<feOffset dx="2.03929" dy="2.03929"/>
<feGaussianBlur stdDeviation="1.01965"/>
<feComposite in2="hardAlpha" operator="arithmetic" k2="-1" k3="1"/>
<feColorMatrix type="matrix" values="0 0 0 0 1 0 0 0 0 1 0 0 0 0 1 0 0 0 0.15 0"/>
<feBlend mode="normal" in2="shape" result="effect2_innerShadow_925_132204"/>
</filter>
<filter id="filter5_di_925_132204" x="119.949" y="76.6016" width="66.0219" height="10.7055" filterUnits="userSpaceOnUse" color-interpolation-filters="sRGB">
<feFlood flood-opacity="0" result="BackgroundImageFix"/>
<feColorMatrix in="SourceAlpha" type="matrix" values="0 0 0 0 0 0 0 0 0 0 0 0 0 0 0 0 0 0 127 0" result="hardAlpha"/>
<feOffset dy="1.78438"/>
<feGaussianBlur stdDeviation="0.892191"/>
<feComposite in2="hardAlpha" operator="out"/>
<feColorMatrix type="matrix" values="0 0 0 0 0.22164 0 0 0 0 0.210838 0 0 0 0 0.345859 0 0 0 0.15 0"/>
<feBlend mode="normal" in2="BackgroundImageFix" result="effect1_dropShadow_925_132204"/>
<feBlend mode="normal" in="SourceGraphic" in2="effect1_dropShadow_925_132204" result="shape"/>
<feColorMatrix in="SourceAlpha" type="matrix" values="0 0 0 0 0 0 0 0 0 0 0 0 0 0 0 0 0 0 127 0" result="hardAlpha"/>
<feOffset dx="1.78438" dy="1.78438"/>
<feGaussianBlur stdDeviation="0.892191"/>
<feComposite in2="hardAlpha" operator="arithmetic" k2="-1" k3="1"/>
<feColorMatrix type="matrix" values="0 0 0 0 1 0 0 0 0 1 0 0 0 0 1 0 0 0 0.15 0"/>
<feBlend mode="normal" in2="shape" result="effect2_innerShadow_925_132204"/>
</filter>
<filter id="filter6_di_925_132204" x="119.949" y="94.4453" width="48.1786" height="10.7055" filterUnits="userSpaceOnUse" color-interpolation-filters="sRGB">
<feFlood flood-opacity="0" result="BackgroundImageFix"/>
<feColorMatrix in="SourceAlpha" type="matrix" values="0 0 0 0 0 0 0 0 0 0 0 0 0 0 0 0 0 0 127 0" result="hardAlpha"/>
<feOffset dy="1.78438"/>
<feGaussianBlur stdDeviation="0.892191"/>
<feComposite in2="hardAlpha" operator="out"/>
<feColorMatrix type="matrix" values="0 0 0 0 0.22164 0 0 0 0 0.210838 0 0 0 0 0.345859 0 0 0 0.15 0"/>
<feBlend mode="normal" in2="BackgroundImageFix" result="effect1_dropShadow_925_132204"/>
<feBlend mode="normal" in="SourceGraphic" in2="effect1_dropShadow_925_132204" result="shape"/>
<feColorMatrix in="SourceAlpha" type="matrix" values="0 0 0 0 0 0 0 0 0 0 0 0 0 0 0 0 0 0 127 0" result="hardAlpha"/>
<feOffset dx="1.78438" dy="1.78438"/>
<feGaussianBlur stdDeviation="0.892191"/>
<feComposite in2="hardAlpha" operator="arithmetic" k2="-1" k3="1"/>
<feColorMatrix type="matrix" values="0 0 0 0 1 0 0 0 0 1 0 0 0 0 1 0 0 0 0.15 0"/>
<feBlend mode="normal" in2="shape" result="effect2_innerShadow_925_132204"/>
</filter>
<filter id="filter7_di_925_132204" x="119.949" y="112.289" width="48.1786" height="10.7055" filterUnits="userSpaceOnUse" color-interpolation-filters="sRGB">
<feFlood flood-opacity="0" result="BackgroundImageFix"/>
<feColorMatrix in="SourceAlpha" type="matrix" values="0 0 0 0 0 0 0 0 0 0 0 0 0 0 0 0 0 0 127 0" result="hardAlpha"/>
<feOffset dy="1.78438"/>
<feGaussianBlur stdDeviation="0.892191"/>
<feComposite in2="hardAlpha" operator="out"/>
<feColorMatrix type="matrix" values="0 0 0 0 0.22164 0 0 0 0 0.210838 0 0 0 0 0.345859 0 0 0 0.15 0"/>
<feBlend mode="normal" in2="BackgroundImageFix" result="effect1_dropShadow_925_132204"/>
<feBlend mode="normal" in="SourceGraphic" in2="effect1_dropShadow_925_132204" result="shape"/>
<feColorMatrix in="SourceAlpha" type="matrix" values="0 0 0 0 0 0 0 0 0 0 0 0 0 0 0 0 0 0 127 0" result="hardAlpha"/>
<feOffset dx="1.78438" dy="1.78438"/>
<feGaussianBlur stdDeviation="0.892191"/>
<feComposite in2="hardAlpha" operator="arithmetic" k2="-1" k3="1"/>
<feColorMatrix type="matrix" values="0 0 0 0 1 0 0 0 0 1 0 0 0 0 1 0 0 0 0.15 0"/>
<feBlend mode="normal" in2="shape" result="effect2_innerShadow_925_132204"/>
</filter>
<filter id="filter8_di_925_132204" x="119.949" y="130.133" width="48.1786" height="10.7055" filterUnits="userSpaceOnUse" color-interpolation-filters="sRGB">
<feFlood flood-opacity="0" result="BackgroundImageFix"/>
<feColorMatrix in="SourceAlpha" type="matrix" values="0 0 0 0 0 0 0 0 0 0 0 0 0 0 0 0 0 0 127 0" result="hardAlpha"/>
<feOffset dy="1.78438"/>
<feGaussianBlur stdDeviation="0.892191"/>
<feComposite in2="hardAlpha" operator="out"/>
<feColorMatrix type="matrix" values="0 0 0 0 0.22164 0 0 0 0 0.210838 0 0 0 0 0.345859 0 0 0 0.15 0"/>
<feBlend mode="normal" in2="BackgroundImageFix" result="effect1_dropShadow_925_132204"/>
<feBlend mode="normal" in="SourceGraphic" in2="effect1_dropShadow_925_132204" result="shape"/>
<feColorMatrix in="SourceAlpha" type="matrix" values="0 0 0 0 0 0 0 0 0 0 0 0 0 0 0 0 0 0 127 0" result="hardAlpha"/>
<feOffset dx="1.78438" dy="1.78438"/>
<feGaussianBlur stdDeviation="0.892191"/>
<feComposite in2="hardAlpha" operator="arithmetic" k2="-1" k3="1"/>
<feColorMatrix type="matrix" values="0 0 0 0 1 0 0 0 0 1 0 0 0 0 1 0 0 0 0.15 0"/>
<feBlend mode="normal" in2="shape" result="effect2_innerShadow_925_132204"/>
</filter>
<filter id="filter9_di_925_132204" x="47.3001" y="158.684" width="47.159" height="7.64677" filterUnits="userSpaceOnUse" color-interpolation-filters="sRGB">
<feFlood flood-opacity="0" result="BackgroundImageFix"/>
<feColorMatrix in="SourceAlpha" type="matrix" values="0 0 0 0 0 0 0 0 0 0 0 0 0 0 0 0 0 0 127 0" result="hardAlpha"/>
<feOffset dy="1.27456"/>
<feGaussianBlur stdDeviation="0.637279"/>
<feComposite in2="hardAlpha" operator="out"/>
<feColorMatrix type="matrix" values="0 0 0 0 0.22164 0 0 0 0 0.210838 0 0 0 0 0.345859 0 0 0 0.15 0"/>
<feBlend mode="normal" in2="BackgroundImageFix" result="effect1_dropShadow_925_132204"/>
<feBlend mode="normal" in="SourceGraphic" in2="effect1_dropShadow_925_132204" result="shape"/>
<feColorMatrix in="SourceAlpha" type="matrix" values="0 0 0 0 0 0 0 0 0 0 0 0 0 0 0 0 0 0 127 0" result="hardAlpha"/>
<feOffset dx="1.27456" dy="1.27456"/>
<feGaussianBlur stdDeviation="0.637279"/>
<feComposite in2="hardAlpha" operator="arithmetic" k2="-1" k3="1"/>
<feColorMatrix type="matrix" values="0 0 0 0 1 0 0 0 0 1 0 0 0 0 1 0 0 0 0.15 0"/>
<feBlend mode="normal" in2="shape" result="effect2_innerShadow_925_132204"/>
</filter>
<filter id="filter10_di_925_132204" x="60.0458" y="171.43" width="34.4134" height="7.64677" filterUnits="userSpaceOnUse" color-interpolation-filters="sRGB">
<feFlood flood-opacity="0" result="BackgroundImageFix"/>
<feColorMatrix in="SourceAlpha" type="matrix" values="0 0 0 0 0 0 0 0 0 0 0 0 0 0 0 0 0 0 127 0" result="hardAlpha"/>
<feOffset dy="1.27456"/>
<feGaussianBlur stdDeviation="0.637279"/>
<feComposite in2="hardAlpha" operator="out"/>
<feColorMatrix type="matrix" values="0 0 0 0 0.22164 0 0 0 0 0.210838 0 0 0 0 0.345859 0 0 0 0.15 0"/>
<feBlend mode="normal" in2="BackgroundImageFix" result="effect1_dropShadow_925_132204"/>
<feBlend mode="normal" in="SourceGraphic" in2="effect1_dropShadow_925_132204" result="shape"/>
<feColorMatrix in="SourceAlpha" type="matrix" values="0 0 0 0 0 0 0 0 0 0 0 0 0 0 0 0 0 0 127 0" result="hardAlpha"/>
<feOffset dx="1.27456" dy="1.27456"/>
<feGaussianBlur stdDeviation="0.637279"/>
<feComposite in2="hardAlpha" operator="arithmetic" k2="-1" k3="1"/>
<feColorMatrix type="matrix" values="0 0 0 0 1 0 0 0 0 1 0 0 0 0 1 0 0 0 0.15 0"/>
<feBlend mode="normal" in2="shape" result="effect2_innerShadow_925_132204"/>
</filter>
<filter id="filter11_di_925_132204" x="60.0458" y="184.176" width="34.4134" height="7.64677" filterUnits="userSpaceOnUse" color-interpolation-filters="sRGB">
<feFlood flood-opacity="0" result="BackgroundImageFix"/>
<feColorMatrix in="SourceAlpha" type="matrix" values="0 0 0 0 0 0 0 0 0 0 0 0 0 0 0 0 0 0 127 0" result="hardAlpha"/>
<feOffset dy="1.27456"/>
<feGaussianBlur stdDeviation="0.637279"/>
<feComposite in2="hardAlpha" operator="out"/>
<feColorMatrix type="matrix" values="0 0 0 0 0.22164 0 0 0 0 0.210838 0 0 0 0 0.345859 0 0 0 0.15 0"/>
<feBlend mode="normal" in2="BackgroundImageFix" result="effect1_dropShadow_925_132204"/>
<feBlend mode="normal" in="SourceGraphic" in2="effect1_dropShadow_925_132204" result="shape"/>
<feColorMatrix in="SourceAlpha" type="matrix" values="0 0 0 0 0 0 0 0 0 0 0 0 0 0 0 0 0 0 127 0" result="hardAlpha"/>
<feOffset dx="1.27456" dy="1.27456"/>
<feGaussianBlur stdDeviation="0.637279"/>
<feComposite in2="hardAlpha" operator="arithmetic" k2="-1" k3="1"/>
<feColorMatrix type="matrix" values="0 0 0 0 1 0 0 0 0 1 0 0 0 0 1 0 0 0 0.15 0"/>
<feBlend mode="normal" in2="shape" result="effect2_innerShadow_925_132204"/>
</filter>
<filter id="filter12_di_925_132204" x="60.0458" y="196.92" width="34.4134" height="7.64677" filterUnits="userSpaceOnUse" color-interpolation-filters="sRGB">
<feFlood flood-opacity="0" result="BackgroundImageFix"/>
<feColorMatrix in="SourceAlpha" type="matrix" values="0 0 0 0 0 0 0 0 0 0 0 0 0 0 0 0 0 0 127 0" result="hardAlpha"/>
<feOffset dy="1.27456"/>
<feGaussianBlur stdDeviation="0.637279"/>
<feComposite in2="hardAlpha" operator="out"/>
<feColorMatrix type="matrix" values="0 0 0 0 0.22164 0 0 0 0 0.210838 0 0 0 0 0.345859 0 0 0 0.15 0"/>
<feBlend mode="normal" in2="BackgroundImageFix" result="effect1_dropShadow_925_132204"/>
<feBlend mode="normal" in="SourceGraphic" in2="effect1_dropShadow_925_132204" result="shape"/>
<feColorMatrix in="SourceAlpha" type="matrix" values="0 0 0 0 0 0 0 0 0 0 0 0 0 0 0 0 0 0 127 0" result="hardAlpha"/>
<feOffset dx="1.27456" dy="1.27456"/>
<feGaussianBlur stdDeviation="0.637279"/>
<feComposite in2="hardAlpha" operator="arithmetic" k2="-1" k3="1"/>
<feColorMatrix type="matrix" values="0 0 0 0 1 0 0 0 0 1 0 0 0 0 1 0 0 0 0.15 0"/>
<feBlend mode="normal" in2="shape" result="effect2_innerShadow_925_132204"/>
</filter>
<filter id="filter13_di_925_132204" x="111.538" y="176.975" width="47.159" height="7.64677" filterUnits="userSpaceOnUse" color-interpolation-filters="sRGB">
<feFlood flood-opacity="0" result="BackgroundImageFix"/>
<feColorMatrix in="SourceAlpha" type="matrix" values="0 0 0 0 0 0 0 0 0 0 0 0 0 0 0 0 0 0 127 0" result="hardAlpha"/>
<feOffset dy="1.27456"/>
<feGaussianBlur stdDeviation="0.637279"/>
<feComposite in2="hardAlpha" operator="out"/>
<feColorMatrix type="matrix" values="0 0 0 0 0.22164 0 0 0 0 0.210838 0 0 0 0 0.345859 0 0 0 0.15 0"/>
<feBlend mode="normal" in2="BackgroundImageFix" result="effect1_dropShadow_925_132204"/>
<feBlend mode="normal" in="SourceGraphic" in2="effect1_dropShadow_925_132204" result="shape"/>
<feColorMatrix in="SourceAlpha" type="matrix" values="0 0 0 0 0 0 0 0 0 0 0 0 0 0 0 0 0 0 127 0" result="hardAlpha"/>
<feOffset dx="1.27456" dy="1.27456"/>
<feGaussianBlur stdDeviation="0.637279"/>
<feComposite in2="hardAlpha" operator="arithmetic" k2="-1" k3="1"/>
<feColorMatrix type="matrix" values="0 0 0 0 1 0 0 0 0 1 0 0 0 0 1 0 0 0 0.15 0"/>
<feBlend mode="normal" in2="shape" result="effect2_innerShadow_925_132204"/>
</filter>
<filter id="filter14_di_925_132204" x="111.538" y="189.721" width="34.4134" height="7.64677" filterUnits="userSpaceOnUse" color-interpolation-filters="sRGB">
<feFlood flood-opacity="0" result="BackgroundImageFix"/>
<feColorMatrix in="SourceAlpha" type="matrix" values="0 0 0 0 0 0 0 0 0 0 0 0 0 0 0 0 0 0 127 0" result="hardAlpha"/>
<feOffset dy="1.27456"/>
<feGaussianBlur stdDeviation="0.637279"/>
<feComposite in2="hardAlpha" operator="out"/>
<feColorMatrix type="matrix" values="0 0 0 0 0.22164 0 0 0 0 0.210838 0 0 0 0 0.345859 0 0 0 0.15 0"/>
<feBlend mode="normal" in2="BackgroundImageFix" result="effect1_dropShadow_925_132204"/>
<feBlend mode="normal" in="SourceGraphic" in2="effect1_dropShadow_925_132204" result="shape"/>
<feColorMatrix in="SourceAlpha" type="matrix" values="0 0 0 0 0 0 0 0 0 0 0 0 0 0 0 0 0 0 127 0" result="hardAlpha"/>
<feOffset dx="1.27456" dy="1.27456"/>
<feGaussianBlur stdDeviation="0.637279"/>
<feComposite in2="hardAlpha" operator="arithmetic" k2="-1" k3="1"/>
<feColorMatrix type="matrix" values="0 0 0 0 1 0 0 0 0 1 0 0 0 0 1 0 0 0 0.15 0"/>
<feBlend mode="normal" in2="shape" result="effect2_innerShadow_925_132204"/>
</filter>
<filter id="filter15_di_925_132204" x="111.538" y="202.467" width="34.4134" height="7.64677" filterUnits="userSpaceOnUse" color-interpolation-filters="sRGB">
<feFlood flood-opacity="0" result="BackgroundImageFix"/>
<feColorMatrix in="SourceAlpha" type="matrix" values="0 0 0 0 0 0 0 0 0 0 0 0 0 0 0 0 0 0 127 0" result="hardAlpha"/>
<feOffset dy="1.27456"/>
<feGaussianBlur stdDeviation="0.637279"/>
<feComposite in2="hardAlpha" operator="out"/>
<feColorMatrix type="matrix" values="0 0 0 0 0.22164 0 0 0 0 0.210838 0 0 0 0 0.345859 0 0 0 0.15 0"/>
<feBlend mode="normal" in2="BackgroundImageFix" result="effect1_dropShadow_925_132204"/>
<feBlend mode="normal" in="SourceGraphic" in2="effect1_dropShadow_925_132204" result="shape"/>
<feColorMatrix in="SourceAlpha" type="matrix" values="0 0 0 0 0 0 0 0 0 0 0 0 0 0 0 0 0 0 127 0" result="hardAlpha"/>
<feOffset dx="1.27456" dy="1.27456"/>
<feGaussianBlur stdDeviation="0.637279"/>
<feComposite in2="hardAlpha" operator="arithmetic" k2="-1" k3="1"/>
<feColorMatrix type="matrix" values="0 0 0 0 1 0 0 0 0 1 0 0 0 0 1 0 0 0 0.15 0"/>
<feBlend mode="normal" in2="shape" result="effect2_innerShadow_925_132204"/>
</filter>
<filter id="filter16_di_925_132204" x="111.538" y="215.211" width="34.4134" height="7.64677" filterUnits="userSpaceOnUse" color-interpolation-filters="sRGB">
<feFlood flood-opacity="0" result="BackgroundImageFix"/>
<feColorMatrix in="SourceAlpha" type="matrix" values="0 0 0 0 0 0 0 0 0 0 0 0 0 0 0 0 0 0 127 0" result="hardAlpha"/>
<feOffset dy="1.27456"/>
<feGaussianBlur stdDeviation="0.637279"/>
<feComposite in2="hardAlpha" operator="out"/>
<feColorMatrix type="matrix" values="0 0 0 0 0.22164 0 0 0 0 0.210838 0 0 0 0 0.345859 0 0 0 0.15 0"/>
<feBlend mode="normal" in2="BackgroundImageFix" result="effect1_dropShadow_925_132204"/>
<feBlend mode="normal" in="SourceGraphic" in2="effect1_dropShadow_925_132204" result="shape"/>
<feColorMatrix in="SourceAlpha" type="matrix" values="0 0 0 0 0 0 0 0 0 0 0 0 0 0 0 0 0 0 127 0" result="hardAlpha"/>
<feOffset dx="1.27456" dy="1.27456"/>
<feGaussianBlur stdDeviation="0.637279"/>
<feComposite in2="hardAlpha" operator="arithmetic" k2="-1" k3="1"/>
<feColorMatrix type="matrix" values="0 0 0 0 1 0 0 0 0 1 0 0 0 0 1 0 0 0 0.15 0"/>
<feBlend mode="normal" in2="shape" result="effect2_innerShadow_925_132204"/>
</filter>
<linearGradient id="paint0_linear_925_132204" x1="103" y1="250" x2="103" y2="0" gradientUnits="userSpaceOnUse">
<stop offset="0.266757" stop-color="#B6F2FF" stop-opacity="0"/>
<stop offset="1" stop-color="#B6F2FF"/>
</linearGradient>
<linearGradient id="paint1_linear_925_132204" x1="40.0173" y1="234.498" x2="56.9698" y2="235.334" gradientUnits="userSpaceOnUse">
<stop stop-color="#4D4D4D"/>
<stop offset="1"/>
</linearGradient>
<linearGradient id="paint2_linear_925_132204" x1="40.0188" y1="234.498" x2="56.9713" y2="235.334" gradientUnits="userSpaceOnUse">
<stop/>
<stop offset="1"/>
</linearGradient>
<linearGradient id="paint3_linear_925_132204" x1="168.999" y1="201.416" x2="181.466" y2="201.416" gradientUnits="userSpaceOnUse">
<stop stop-color="#4D4D4D"/>
<stop offset="1"/>
</linearGradient>
<linearGradient id="paint4_linear_925_132204" x1="169.001" y1="201.416" x2="181.468" y2="201.416" gradientUnits="userSpaceOnUse">
<stop/>
<stop offset="1"/>
</linearGradient>
</defs>
</svg>
