<svg width="331" height="160" viewBox="0 0 331 160" fill="none" xmlns="http://www.w3.org/2000/svg">
<rect width="331" height="160" rx="4" fill="#F2F5FE"/>
<path fill-rule="evenodd" clip-rule="evenodd" d="M97.4604 56.5781C94.5508 56.5781 92.1921 54.2194 92.1921 51.3099C92.1921 48.4003 94.5508 46.0416 97.4604 46.0416C100.37 46.0416 102.729 48.4003 102.729 51.3099C102.729 54.2194 100.37 56.5781 97.4604 56.5781ZM113.271 53.693V48.9267L109.515 47.9722C109.239 46.9749 108.844 46.0276 108.344 45.147L110.325 41.8149L106.955 38.4447L103.623 40.4265C102.743 39.9267 101.795 39.5309 100.798 39.2553L99.8435 35.4989H95.0772L94.1227 39.2553C93.1254 39.5309 92.1781 39.9267 91.2975 40.4265L87.9655 38.4447L84.5952 41.8149L86.5769 45.147C86.0772 46.0276 85.6814 46.9749 85.4058 47.9722L81.6494 48.9267V53.693L85.4058 54.6475C85.6814 55.6448 86.0772 56.592 86.5769 57.4728L84.5952 60.8048L87.9655 64.175L91.2975 62.1932C92.1781 62.693 93.1254 63.0888 94.1227 63.3644L95.0772 67.1208H99.8435L100.798 63.3644C101.795 63.0888 102.743 62.693 103.623 62.1932L106.955 64.175L110.325 60.8048L108.344 57.4728C108.844 56.592 109.239 55.6448 109.515 54.6475L113.271 53.693Z" fill="#8BBC06"/>
<path fill-rule="evenodd" clip-rule="evenodd" d="M121.136 76.2201C118.433 76.2201 116.242 74.0288 116.242 71.3256C116.242 68.6225 118.433 66.4312 121.136 66.4312C123.839 66.4312 126.031 68.6225 126.031 71.3256C126.031 74.0288 123.839 76.2201 121.136 76.2201ZM135.825 73.5397V69.1116L132.335 68.2248C132.08 67.2983 131.712 66.4182 131.247 65.6001L133.089 62.5045L129.957 59.3733L126.862 61.2145C126.044 60.7502 125.164 60.3824 124.237 60.1265L123.35 56.6366H118.922L118.036 60.1265C117.109 60.3824 116.229 60.7502 115.411 61.2145L112.315 59.3733L109.184 62.5045L111.025 65.6001C110.561 66.4182 110.193 67.2983 109.937 68.2248L106.447 69.1116V73.5397L109.937 74.4265C110.193 75.3531 110.561 76.233 111.025 77.0513L109.184 80.1469L112.315 83.2779L115.411 81.4368C116.229 81.9011 117.109 82.2688 118.036 82.5248L118.922 86.0147H123.35L124.237 82.5248C125.164 82.2688 126.044 81.9011 126.862 81.4368L129.957 83.2779L133.089 80.1469L131.247 77.0513C131.712 76.233 132.08 75.3531 132.335 74.4265L135.825 73.5397Z" fill="#253368"/>
<path d="M213.825 32.2369V77.2754" stroke="white" stroke-width="2.10678" stroke-linecap="round" stroke-linejoin="round"/>
<path d="M222.18 37.1552H118.288C115.958 37.1552 114.069 39.0439 114.069 41.3739V89.2286C114.069 91.5585 115.958 93.4473 118.288 93.4473H222.18C224.51 93.4473 226.399 91.5585 226.399 89.2286V41.3739C226.399 39.0439 224.51 37.1552 222.18 37.1552Z" fill="#597EF7"/>
<path d="M208.112 51.2177H160.476C159.699 51.2177 159.069 51.8473 159.069 52.6239V55.4364C159.069 56.2131 159.699 56.8427 160.476 56.8427H208.112C208.889 56.8427 209.519 56.2131 209.519 55.4364V52.6239C209.519 51.8473 208.889 51.2177 208.112 51.2177Z" fill="#2F54EB"/>
<path d="M185.964 73.7175H160.476C159.699 73.7175 159.069 74.3471 159.069 75.1238V77.9363C159.069 78.7129 159.699 79.3425 160.476 79.3425H185.964C186.741 79.3425 187.37 78.7129 187.37 77.9363V75.1238C187.37 74.3471 186.741 73.7175 185.964 73.7175Z" fill="#597EF7"/>
<path d="M208.112 62.4675H160.476C159.699 62.4675 159.069 63.0971 159.069 63.8738V66.6863C159.069 67.4629 159.699 68.0925 160.476 68.0925H208.112C208.889 68.0925 209.519 67.4629 209.519 66.6863V63.8738C209.519 63.0971 208.889 62.4675 208.112 62.4675Z" fill="#2F54EB"/>
<path d="M140.788 51.2177H123.913C122.36 51.2177 121.101 52.4768 121.101 54.0302V70.9051C121.101 72.4584 122.36 73.7176 123.913 73.7176H140.788C142.341 73.7176 143.601 72.4584 143.601 70.9051V54.0302C143.601 52.4768 142.341 51.2177 140.788 51.2177Z" fill="#2F54EB"/>
<path d="M150.72 51.2177V87.8399" stroke="white" stroke-width="2.10678" stroke-linecap="round" stroke-linejoin="round"/>
<path d="M203.899 71.4746H100.007C97.6769 71.4746 95.7881 73.3634 95.7881 75.6934V123.548C95.7881 125.878 97.6769 127.767 100.007 127.767H203.899C206.229 127.767 208.118 125.878 208.118 123.548V75.6934C208.118 73.3634 206.229 71.4746 203.899 71.4746Z" fill="#E4EBF7"/>
<path d="M189.831 85.5371H142.194C141.418 85.5371 140.788 86.1667 140.788 86.9434V89.7559C140.788 90.5325 141.418 91.1621 142.194 91.1621H189.831C190.608 91.1621 191.237 90.5325 191.237 89.7559V86.9434C191.237 86.1667 190.608 85.5371 189.831 85.5371Z" fill="#597EF7"/>
<path d="M167.683 108.037H142.194C141.418 108.037 140.788 108.667 140.788 109.443V112.256C140.788 113.033 141.418 113.662 142.194 113.662H167.683C168.459 113.662 169.089 113.033 169.089 112.256V109.443C169.089 108.667 168.459 108.037 167.683 108.037Z" fill="#597EF7"/>
<path d="M189.831 96.7871H142.194C141.418 96.7871 140.788 97.4167 140.788 98.1934V101.006C140.788 101.783 141.418 102.412 142.194 102.412H189.831C190.608 102.412 191.237 101.783 191.237 101.006V98.1934C191.237 97.4167 190.608 96.7871 189.831 96.7871Z" fill="#597EF7"/>
<path d="M122.507 85.5371H105.632C104.079 85.5371 102.819 86.7963 102.819 88.3496V105.225C102.819 106.778 104.079 108.037 105.632 108.037H122.507C124.06 108.037 125.319 106.778 125.319 105.225V88.3496C125.319 86.7963 124.06 85.5371 122.507 85.5371Z" fill="#597EF7"/>
<path d="M132.438 85.5371V122.159" stroke="white" stroke-width="2.10678" stroke-linecap="round" stroke-linejoin="round"/>
<path fill-rule="evenodd" clip-rule="evenodd" d="M216.074 136.819L235.959 102.269L244.459 102.269L224.881 136.819L216.074 136.819Z" fill="#FF7A46"/>
<path d="M217.234 114.043C220.63 114.043 223.383 111.29 223.383 107.895C223.383 104.499 220.63 101.746 217.234 101.746C213.839 101.746 211.086 104.499 211.086 107.895C211.086 111.29 213.839 114.043 217.234 114.043Z" fill="#FF7A46"/>
<path d="M241.138 136.864C244.534 136.864 247.286 134.111 247.286 130.716C247.286 127.32 244.534 124.568 241.138 124.568C237.743 124.568 234.99 127.32 234.99 130.716C234.99 134.111 237.743 136.864 241.138 136.864Z" fill="#FF7A46"/>
<path fill-rule="evenodd" clip-rule="evenodd" d="M247.577 62.9122L234.651 69.3751C234.313 69.5442 233.902 69.4071 233.733 69.0691C233.685 68.9741 233.66 68.8693 233.66 68.7631L233.66 55.8373C233.66 55.4593 233.967 55.153 234.345 55.153C234.451 55.153 234.556 55.1777 234.651 55.2252L247.577 61.6881C247.915 61.8571 248.052 62.2682 247.883 62.6062C247.816 62.7386 247.709 62.846 247.577 62.9122Z" fill="#FAAD14"/>
</svg>
