<svg width="16" height="16" viewBox="0 0 16 16" fill="none" xmlns="http://www.w3.org/2000/svg">
  <g clipPath="url(#clip0_5552_25179)">
    <path
      d="M9.94485 1.98321C9.09363 1.67451 8.1866 1.54996 7.28368 1.6178C7.07211 1.63361 6.86292 1.56473 6.70213 1.42631C6.54134 1.28789 6.44213 1.09126 6.42631 0.879693C6.4105 0.668121 6.47938 0.458932 6.6178 0.298145C6.75622 0.137358 6.95285 0.0381447 7.16442 0.0223298C8.64318 -0.0883867 10.1236 0.214132 11.4404 0.896103C12.7572 1.57807 13.8584 2.61265 14.6213 3.8843C15.3841 5.15595 15.7784 6.61461 15.7602 8.0974C15.742 9.58019 15.3119 11.0287 14.5181 12.2813C13.7243 13.5338 12.5979 14.541 11.2648 15.1904C9.93166 15.8398 8.44425 16.1059 6.96866 15.9589C5.49306 15.8119 4.08738 15.2576 2.90858 14.3579C1.72977 13.4582 0.824258 12.2486 0.293151 10.8641C0.254867 10.7659 0.23637 10.6611 0.238725 10.5557C0.24108 10.4503 0.264239 10.3464 0.306872 10.25C0.349505 10.1536 0.410771 10.0666 0.487148 9.99395C0.563525 9.9213 0.653507 9.86447 0.751921 9.82671C0.850335 9.78895 0.955241 9.77102 1.06061 9.77394C1.16598 9.77687 1.26973 9.80058 1.3659 9.84373C1.46207 9.88688 1.54876 9.94862 1.621 10.0254C1.69323 10.1021 1.74958 10.1924 1.78681 10.2911C2.17071 11.2914 2.79966 12.1794 3.61598 12.8735C4.43229 13.5676 5.40983 14.0457 6.45893 14.2637C7.50802 14.4818 8.59508 14.433 9.62039 14.1217C10.6457 13.8104 11.5764 13.2466 12.3272 12.4821C13.078 11.7176 13.6247 10.7768 13.9174 9.74598C14.21 8.71519 14.2391 7.62742 14.002 6.58246C13.765 5.53749 13.2693 4.56879 12.5605 3.7652C11.8517 2.96162 10.952 2.34889 9.94485 1.98321ZM8.56172 5.93115L10.2172 7.58661C10.2911 7.6625 10.3793 7.72295 10.4768 7.76445C10.5743 7.80595 10.679 7.82769 10.7849 7.82838C10.8909 7.82908 10.9959 7.80873 11.0939 7.76851C11.1919 7.7283 11.2809 7.66902 11.3558 7.59411C11.4307 7.5192 11.49 7.43017 11.5302 7.33216C11.5705 7.23416 11.5908 7.12915 11.5901 7.02322C11.5894 6.91729 11.5677 6.81255 11.5262 6.71509C11.4847 6.61762 11.4242 6.52937 11.3483 6.45546L8.32684 3.43397C8.17683 3.28398 7.97339 3.19972 7.76126 3.19972C7.54914 3.19972 7.3457 3.28398 7.19569 3.43397L4.17419 6.45546C4.03124 6.60682 3.95294 6.80795 3.95591 7.01612C3.95888 7.2243 4.0429 7.42311 4.19012 7.57032C4.33733 7.71754 4.53614 7.80156 4.74432 7.80453C4.95249 7.8075 5.15362 7.7292 5.30498 7.58625L6.96189 5.93006V11.2048C6.96189 11.4169 7.04617 11.6204 7.19618 11.7704C7.3462 11.9204 7.54966 12.0047 7.76181 12.0047C7.97396 12.0047 8.17742 11.9204 8.32743 11.7704C8.47745 11.6204 8.56172 11.4169 8.56172 11.2048V5.93115Z"
      fill="currentColor" />
  </g>
  <defs>
    <clipPath id="clip0_5552_25179">
      <rect width="16" height="16" fill="white" />
    </clipPath>
  </defs>
</svg>
  