<svg width="16" height="16" viewBox="0 0 16 16" fill="none" xmlns="http://www.w3.org/2000/svg">
<g clipPath="url(#clip0_3225_16381)">
<path d="M15.6879 9.73028V10.035L15.6832 10.0459C15.5973 10.3818 15.3285 10.4975 15.1066 10.5615C14.616 10.7084 14.0941 10.8662 13.5129 11.0568C13.4488 11.0787 13.3504 11.1053 13.341 11.1272C13.3301 11.1443 13.3363 11.2303 13.341 11.3068V11.3115C13.341 11.349 13.3457 11.3818 13.3457 11.4193V11.4459C13.3723 12.174 13.3348 12.924 13.2379 13.7397C13.1941 14.0975 13.1613 14.1647 12.8285 14.2553C12.3535 14.385 11.8801 14.51 11.4004 14.6412C10.5926 14.86 9.77852 15.0756 8.96914 15.299C8.52852 15.4193 8.08008 15.5443 7.64414 15.6631L7.0457 15.8256L7.03477 15.8303H6.98008L6.96289 15.8256C6.79102 15.7772 6.69883 15.6412 6.62852 15.5209L6.57383 15.4272C6.45508 15.2084 6.33164 14.9803 6.19102 14.7693C5.34102 13.4803 4.19258 12.3115 2.68789 11.1975C2.22539 10.8537 1.72852 10.5397 1.24414 10.235C1.06602 10.1272 0.889453 10.0115 0.709766 9.89903C0.516016 9.77403 0.392578 9.63809 0.316016 9.47403L0.306641 9.45216V9.16465L0.316016 9.14278C0.505078 8.75684 0.828516 8.43653 1.23164 8.23965C1.63633 8.04434 2.08945 7.98966 2.51445 8.08184C2.62852 8.10372 2.72852 8.14747 2.82227 8.19747C3.10352 8.35528 3.3832 8.52403 3.6582 8.68184C3.7707 8.74747 3.88008 8.81153 3.99258 8.87715C4.15977 8.97559 4.23477 9.13184 4.17539 9.28497C4.13789 9.39278 4.03008 9.50372 3.92227 9.53965C3.84102 9.56622 3.7332 9.54903 3.60508 9.47403C3.5457 9.44122 3.49258 9.4084 3.4332 9.38028C3.20195 9.25528 2.9582 9.12559 2.73789 8.96778C2.41445 8.73966 2.0707 8.70684 1.61758 8.86465C1.36914 8.95059 1.18164 9.05528 1.0582 9.26153C1.10664 9.29434 1.15508 9.3209 1.20352 9.35372C1.35977 9.45684 1.52695 9.55997 1.68945 9.6584C3.43633 10.7131 4.92851 12.0022 6.13164 13.485C6.39102 13.8068 6.61758 14.1522 6.83164 14.485C6.92852 14.6318 7.02539 14.7834 7.12695 14.9365C7.14883 14.9693 7.1707 15.0068 7.19102 15.0443L7.77695 14.8865C8.29414 14.7443 8.80664 14.61 9.31914 14.4678L9.77227 14.3475C10.652 14.1084 11.5566 13.8647 12.4504 13.6303C12.5316 13.6084 12.5473 13.5912 12.5473 13.5006C12.5582 13.2772 12.5691 13.0537 12.5848 12.8381C12.6066 12.5334 12.627 12.2193 12.6332 11.9084C12.6551 10.7772 12.4191 9.69747 12.1801 8.78965C11.7863 7.28497 11.3676 5.68653 10.8863 3.9084C10.8535 3.7834 10.7832 3.65372 10.6973 3.53809C10.6066 3.41778 10.4379 3.29278 10.1895 3.37559C9.93008 3.45684 9.86133 3.66934 9.84414 3.83184C9.83477 3.95215 9.84883 4.08653 9.88633 4.23965C10.027 4.77247 10.1676 5.30997 10.3066 5.83809C10.4098 6.22403 10.516 6.62559 10.6191 7.02403C10.6363 7.0834 10.6566 7.20372 10.6238 7.31153C10.5816 7.46309 10.452 7.55684 10.2848 7.55059C10.1066 7.54591 9.99414 7.44278 9.93945 7.24122L9.73477 6.47559C9.63789 6.10059 9.53477 5.73184 9.43945 5.35684C9.37539 5.11465 9.31602 4.87559 9.25039 4.64122C9.07852 3.99434 8.90039 3.3209 8.72227 2.66309C8.68945 2.53809 8.61914 2.4084 8.5332 2.29278C8.40351 2.13028 8.22539 2.06465 8.0332 2.11934C7.79101 2.18497 7.7207 2.40215 7.69258 2.52247C7.6707 2.65215 7.6707 2.79903 7.70195 2.91934C8.00977 4.10528 8.3332 5.30528 8.64102 6.46778C8.72695 6.79903 8.81289 7.12559 8.90508 7.45684C8.90508 7.46778 8.90977 7.47403 8.90977 7.4834C8.91445 7.50997 8.92695 7.53809 8.93164 7.56934C8.96445 7.79747 8.86758 7.95997 8.66758 8.0084C8.47852 8.05215 8.30508 7.94903 8.24726 7.73653C8.18789 7.53965 8.1332 7.3459 8.08477 7.14903L8.05195 7.02872C7.86914 6.33965 7.68477 5.65372 7.50195 4.96309C7.27539 4.10372 7.04883 3.2459 6.82227 2.39122C6.73633 2.06465 6.52695 1.86934 6.22383 1.84903C5.94883 1.82715 5.67383 1.9959 5.56602 2.25215C5.50664 2.39434 5.50195 2.53965 5.55508 2.74122C5.73789 3.43028 5.92227 4.12715 6.10508 4.81778C6.24102 5.32403 6.37383 5.82403 6.50352 6.32872C6.56289 6.55215 6.62227 6.76778 6.68164 6.99122C6.77227 7.33965 6.86445 7.68028 6.95664 8.02872C6.99883 8.19122 6.97852 8.33809 6.89258 8.43653C6.82383 8.52247 6.71445 8.56153 6.58945 8.55215C6.34727 8.52559 6.28633 8.30684 6.26602 8.22559L6.07852 7.4959L5.85352 6.64903L5.63164 5.7459C5.40508 4.88653 5.16758 3.9959 4.93164 3.1209C4.84102 2.78965 4.65664 2.60997 4.38164 2.59903C4.0582 2.58184 3.80508 2.74122 3.68633 3.02872C3.63164 3.1584 3.63164 3.30528 3.68164 3.50215L5.00508 8.49278L5.25352 9.42247C5.2707 9.4709 5.28008 9.52559 5.29102 9.58028C5.3332 9.80372 5.23633 9.97715 5.04258 10.0318C4.84883 10.0865 4.66602 9.96622 4.60664 9.75528C4.54727 9.54903 4.49414 9.33653 4.43945 9.13653C4.41758 9.06622 4.40195 8.98966 4.38008 8.91778L4.18633 8.1834C4.0957 7.83497 4.00352 7.49434 3.91133 7.1459C3.83477 7.3084 3.7707 7.45997 3.70195 7.61934C3.68477 7.65215 3.67539 7.68965 3.66445 7.72715L3.63164 7.82559C3.55039 8.03653 3.36758 8.13497 3.17852 8.06465C2.98477 7.99434 2.89727 7.80997 2.96133 7.59747C3.09727 7.13028 3.30664 6.69434 3.59258 6.29903C3.64727 6.22247 3.65664 6.16934 3.63008 6.07559C3.44102 5.38653 3.24727 4.65215 2.99414 3.70059C2.81133 3.00528 3.04883 2.40684 3.64727 2.06465C4.00195 1.86309 4.40195 1.82559 4.80508 1.97247C4.83789 1.98184 4.86914 1.99434 4.8957 2.01153C5.11289 1.4959 5.50508 1.1959 6.04883 1.13497C6.58789 1.07559 7.01914 1.28184 7.33164 1.74434C7.40039 1.67872 7.47227 1.61465 7.55351 1.56465C7.81289 1.39278 8.14102 1.33809 8.45352 1.41465C8.7707 1.49122 9.03477 1.68653 9.19726 1.96934C9.30976 2.16622 9.37539 2.38184 9.4457 2.58809C9.47227 2.67403 9.50039 2.76153 9.53164 2.84278C9.54102 2.86934 9.55352 2.90215 9.5582 2.92872C9.58008 2.91934 9.60195 2.90215 9.62226 2.88965C9.7582 2.8084 9.90352 2.7209 10.0582 2.67872C10.6566 2.50997 11.2926 2.86309 11.5145 3.48809C11.6332 3.83184 11.7238 4.1834 11.8176 4.52559C11.8395 4.60215 11.8551 4.67716 11.877 4.75372L12.0332 5.34122C12.341 6.50997 12.6645 7.71622 12.9645 8.90684C13.0551 9.26466 13.127 9.63497 13.1957 9.99434C13.2223 10.124 13.2504 10.2553 13.277 10.3912L14.9738 9.86934C14.9316 9.68965 14.8176 9.53809 14.6191 9.3959C14.3379 9.19903 14.0332 9.02091 13.6488 9.07403C13.5629 9.08341 13.4816 9.06309 13.4129 9.0084C13.3363 8.95372 13.2895 8.87247 13.277 8.78028C13.2504 8.57403 13.3457 8.40997 13.5254 8.3834C13.6879 8.35684 13.8973 8.32872 14.091 8.37403C14.7535 8.52091 15.2488 8.86309 15.5613 9.3959C15.6035 9.46622 15.6301 9.54747 15.6645 9.61934C15.6738 9.65215 15.691 9.68497 15.702 9.71153L15.6879 9.73028Z" fill="url(#paint0_linear_3225_16381)"/>
<path d="M14.5632 3.89239C14.2288 4.51739 13.8679 5.13614 13.5179 5.74082L13.146 6.3752C13.0695 6.50489 12.957 6.57676 12.8335 6.57676C12.7741 6.57676 12.7148 6.55957 12.6507 6.52832C12.5648 6.47989 12.5054 6.40801 12.4835 6.32207C12.457 6.22364 12.4788 6.11114 12.5429 6.0002C12.721 5.68614 12.8976 5.3752 13.082 5.05957C13.3241 4.64082 13.5726 4.20645 13.8163 3.77676C13.8929 3.64707 13.9663 3.50957 14.0054 3.36895C14.0913 3.06895 13.9366 2.75489 13.6382 2.61895C13.3148 2.46739 13.0507 2.54239 12.8523 2.8377C12.7663 2.9627 12.6851 3.0877 12.5991 3.2127L12.4023 3.50645C12.3054 3.65332 12.1429 3.70332 12.0038 3.63614C11.896 3.5877 11.7991 3.48457 11.7726 3.38145C11.7398 3.26582 11.8054 3.13614 11.8413 3.06739C11.9054 2.95176 11.982 2.84395 12.046 2.73614C12.132 2.6002 12.2241 2.46426 12.2991 2.32364C12.4616 2.03614 12.4351 1.75176 12.2132 1.53145C12.0679 1.37989 11.8679 1.30332 11.6741 1.3252C11.4804 1.34707 11.3116 1.4502 11.2007 1.6252C11.132 1.73301 11.0648 1.84864 11.0007 1.96114C10.946 2.05957 10.8882 2.1627 10.8226 2.26582C10.7788 2.33614 10.6929 2.4502 10.5741 2.47207C10.4663 2.49395 10.2991 2.4627 10.2288 2.36895C10.1382 2.25332 10.1523 2.06895 10.1648 2.01582C10.1757 1.93926 10.1976 1.86426 10.2195 1.79239C10.2413 1.70645 10.2679 1.62989 10.2679 1.55332C10.2726 1.43301 10.246 1.22207 10.0195 1.11426C9.84133 1.03301 9.65696 1.05489 9.46946 1.19551C9.44758 1.2127 9.42727 1.22832 9.40539 1.2502C9.38352 1.27207 9.35696 1.29395 9.33664 1.30957C9.18664 1.42364 8.98664 1.4127 8.86321 1.28301C8.72727 1.14082 8.72727 0.934574 8.85852 0.787699C9.14914 0.461137 9.59289 0.298637 10.007 0.362699C10.3695 0.417387 10.6695 0.629887 10.8366 0.961137C11.2679 0.590824 11.7366 0.509574 12.2429 0.711137C12.7507 0.912699 13.0507 1.30332 13.1226 1.84239H13.2195C13.3554 1.84239 13.4945 1.84707 13.6288 1.8752C14.082 1.97832 14.4413 2.26582 14.6195 2.6627C14.8038 3.03926 14.7773 3.48926 14.5632 3.89239ZM2.3507 5.59864C2.04289 5.71895 1.76477 5.80957 1.4882 5.88614C1.46164 5.89551 1.42883 5.89551 1.40227 5.89551C1.27414 5.89551 1.15383 5.80957 1.10695 5.66739C1.0382 5.48301 1.09602 5.30957 1.24758 5.24239C1.46164 5.14864 1.67883 5.07364 1.88821 5.00332C1.96477 4.97676 2.03821 4.94864 2.11008 4.92207L2.13195 4.91739H2.15383C2.23508 4.92207 2.47102 4.9502 2.53039 5.18926C2.5757 5.37676 2.50071 5.53926 2.3507 5.59864ZM2.58196 2.2627L2.54446 2.31114C2.53352 2.32832 2.51789 2.3502 2.50227 2.37051C2.45852 2.43614 2.41633 2.50645 2.33508 2.53926C2.29758 2.55645 2.24914 2.56114 2.19445 2.56114C2.1132 2.56114 2.02727 2.53926 1.96789 2.48926C1.75852 2.30957 1.56945 2.10957 1.4132 1.93457C1.28508 1.79239 1.29445 1.59082 1.43039 1.45176C1.56633 1.32207 1.78039 1.31582 1.91008 1.44239C2.10383 1.62207 2.28664 1.81739 2.45383 1.99707C2.49133 2.03614 2.50852 2.08301 2.52258 2.13301C2.52727 2.15489 2.53977 2.17676 2.54914 2.19864L2.58196 2.2627ZM4.12727 1.22364L4.07883 1.27832L4.01477 1.35957C3.96633 1.4252 3.91789 1.48926 3.84289 1.52832C3.79446 1.55489 3.73977 1.57207 3.68664 1.57207C3.57883 1.57207 3.47727 1.51739 3.41789 1.41426C3.31008 1.22364 3.21321 1.02364 3.12727 0.815824C3.06321 0.658012 3.11789 0.501762 3.26789 0.403324C3.43039 0.300199 3.60852 0.322074 3.69445 0.447074C3.79758 0.604887 3.88821 0.768949 3.98039 0.942387C4.01789 1.0127 4.05695 1.08457 4.09914 1.16114L4.12727 1.22364ZM2.20383 3.99082C2.14445 4.06114 2.06321 4.09864 1.97727 4.10489C1.87414 4.10957 1.77727 4.11426 1.6757 4.11426C1.57883 4.11426 1.48195 4.10957 1.38977 4.10489C1.20695 4.09395 1.07258 3.93614 1.07727 3.74082C1.08195 3.5502 1.21789 3.41426 1.40539 3.39707C1.47414 3.39239 1.54602 3.39239 1.61008 3.39707H1.95539C2.1382 3.41426 2.27258 3.54395 2.28977 3.73301C2.29602 3.82676 2.26477 3.91895 2.20383 3.99082Z" fill="url(#paint1_linear_3225_16381)"/>
</g>
<defs>
<linearGradient id="paint0_linear_3225_16381" x1="8.0043" y1="1.125" x2="8.0043" y2="15.8303" gradientUnits="userSpaceOnUse">
<stop stop-color="#FFF8E4"/>
<stop offset="1" stop-color="#EBD6FF"/>
</linearGradient>
<linearGradient id="paint1_linear_3225_16381" x1="7.90975" y1="0.337891" x2="7.90975" y2="6.57676" gradientUnits="userSpaceOnUse">
<stop stop-color="#FFF8E4"/>
<stop offset="1" stop-color="#EBD6FF"/>
</linearGradient>
<clipPath id="clip0_3225_16381">
<rect width="16" height="16" fill="white"/>
</clipPath>
</defs>
</svg>
